<mxfile host="app.diagrams.net" agent="Mozilla/5.0 (Windows NT 10.0; Win64; x64) AppleWebKit/537.36 (KHTML, like Gecko) Chrome/135.0.0.0 Safari/537.36" version="26.2.8">
  <diagram name="Page-1" id="itP6WNPCX6Qo4dTTSraB">
    <mxGraphModel dx="35400" dy="10017" grid="0" gridSize="10" guides="1" tooltips="1" connect="1" arrows="1" fold="1" page="0" pageScale="1" pageWidth="827" pageHeight="1169" math="0" shadow="0">
      <root>
        <mxCell id="0" />
        <mxCell id="1" parent="0" />
        <mxCell id="el4SjzeAoepcmtUn4qeZ-1" value="&lt;h1&gt;&lt;font style=&quot;font-size: 20px;&quot;&gt;A[1]:A[2]&lt;/font&gt;&lt;/h1&gt;" style="rounded=1;whiteSpace=wrap;html=1;labelBackgroundColor=none;fillColor=#F2CC8F;strokeColor=#E07A5F;fontColor=#393C56;" vertex="1" parent="1">
          <mxGeometry x="340" y="280" width="120" height="40" as="geometry" />
        </mxCell>
        <mxCell id="el4SjzeAoepcmtUn4qeZ-15" value="" style="endArrow=classic;html=1;rounded=0;exitX=0.25;exitY=1;exitDx=0;exitDy=0;entryX=0.583;entryY=0;entryDx=0;entryDy=0;entryPerimeter=0;labelBackgroundColor=none;strokeColor=#E07A5F;fontColor=default;" edge="1" parent="1" source="el4SjzeAoepcmtUn4qeZ-1" target="el4SjzeAoepcmtUn4qeZ-18">
          <mxGeometry width="50" height="50" relative="1" as="geometry">
            <mxPoint x="290" y="290" as="sourcePoint" />
            <mxPoint x="340" y="380" as="targetPoint" />
            <Array as="points" />
          </mxGeometry>
        </mxCell>
        <mxCell id="el4SjzeAoepcmtUn4qeZ-25" value="&lt;font style=&quot;font-size: 31px;&quot;&gt;&amp;lt;&lt;/font&gt;" style="edgeLabel;html=1;align=center;verticalAlign=middle;resizable=0;points=[];labelBackgroundColor=none;fontColor=#393C56;" vertex="1" connectable="0" parent="el4SjzeAoepcmtUn4qeZ-15">
          <mxGeometry x="-0.1467" y="1" relative="1" as="geometry">
            <mxPoint as="offset" />
          </mxGeometry>
        </mxCell>
        <mxCell id="el4SjzeAoepcmtUn4qeZ-17" value="" style="endArrow=classic;html=1;rounded=0;exitX=0.75;exitY=1;exitDx=0;exitDy=0;entryX=0.5;entryY=0;entryDx=0;entryDy=0;labelBackgroundColor=none;strokeColor=#E07A5F;fontColor=default;" edge="1" parent="1" source="el4SjzeAoepcmtUn4qeZ-1" target="el4SjzeAoepcmtUn4qeZ-339">
          <mxGeometry width="50" height="50" relative="1" as="geometry">
            <mxPoint x="340" y="430" as="sourcePoint" />
            <mxPoint x="690.0400000000009" y="400" as="targetPoint" />
          </mxGeometry>
        </mxCell>
        <mxCell id="el4SjzeAoepcmtUn4qeZ-21" value="&lt;font style=&quot;font-size: 30px;&quot;&gt;&amp;gt;&lt;/font&gt;" style="edgeLabel;html=1;align=center;verticalAlign=middle;resizable=0;points=[];labelBackgroundColor=none;fontColor=#393C56;" vertex="1" connectable="0" parent="el4SjzeAoepcmtUn4qeZ-17">
          <mxGeometry x="-0.1129" relative="1" as="geometry">
            <mxPoint as="offset" />
          </mxGeometry>
        </mxCell>
        <mxCell id="el4SjzeAoepcmtUn4qeZ-18" value="&lt;span style=&quot;font-size: 20px;&quot;&gt;A[3]:A[4]&lt;/span&gt;" style="rounded=1;whiteSpace=wrap;html=1;labelBackgroundColor=none;fillColor=#F2CC8F;strokeColor=#E07A5F;fontColor=#393C56;" vertex="1" parent="1">
          <mxGeometry x="-3967" y="880" width="120" height="40" as="geometry" />
        </mxCell>
        <mxCell id="el4SjzeAoepcmtUn4qeZ-71" value="" style="endArrow=classic;html=1;rounded=0;exitX=0.25;exitY=1;exitDx=0;exitDy=0;entryX=0.583;entryY=0;entryDx=0;entryDy=0;entryPerimeter=0;labelBackgroundColor=none;strokeColor=#E07A5F;fontColor=default;" edge="1" target="el4SjzeAoepcmtUn4qeZ-75" parent="1" source="el4SjzeAoepcmtUn4qeZ-18">
          <mxGeometry width="50" height="50" relative="1" as="geometry">
            <mxPoint x="-2330" y="870" as="sourcePoint" />
            <mxPoint x="-2360" y="930" as="targetPoint" />
            <Array as="points" />
          </mxGeometry>
        </mxCell>
        <mxCell id="el4SjzeAoepcmtUn4qeZ-72" value="&lt;font style=&quot;font-size: 31px;&quot;&gt;&amp;lt;&lt;/font&gt;" style="edgeLabel;html=1;align=center;verticalAlign=middle;resizable=0;points=[];labelBackgroundColor=none;fontColor=#393C56;" vertex="1" connectable="0" parent="el4SjzeAoepcmtUn4qeZ-71">
          <mxGeometry x="-0.1467" y="1" relative="1" as="geometry">
            <mxPoint as="offset" />
          </mxGeometry>
        </mxCell>
        <mxCell id="el4SjzeAoepcmtUn4qeZ-73" value="" style="endArrow=classic;html=1;rounded=0;exitX=0.75;exitY=1;exitDx=0;exitDy=0;entryX=0.5;entryY=0;entryDx=0;entryDy=0;labelBackgroundColor=none;strokeColor=#E07A5F;fontColor=default;" edge="1" target="el4SjzeAoepcmtUn4qeZ-248" parent="1" source="el4SjzeAoepcmtUn4qeZ-18">
          <mxGeometry width="50" height="50" relative="1" as="geometry">
            <mxPoint x="-2270" y="870" as="sourcePoint" />
            <mxPoint x="-2089.959999999999" y="950" as="targetPoint" />
          </mxGeometry>
        </mxCell>
        <mxCell id="el4SjzeAoepcmtUn4qeZ-74" value="&lt;font style=&quot;font-size: 30px;&quot;&gt;&amp;gt;&lt;/font&gt;" style="edgeLabel;html=1;align=center;verticalAlign=middle;resizable=0;points=[];labelBackgroundColor=none;fontColor=#393C56;" vertex="1" connectable="0" parent="el4SjzeAoepcmtUn4qeZ-73">
          <mxGeometry x="-0.1129" relative="1" as="geometry">
            <mxPoint as="offset" />
          </mxGeometry>
        </mxCell>
        <mxCell id="el4SjzeAoepcmtUn4qeZ-75" value="&lt;span style=&quot;font-size: 20px;&quot;&gt;A[1]:A[3]&lt;/span&gt;" style="rounded=1;whiteSpace=wrap;html=1;labelBackgroundColor=none;fillColor=#F2CC8F;strokeColor=#E07A5F;fontColor=#393C56;" vertex="1" parent="1">
          <mxGeometry x="-6822" y="1365.27" width="120" height="40" as="geometry" />
        </mxCell>
        <mxCell id="el4SjzeAoepcmtUn4qeZ-83" value="" style="endArrow=classic;html=1;rounded=0;exitX=0.25;exitY=1;exitDx=0;exitDy=0;entryX=0.583;entryY=0;entryDx=0;entryDy=0;entryPerimeter=0;labelBackgroundColor=none;strokeColor=#E07A5F;fontColor=default;" edge="1" target="el4SjzeAoepcmtUn4qeZ-87" parent="1" source="el4SjzeAoepcmtUn4qeZ-75">
          <mxGeometry width="50" height="50" relative="1" as="geometry">
            <mxPoint x="-5332" y="1350.1599999999999" as="sourcePoint" />
            <mxPoint x="-5362" y="1410.1599999999999" as="targetPoint" />
            <Array as="points" />
          </mxGeometry>
        </mxCell>
        <mxCell id="el4SjzeAoepcmtUn4qeZ-84" value="&lt;font style=&quot;font-size: 31px;&quot;&gt;&amp;lt;&lt;/font&gt;" style="edgeLabel;html=1;align=center;verticalAlign=middle;resizable=0;points=[];labelBackgroundColor=none;fontColor=#393C56;" vertex="1" connectable="0" parent="el4SjzeAoepcmtUn4qeZ-83">
          <mxGeometry x="-0.1467" y="1" relative="1" as="geometry">
            <mxPoint as="offset" />
          </mxGeometry>
        </mxCell>
        <mxCell id="el4SjzeAoepcmtUn4qeZ-85" value="" style="endArrow=classic;html=1;rounded=0;exitX=1;exitY=1;exitDx=0;exitDy=0;entryX=0.5;entryY=0;entryDx=0;entryDy=0;labelBackgroundColor=none;strokeColor=#E07A5F;fontColor=default;" edge="1" target="el4SjzeAoepcmtUn4qeZ-203" parent="1" source="el4SjzeAoepcmtUn4qeZ-75">
          <mxGeometry width="50" height="50" relative="1" as="geometry">
            <mxPoint x="-5272" y="1350.1599999999999" as="sourcePoint" />
            <mxPoint x="-5011.959999999999" y="1430.1599999999999" as="targetPoint" />
          </mxGeometry>
        </mxCell>
        <mxCell id="el4SjzeAoepcmtUn4qeZ-86" value="&lt;font style=&quot;font-size: 30px;&quot;&gt;&amp;gt;&lt;/font&gt;" style="edgeLabel;html=1;align=center;verticalAlign=middle;resizable=0;points=[];labelBackgroundColor=none;fontColor=#393C56;" vertex="1" connectable="0" parent="el4SjzeAoepcmtUn4qeZ-85">
          <mxGeometry x="-0.1129" relative="1" as="geometry">
            <mxPoint as="offset" />
          </mxGeometry>
        </mxCell>
        <mxCell id="el4SjzeAoepcmtUn4qeZ-87" value="&lt;span style=&quot;font-size: 20px;&quot;&gt;A[2]:A[5]&lt;/span&gt;" style="rounded=1;whiteSpace=wrap;html=1;labelBackgroundColor=none;fillColor=#F2CC8F;strokeColor=#E07A5F;fontColor=#393C56;" vertex="1" parent="1">
          <mxGeometry x="-8500" y="1700.27" width="120" height="40" as="geometry" />
        </mxCell>
        <mxCell id="el4SjzeAoepcmtUn4qeZ-113" value="" style="endArrow=classic;html=1;rounded=0;exitX=0.25;exitY=1;exitDx=0;exitDy=0;entryX=0.583;entryY=0;entryDx=0;entryDy=0;entryPerimeter=0;labelBackgroundColor=none;strokeColor=#E07A5F;fontColor=default;" edge="1" target="el4SjzeAoepcmtUn4qeZ-117" parent="1">
          <mxGeometry width="50" height="50" relative="1" as="geometry">
            <mxPoint x="-8470" y="1740.38" as="sourcePoint" />
            <mxPoint x="-8500" y="1800.38" as="targetPoint" />
            <Array as="points" />
          </mxGeometry>
        </mxCell>
        <mxCell id="el4SjzeAoepcmtUn4qeZ-114" value="&lt;font style=&quot;font-size: 31px;&quot;&gt;&amp;lt;&lt;/font&gt;" style="edgeLabel;html=1;align=center;verticalAlign=middle;resizable=0;points=[];labelBackgroundColor=none;fontColor=#393C56;" vertex="1" connectable="0" parent="el4SjzeAoepcmtUn4qeZ-113">
          <mxGeometry x="-0.1467" y="1" relative="1" as="geometry">
            <mxPoint as="offset" />
          </mxGeometry>
        </mxCell>
        <mxCell id="el4SjzeAoepcmtUn4qeZ-115" value="" style="endArrow=classic;html=1;rounded=0;exitX=0.75;exitY=1;exitDx=0;exitDy=0;entryX=0.417;entryY=0;entryDx=0;entryDy=0;entryPerimeter=0;labelBackgroundColor=none;strokeColor=#E07A5F;fontColor=default;" edge="1" parent="1">
          <mxGeometry width="50" height="50" relative="1" as="geometry">
            <mxPoint x="-8410" y="1740.38" as="sourcePoint" />
            <mxPoint x="-8149.96" y="1820.38" as="targetPoint" />
          </mxGeometry>
        </mxCell>
        <mxCell id="el4SjzeAoepcmtUn4qeZ-117" value="&lt;span style=&quot;font-size: 20px;&quot;&gt;A[2]:A[3]&lt;/span&gt;" style="rounded=1;whiteSpace=wrap;html=1;labelBackgroundColor=none;fillColor=#F2CC8F;strokeColor=#E07A5F;fontColor=#393C56;" vertex="1" parent="1">
          <mxGeometry x="-9550" y="1888.24" width="120" height="40" as="geometry" />
        </mxCell>
        <mxCell id="el4SjzeAoepcmtUn4qeZ-119" value="" style="endArrow=classic;html=1;rounded=0;exitX=0.25;exitY=1;exitDx=0;exitDy=0;entryX=0.583;entryY=0;entryDx=0;entryDy=0;entryPerimeter=0;labelBackgroundColor=none;strokeColor=#E07A5F;fontColor=default;" edge="1" target="el4SjzeAoepcmtUn4qeZ-123" parent="1">
          <mxGeometry width="50" height="50" relative="1" as="geometry">
            <mxPoint x="-9530" y="1928.24" as="sourcePoint" />
            <mxPoint x="-9560" y="1988.24" as="targetPoint" />
            <Array as="points" />
          </mxGeometry>
        </mxCell>
        <mxCell id="el4SjzeAoepcmtUn4qeZ-120" value="&lt;font style=&quot;font-size: 31px;&quot;&gt;&amp;lt;&lt;/font&gt;" style="edgeLabel;html=1;align=center;verticalAlign=middle;resizable=0;points=[];labelBackgroundColor=none;fontColor=#393C56;" vertex="1" connectable="0" parent="el4SjzeAoepcmtUn4qeZ-119">
          <mxGeometry x="-0.1467" y="1" relative="1" as="geometry">
            <mxPoint as="offset" />
          </mxGeometry>
        </mxCell>
        <mxCell id="el4SjzeAoepcmtUn4qeZ-121" value="" style="endArrow=classic;html=1;rounded=0;exitX=0.75;exitY=1;exitDx=0;exitDy=0;entryX=0.417;entryY=0;entryDx=0;entryDy=0;entryPerimeter=0;labelBackgroundColor=none;strokeColor=#E07A5F;fontColor=default;" edge="1" target="el4SjzeAoepcmtUn4qeZ-124" parent="1">
          <mxGeometry width="50" height="50" relative="1" as="geometry">
            <mxPoint x="-9470" y="1928.24" as="sourcePoint" />
            <mxPoint x="-9450" y="1988.24" as="targetPoint" />
          </mxGeometry>
        </mxCell>
        <mxCell id="el4SjzeAoepcmtUn4qeZ-122" value="&lt;font style=&quot;font-size: 30px;&quot;&gt;&amp;gt;&lt;/font&gt;" style="edgeLabel;html=1;align=center;verticalAlign=middle;resizable=0;points=[];labelBackgroundColor=none;fontColor=#393C56;" vertex="1" connectable="0" parent="el4SjzeAoepcmtUn4qeZ-121">
          <mxGeometry x="-0.1129" relative="1" as="geometry">
            <mxPoint as="offset" />
          </mxGeometry>
        </mxCell>
        <mxCell id="el4SjzeAoepcmtUn4qeZ-123" value="&lt;span style=&quot;font-size: 20px;&quot;&gt;A[3]:A[5]&lt;/span&gt;" style="rounded=1;whiteSpace=wrap;html=1;labelBackgroundColor=none;fillColor=#F2CC8F;strokeColor=#E07A5F;fontColor=#393C56;" vertex="1" parent="1">
          <mxGeometry x="-9980" y="2033.2400000000002" width="120" height="40" as="geometry" />
        </mxCell>
        <mxCell id="el4SjzeAoepcmtUn4qeZ-124" value="&lt;span style=&quot;font-size: 20px;&quot;&gt;A[2]:A[4]&lt;/span&gt;" style="rounded=1;whiteSpace=wrap;html=1;labelBackgroundColor=none;fillColor=#F2CC8F;strokeColor=#E07A5F;fontColor=#393C56;" vertex="1" parent="1">
          <mxGeometry x="-9260" y="2008.2400000000002" width="120" height="40" as="geometry" />
        </mxCell>
        <mxCell id="el4SjzeAoepcmtUn4qeZ-125" value="" style="endArrow=classic;html=1;rounded=0;exitX=0.25;exitY=1;exitDx=0;exitDy=0;entryX=0.583;entryY=0;entryDx=0;entryDy=0;entryPerimeter=0;labelBackgroundColor=none;strokeColor=#E07A5F;fontColor=default;" edge="1" target="el4SjzeAoepcmtUn4qeZ-129" parent="1">
          <mxGeometry width="50" height="50" relative="1" as="geometry">
            <mxPoint x="-9960" y="2073.2400000000002" as="sourcePoint" />
            <mxPoint x="-9990" y="2133.2400000000002" as="targetPoint" />
            <Array as="points" />
          </mxGeometry>
        </mxCell>
        <mxCell id="el4SjzeAoepcmtUn4qeZ-126" value="&lt;font style=&quot;font-size: 31px;&quot;&gt;&amp;lt;&lt;/font&gt;" style="edgeLabel;html=1;align=center;verticalAlign=middle;resizable=0;points=[];labelBackgroundColor=none;fontColor=#393C56;" vertex="1" connectable="0" parent="el4SjzeAoepcmtUn4qeZ-125">
          <mxGeometry x="-0.1467" y="1" relative="1" as="geometry">
            <mxPoint as="offset" />
          </mxGeometry>
        </mxCell>
        <mxCell id="el4SjzeAoepcmtUn4qeZ-127" value="" style="endArrow=classic;html=1;rounded=0;exitX=0.75;exitY=1;exitDx=0;exitDy=0;entryX=0.417;entryY=0;entryDx=0;entryDy=0;entryPerimeter=0;labelBackgroundColor=none;strokeColor=#E07A5F;fontColor=default;" edge="1" target="el4SjzeAoepcmtUn4qeZ-130" parent="1">
          <mxGeometry width="50" height="50" relative="1" as="geometry">
            <mxPoint x="-9900" y="2073.2400000000002" as="sourcePoint" />
            <mxPoint x="-9880" y="2133.2400000000002" as="targetPoint" />
          </mxGeometry>
        </mxCell>
        <mxCell id="el4SjzeAoepcmtUn4qeZ-128" value="&lt;font style=&quot;font-size: 30px;&quot;&gt;&amp;gt;&lt;/font&gt;" style="edgeLabel;html=1;align=center;verticalAlign=middle;resizable=0;points=[];labelBackgroundColor=none;fontColor=#393C56;" vertex="1" connectable="0" parent="el4SjzeAoepcmtUn4qeZ-127">
          <mxGeometry x="-0.1129" relative="1" as="geometry">
            <mxPoint as="offset" />
          </mxGeometry>
        </mxCell>
        <mxCell id="el4SjzeAoepcmtUn4qeZ-129" value="&lt;span style=&quot;font-size: 20px;&quot;&gt;A[3] is Med.&lt;/span&gt;" style="rounded=1;whiteSpace=wrap;html=1;labelBackgroundColor=none;fillColor=#F2CC8F;strokeColor=#E07A5F;fontColor=#393C56;" vertex="1" parent="1">
          <mxGeometry x="-10250" y="2153.2400000000002" width="120" height="40" as="geometry" />
        </mxCell>
        <mxCell id="el4SjzeAoepcmtUn4qeZ-130" value="&lt;span style=&quot;font-size: 20px;&quot;&gt;A[5] is Med.&lt;/span&gt;" style="rounded=1;whiteSpace=wrap;html=1;labelBackgroundColor=none;fillColor=#F2CC8F;strokeColor=#E07A5F;fontColor=#393C56;" vertex="1" parent="1">
          <mxGeometry x="-9690" y="2153.2400000000002" width="120" height="40" as="geometry" />
        </mxCell>
        <mxCell id="el4SjzeAoepcmtUn4qeZ-131" value="" style="endArrow=classic;html=1;rounded=0;exitX=0.25;exitY=1;exitDx=0;exitDy=0;entryX=0.583;entryY=0;entryDx=0;entryDy=0;entryPerimeter=0;labelBackgroundColor=none;strokeColor=#E07A5F;fontColor=default;" edge="1" target="el4SjzeAoepcmtUn4qeZ-135" parent="1">
          <mxGeometry width="50" height="50" relative="1" as="geometry">
            <mxPoint x="-9210" y="2048.2400000000002" as="sourcePoint" />
            <mxPoint x="-9240" y="2108.2400000000002" as="targetPoint" />
            <Array as="points" />
          </mxGeometry>
        </mxCell>
        <mxCell id="el4SjzeAoepcmtUn4qeZ-132" value="&lt;font style=&quot;font-size: 31px;&quot;&gt;&amp;lt;&lt;/font&gt;" style="edgeLabel;html=1;align=center;verticalAlign=middle;resizable=0;points=[];labelBackgroundColor=none;fontColor=#393C56;" vertex="1" connectable="0" parent="el4SjzeAoepcmtUn4qeZ-131">
          <mxGeometry x="-0.1467" y="1" relative="1" as="geometry">
            <mxPoint as="offset" />
          </mxGeometry>
        </mxCell>
        <mxCell id="el4SjzeAoepcmtUn4qeZ-133" value="" style="endArrow=classic;html=1;rounded=0;exitX=0.75;exitY=1;exitDx=0;exitDy=0;entryX=0.417;entryY=0;entryDx=0;entryDy=0;entryPerimeter=0;labelBackgroundColor=none;strokeColor=#E07A5F;fontColor=default;" edge="1" target="el4SjzeAoepcmtUn4qeZ-136" parent="1">
          <mxGeometry width="50" height="50" relative="1" as="geometry">
            <mxPoint x="-9150" y="2048.2400000000002" as="sourcePoint" />
            <mxPoint x="-9130" y="2108.2400000000002" as="targetPoint" />
          </mxGeometry>
        </mxCell>
        <mxCell id="el4SjzeAoepcmtUn4qeZ-134" value="&lt;font style=&quot;font-size: 30px;&quot;&gt;&amp;gt;&lt;/font&gt;" style="edgeLabel;html=1;align=center;verticalAlign=middle;resizable=0;points=[];labelBackgroundColor=none;fontColor=#393C56;" vertex="1" connectable="0" parent="el4SjzeAoepcmtUn4qeZ-133">
          <mxGeometry x="-0.1129" relative="1" as="geometry">
            <mxPoint as="offset" />
          </mxGeometry>
        </mxCell>
        <mxCell id="el4SjzeAoepcmtUn4qeZ-135" value="&lt;span style=&quot;font-size: 20px;&quot;&gt;A[2] is Med.&lt;/span&gt;" style="rounded=1;whiteSpace=wrap;html=1;labelBackgroundColor=none;fillColor=#F2CC8F;strokeColor=#E07A5F;fontColor=#393C56;" vertex="1" parent="1">
          <mxGeometry x="-9400" y="2143.2400000000002" width="120" height="40" as="geometry" />
        </mxCell>
        <mxCell id="el4SjzeAoepcmtUn4qeZ-136" value="&lt;span style=&quot;font-size: 20px;&quot;&gt;A[4] is Med.&lt;/span&gt;" style="rounded=1;whiteSpace=wrap;html=1;labelBackgroundColor=none;fillColor=#F2CC8F;strokeColor=#E07A5F;fontColor=#393C56;" vertex="1" parent="1">
          <mxGeometry x="-9110" y="2153.2400000000002" width="120" height="40" as="geometry" />
        </mxCell>
        <mxCell id="el4SjzeAoepcmtUn4qeZ-139" value="&lt;font style=&quot;font-size: 30px;&quot;&gt;&amp;gt;&lt;/font&gt;" style="edgeLabel;html=1;align=center;verticalAlign=middle;resizable=0;points=[];labelBackgroundColor=none;fontColor=#393C56;" vertex="1" connectable="0" parent="1">
          <mxGeometry x="-8260.004993207911" y="1786.4753428063646" as="geometry" />
        </mxCell>
        <mxCell id="el4SjzeAoepcmtUn4qeZ-140" value="&lt;span style=&quot;font-size: 20px;&quot;&gt;A[3]:A[5]&lt;/span&gt;" style="rounded=1;whiteSpace=wrap;html=1;labelBackgroundColor=none;fillColor=#F2CC8F;strokeColor=#E07A5F;fontColor=#393C56;" vertex="1" parent="1">
          <mxGeometry x="-8210" y="1819.98" width="120" height="40" as="geometry" />
        </mxCell>
        <mxCell id="el4SjzeAoepcmtUn4qeZ-141" value="" style="endArrow=classic;html=1;rounded=0;exitX=0.25;exitY=1;exitDx=0;exitDy=0;entryX=0.583;entryY=0;entryDx=0;entryDy=0;entryPerimeter=0;labelBackgroundColor=none;strokeColor=#E07A5F;fontColor=default;" edge="1" parent="1" target="el4SjzeAoepcmtUn4qeZ-145">
          <mxGeometry width="50" height="50" relative="1" as="geometry">
            <mxPoint x="-8190" y="1859.98" as="sourcePoint" />
            <mxPoint x="-8220" y="1919.98" as="targetPoint" />
            <Array as="points" />
          </mxGeometry>
        </mxCell>
        <mxCell id="el4SjzeAoepcmtUn4qeZ-142" value="&lt;font style=&quot;font-size: 31px;&quot;&gt;&amp;lt;&lt;/font&gt;" style="edgeLabel;html=1;align=center;verticalAlign=middle;resizable=0;points=[];labelBackgroundColor=none;fontColor=#393C56;" vertex="1" connectable="0" parent="el4SjzeAoepcmtUn4qeZ-141">
          <mxGeometry x="-0.1467" y="1" relative="1" as="geometry">
            <mxPoint as="offset" />
          </mxGeometry>
        </mxCell>
        <mxCell id="el4SjzeAoepcmtUn4qeZ-143" value="" style="endArrow=classic;html=1;rounded=0;exitX=0.75;exitY=1;exitDx=0;exitDy=0;entryX=0.417;entryY=0;entryDx=0;entryDy=0;entryPerimeter=0;labelBackgroundColor=none;strokeColor=#E07A5F;fontColor=default;" edge="1" parent="1" target="el4SjzeAoepcmtUn4qeZ-146">
          <mxGeometry width="50" height="50" relative="1" as="geometry">
            <mxPoint x="-8130" y="1859.98" as="sourcePoint" />
            <mxPoint x="-8110" y="1919.98" as="targetPoint" />
          </mxGeometry>
        </mxCell>
        <mxCell id="el4SjzeAoepcmtUn4qeZ-144" value="&lt;font style=&quot;font-size: 30px;&quot;&gt;&amp;gt;&lt;/font&gt;" style="edgeLabel;html=1;align=center;verticalAlign=middle;resizable=0;points=[];labelBackgroundColor=none;fontColor=#393C56;" vertex="1" connectable="0" parent="el4SjzeAoepcmtUn4qeZ-143">
          <mxGeometry x="-0.1129" relative="1" as="geometry">
            <mxPoint as="offset" />
          </mxGeometry>
        </mxCell>
        <mxCell id="el4SjzeAoepcmtUn4qeZ-145" value="&lt;span style=&quot;font-size: 20px;&quot;&gt;A[4]:A[5]&lt;/span&gt;" style="rounded=1;whiteSpace=wrap;html=1;labelBackgroundColor=none;fillColor=#F2CC8F;strokeColor=#E07A5F;fontColor=#393C56;" vertex="1" parent="1">
          <mxGeometry x="-8640" y="1964.9800000000002" width="120" height="40" as="geometry" />
        </mxCell>
        <mxCell id="el4SjzeAoepcmtUn4qeZ-146" value="&lt;span style=&quot;font-size: 20px;&quot;&gt;A[2]:A[3]&lt;/span&gt;" style="rounded=1;whiteSpace=wrap;html=1;labelBackgroundColor=none;fillColor=#F2CC8F;strokeColor=#E07A5F;fontColor=#393C56;" vertex="1" parent="1">
          <mxGeometry x="-7920" y="1939.9800000000002" width="120" height="40" as="geometry" />
        </mxCell>
        <mxCell id="el4SjzeAoepcmtUn4qeZ-147" value="" style="endArrow=classic;html=1;rounded=0;exitX=0.25;exitY=1;exitDx=0;exitDy=0;entryX=0.583;entryY=0;entryDx=0;entryDy=0;entryPerimeter=0;labelBackgroundColor=none;strokeColor=#E07A5F;fontColor=default;" edge="1" parent="1" target="el4SjzeAoepcmtUn4qeZ-151">
          <mxGeometry width="50" height="50" relative="1" as="geometry">
            <mxPoint x="-8620" y="2004.9800000000002" as="sourcePoint" />
            <mxPoint x="-8650" y="2064.9800000000005" as="targetPoint" />
            <Array as="points" />
          </mxGeometry>
        </mxCell>
        <mxCell id="el4SjzeAoepcmtUn4qeZ-148" value="&lt;font style=&quot;font-size: 31px;&quot;&gt;&amp;lt;&lt;/font&gt;" style="edgeLabel;html=1;align=center;verticalAlign=middle;resizable=0;points=[];labelBackgroundColor=none;fontColor=#393C56;" vertex="1" connectable="0" parent="el4SjzeAoepcmtUn4qeZ-147">
          <mxGeometry x="-0.1467" y="1" relative="1" as="geometry">
            <mxPoint as="offset" />
          </mxGeometry>
        </mxCell>
        <mxCell id="el4SjzeAoepcmtUn4qeZ-149" value="" style="endArrow=classic;html=1;rounded=0;exitX=0.75;exitY=1;exitDx=0;exitDy=0;entryX=0.417;entryY=0;entryDx=0;entryDy=0;entryPerimeter=0;labelBackgroundColor=none;strokeColor=#E07A5F;fontColor=default;" edge="1" parent="1" target="el4SjzeAoepcmtUn4qeZ-152">
          <mxGeometry width="50" height="50" relative="1" as="geometry">
            <mxPoint x="-8560" y="2004.9800000000002" as="sourcePoint" />
            <mxPoint x="-8540" y="2064.9800000000005" as="targetPoint" />
          </mxGeometry>
        </mxCell>
        <mxCell id="el4SjzeAoepcmtUn4qeZ-150" value="&lt;font style=&quot;font-size: 30px;&quot;&gt;&amp;gt;&lt;/font&gt;" style="edgeLabel;html=1;align=center;verticalAlign=middle;resizable=0;points=[];labelBackgroundColor=none;fontColor=#393C56;" vertex="1" connectable="0" parent="el4SjzeAoepcmtUn4qeZ-149">
          <mxGeometry x="-0.1129" relative="1" as="geometry">
            <mxPoint as="offset" />
          </mxGeometry>
        </mxCell>
        <mxCell id="el4SjzeAoepcmtUn4qeZ-151" value="&lt;span style=&quot;font-size: 20px;&quot;&gt;A[4] is Med.&lt;/span&gt;" style="rounded=1;whiteSpace=wrap;html=1;labelBackgroundColor=none;fillColor=#F2CC8F;strokeColor=#E07A5F;fontColor=#393C56;" vertex="1" parent="1">
          <mxGeometry x="-8910" y="2084.9800000000005" width="120" height="40" as="geometry" />
        </mxCell>
        <mxCell id="el4SjzeAoepcmtUn4qeZ-152" value="&lt;span style=&quot;font-size: 20px;&quot;&gt;A[5] is Med.&lt;/span&gt;" style="rounded=1;whiteSpace=wrap;html=1;labelBackgroundColor=none;fillColor=#F2CC8F;strokeColor=#E07A5F;fontColor=#393C56;" vertex="1" parent="1">
          <mxGeometry x="-8350" y="2084.9800000000005" width="120" height="40" as="geometry" />
        </mxCell>
        <mxCell id="el4SjzeAoepcmtUn4qeZ-153" value="" style="endArrow=classic;html=1;rounded=0;exitX=0.25;exitY=1;exitDx=0;exitDy=0;entryX=0.583;entryY=0;entryDx=0;entryDy=0;entryPerimeter=0;labelBackgroundColor=none;strokeColor=#E07A5F;fontColor=default;" edge="1" parent="1" target="el4SjzeAoepcmtUn4qeZ-157">
          <mxGeometry width="50" height="50" relative="1" as="geometry">
            <mxPoint x="-7870" y="1979.9800000000002" as="sourcePoint" />
            <mxPoint x="-7900" y="2039.9800000000002" as="targetPoint" />
            <Array as="points" />
          </mxGeometry>
        </mxCell>
        <mxCell id="el4SjzeAoepcmtUn4qeZ-154" value="&lt;font style=&quot;font-size: 31px;&quot;&gt;&amp;lt;&lt;/font&gt;" style="edgeLabel;html=1;align=center;verticalAlign=middle;resizable=0;points=[];labelBackgroundColor=none;fontColor=#393C56;" vertex="1" connectable="0" parent="el4SjzeAoepcmtUn4qeZ-153">
          <mxGeometry x="-0.1467" y="1" relative="1" as="geometry">
            <mxPoint as="offset" />
          </mxGeometry>
        </mxCell>
        <mxCell id="el4SjzeAoepcmtUn4qeZ-155" value="" style="endArrow=classic;html=1;rounded=0;exitX=0.75;exitY=1;exitDx=0;exitDy=0;entryX=0.417;entryY=0;entryDx=0;entryDy=0;entryPerimeter=0;labelBackgroundColor=none;strokeColor=#E07A5F;fontColor=default;" edge="1" parent="1" target="el4SjzeAoepcmtUn4qeZ-158">
          <mxGeometry width="50" height="50" relative="1" as="geometry">
            <mxPoint x="-7810" y="1979.9800000000002" as="sourcePoint" />
            <mxPoint x="-7790" y="2039.9800000000002" as="targetPoint" />
          </mxGeometry>
        </mxCell>
        <mxCell id="el4SjzeAoepcmtUn4qeZ-156" value="&lt;font style=&quot;font-size: 30px;&quot;&gt;&amp;gt;&lt;/font&gt;" style="edgeLabel;html=1;align=center;verticalAlign=middle;resizable=0;points=[];labelBackgroundColor=none;fontColor=#393C56;" vertex="1" connectable="0" parent="el4SjzeAoepcmtUn4qeZ-155">
          <mxGeometry x="-0.1129" relative="1" as="geometry">
            <mxPoint as="offset" />
          </mxGeometry>
        </mxCell>
        <mxCell id="el4SjzeAoepcmtUn4qeZ-157" value="&lt;span style=&quot;font-size: 20px;&quot;&gt;A[2] is Med.&lt;/span&gt;" style="rounded=1;whiteSpace=wrap;html=1;labelBackgroundColor=none;fillColor=#F2CC8F;strokeColor=#E07A5F;fontColor=#393C56;" vertex="1" parent="1">
          <mxGeometry x="-8060" y="2074.9800000000005" width="120" height="40" as="geometry" />
        </mxCell>
        <mxCell id="el4SjzeAoepcmtUn4qeZ-158" value="&lt;span style=&quot;font-size: 20px;&quot;&gt;A[3] is Med.&lt;/span&gt;" style="rounded=1;whiteSpace=wrap;html=1;labelBackgroundColor=none;fillColor=#F2CC8F;strokeColor=#E07A5F;fontColor=#393C56;" vertex="1" parent="1">
          <mxGeometry x="-7770" y="2084.9800000000005" width="120" height="40" as="geometry" />
        </mxCell>
        <mxCell id="el4SjzeAoepcmtUn4qeZ-203" value="&lt;span style=&quot;font-size: 20px;&quot;&gt;A[4]:A[5]&lt;/span&gt;" style="rounded=1;whiteSpace=wrap;html=1;labelBackgroundColor=none;fillColor=#F2CC8F;strokeColor=#E07A5F;fontColor=#393C56;" vertex="1" parent="1">
          <mxGeometry x="-5852" y="1713.49" width="120" height="40" as="geometry" />
        </mxCell>
        <mxCell id="el4SjzeAoepcmtUn4qeZ-204" value="" style="endArrow=classic;html=1;rounded=0;exitX=0.25;exitY=1;exitDx=0;exitDy=0;entryX=0.583;entryY=0;entryDx=0;entryDy=0;entryPerimeter=0;labelBackgroundColor=none;strokeColor=#E07A5F;fontColor=default;" edge="1" target="el4SjzeAoepcmtUn4qeZ-207" parent="1">
          <mxGeometry width="50" height="50" relative="1" as="geometry">
            <mxPoint x="-5822" y="1753.6000000000001" as="sourcePoint" />
            <mxPoint x="-5852" y="1813.6000000000001" as="targetPoint" />
            <Array as="points" />
          </mxGeometry>
        </mxCell>
        <mxCell id="el4SjzeAoepcmtUn4qeZ-205" value="&lt;font style=&quot;font-size: 31px;&quot;&gt;&amp;lt;&lt;/font&gt;" style="edgeLabel;html=1;align=center;verticalAlign=middle;resizable=0;points=[];labelBackgroundColor=none;fontColor=#393C56;" vertex="1" connectable="0" parent="el4SjzeAoepcmtUn4qeZ-204">
          <mxGeometry x="-0.1467" y="1" relative="1" as="geometry">
            <mxPoint as="offset" />
          </mxGeometry>
        </mxCell>
        <mxCell id="el4SjzeAoepcmtUn4qeZ-206" value="" style="endArrow=classic;html=1;rounded=0;exitX=0.75;exitY=1;exitDx=0;exitDy=0;entryX=0.417;entryY=0;entryDx=0;entryDy=0;entryPerimeter=0;labelBackgroundColor=none;strokeColor=#E07A5F;fontColor=default;" edge="1" parent="1">
          <mxGeometry width="50" height="50" relative="1" as="geometry">
            <mxPoint x="-5762" y="1753.6000000000001" as="sourcePoint" />
            <mxPoint x="-5501.96" y="1833.6000000000001" as="targetPoint" />
          </mxGeometry>
        </mxCell>
        <mxCell id="el4SjzeAoepcmtUn4qeZ-207" value="&lt;span style=&quot;font-size: 20px;&quot;&gt;A[1]:A[4]&lt;/span&gt;" style="rounded=1;whiteSpace=wrap;html=1;labelBackgroundColor=none;fillColor=#F2CC8F;strokeColor=#E07A5F;fontColor=#393C56;" vertex="1" parent="1">
          <mxGeometry x="-6902" y="1901.46" width="120" height="40" as="geometry" />
        </mxCell>
        <mxCell id="el4SjzeAoepcmtUn4qeZ-208" value="" style="endArrow=classic;html=1;rounded=0;exitX=0.25;exitY=1;exitDx=0;exitDy=0;entryX=0.583;entryY=0;entryDx=0;entryDy=0;entryPerimeter=0;labelBackgroundColor=none;strokeColor=#E07A5F;fontColor=default;" edge="1" target="el4SjzeAoepcmtUn4qeZ-212" parent="1">
          <mxGeometry width="50" height="50" relative="1" as="geometry">
            <mxPoint x="-6882" y="1941.46" as="sourcePoint" />
            <mxPoint x="-6912" y="2001.46" as="targetPoint" />
            <Array as="points" />
          </mxGeometry>
        </mxCell>
        <mxCell id="el4SjzeAoepcmtUn4qeZ-209" value="&lt;font style=&quot;font-size: 31px;&quot;&gt;&amp;lt;&lt;/font&gt;" style="edgeLabel;html=1;align=center;verticalAlign=middle;resizable=0;points=[];labelBackgroundColor=none;fontColor=#393C56;" vertex="1" connectable="0" parent="el4SjzeAoepcmtUn4qeZ-208">
          <mxGeometry x="-0.1467" y="1" relative="1" as="geometry">
            <mxPoint as="offset" />
          </mxGeometry>
        </mxCell>
        <mxCell id="el4SjzeAoepcmtUn4qeZ-210" value="" style="endArrow=classic;html=1;rounded=0;exitX=0.75;exitY=1;exitDx=0;exitDy=0;entryX=0.417;entryY=0;entryDx=0;entryDy=0;entryPerimeter=0;labelBackgroundColor=none;strokeColor=#E07A5F;fontColor=default;" edge="1" target="el4SjzeAoepcmtUn4qeZ-213" parent="1">
          <mxGeometry width="50" height="50" relative="1" as="geometry">
            <mxPoint x="-6822" y="1941.46" as="sourcePoint" />
            <mxPoint x="-6802" y="2001.46" as="targetPoint" />
          </mxGeometry>
        </mxCell>
        <mxCell id="el4SjzeAoepcmtUn4qeZ-211" value="&lt;font style=&quot;font-size: 30px;&quot;&gt;&amp;gt;&lt;/font&gt;" style="edgeLabel;html=1;align=center;verticalAlign=middle;resizable=0;points=[];labelBackgroundColor=none;fontColor=#393C56;" vertex="1" connectable="0" parent="el4SjzeAoepcmtUn4qeZ-210">
          <mxGeometry x="-0.1129" relative="1" as="geometry">
            <mxPoint as="offset" />
          </mxGeometry>
        </mxCell>
        <mxCell id="el4SjzeAoepcmtUn4qeZ-212" value="&lt;span style=&quot;font-size: 20px;&quot;&gt;A[2]:A[4]&lt;/span&gt;" style="rounded=1;whiteSpace=wrap;html=1;labelBackgroundColor=none;fillColor=#F2CC8F;strokeColor=#E07A5F;fontColor=#393C56;" vertex="1" parent="1">
          <mxGeometry x="-7332" y="2046.4600000000003" width="120" height="40" as="geometry" />
        </mxCell>
        <mxCell id="el4SjzeAoepcmtUn4qeZ-213" value="&lt;span style=&quot;font-size: 20px;&quot;&gt;A[1]:A[5]&lt;/span&gt;" style="rounded=1;whiteSpace=wrap;html=1;labelBackgroundColor=none;fillColor=#F2CC8F;strokeColor=#E07A5F;fontColor=#393C56;" vertex="1" parent="1">
          <mxGeometry x="-6612" y="2021.4600000000003" width="120" height="40" as="geometry" />
        </mxCell>
        <mxCell id="el4SjzeAoepcmtUn4qeZ-214" value="" style="endArrow=classic;html=1;rounded=0;exitX=0.25;exitY=1;exitDx=0;exitDy=0;entryX=0.583;entryY=0;entryDx=0;entryDy=0;entryPerimeter=0;labelBackgroundColor=none;strokeColor=#E07A5F;fontColor=default;" edge="1" target="el4SjzeAoepcmtUn4qeZ-218" parent="1">
          <mxGeometry width="50" height="50" relative="1" as="geometry">
            <mxPoint x="-7312" y="2086.46" as="sourcePoint" />
            <mxPoint x="-7342" y="2146.46" as="targetPoint" />
            <Array as="points" />
          </mxGeometry>
        </mxCell>
        <mxCell id="el4SjzeAoepcmtUn4qeZ-215" value="&lt;font style=&quot;font-size: 31px;&quot;&gt;&amp;lt;&lt;/font&gt;" style="edgeLabel;html=1;align=center;verticalAlign=middle;resizable=0;points=[];labelBackgroundColor=none;fontColor=#393C56;" vertex="1" connectable="0" parent="el4SjzeAoepcmtUn4qeZ-214">
          <mxGeometry x="-0.1467" y="1" relative="1" as="geometry">
            <mxPoint as="offset" />
          </mxGeometry>
        </mxCell>
        <mxCell id="el4SjzeAoepcmtUn4qeZ-216" value="" style="endArrow=classic;html=1;rounded=0;exitX=0.75;exitY=1;exitDx=0;exitDy=0;entryX=0.417;entryY=0;entryDx=0;entryDy=0;entryPerimeter=0;labelBackgroundColor=none;strokeColor=#E07A5F;fontColor=default;" edge="1" target="el4SjzeAoepcmtUn4qeZ-219" parent="1">
          <mxGeometry width="50" height="50" relative="1" as="geometry">
            <mxPoint x="-7252" y="2086.46" as="sourcePoint" />
            <mxPoint x="-7232" y="2146.46" as="targetPoint" />
          </mxGeometry>
        </mxCell>
        <mxCell id="el4SjzeAoepcmtUn4qeZ-217" value="&lt;font style=&quot;font-size: 30px;&quot;&gt;&amp;gt;&lt;/font&gt;" style="edgeLabel;html=1;align=center;verticalAlign=middle;resizable=0;points=[];labelBackgroundColor=none;fontColor=#393C56;" vertex="1" connectable="0" parent="el4SjzeAoepcmtUn4qeZ-216">
          <mxGeometry x="-0.1129" relative="1" as="geometry">
            <mxPoint as="offset" />
          </mxGeometry>
        </mxCell>
        <mxCell id="el4SjzeAoepcmtUn4qeZ-218" value="&lt;span style=&quot;font-size: 20px;&quot;&gt;A[2] is Med.&lt;/span&gt;" style="rounded=1;whiteSpace=wrap;html=1;labelBackgroundColor=none;fillColor=#F2CC8F;strokeColor=#E07A5F;fontColor=#393C56;" vertex="1" parent="1">
          <mxGeometry x="-7602" y="2166.46" width="120" height="40" as="geometry" />
        </mxCell>
        <mxCell id="el4SjzeAoepcmtUn4qeZ-219" value="&lt;span style=&quot;font-size: 20px;&quot;&gt;A[4] is Med.&lt;/span&gt;" style="rounded=1;whiteSpace=wrap;html=1;labelBackgroundColor=none;fillColor=#F2CC8F;strokeColor=#E07A5F;fontColor=#393C56;" vertex="1" parent="1">
          <mxGeometry x="-7042" y="2166.46" width="120" height="40" as="geometry" />
        </mxCell>
        <mxCell id="el4SjzeAoepcmtUn4qeZ-220" value="" style="endArrow=classic;html=1;rounded=0;exitX=0.25;exitY=1;exitDx=0;exitDy=0;entryX=0.583;entryY=0;entryDx=0;entryDy=0;entryPerimeter=0;labelBackgroundColor=none;strokeColor=#E07A5F;fontColor=default;" edge="1" target="el4SjzeAoepcmtUn4qeZ-224" parent="1">
          <mxGeometry width="50" height="50" relative="1" as="geometry">
            <mxPoint x="-6562" y="2061.46" as="sourcePoint" />
            <mxPoint x="-6592" y="2121.46" as="targetPoint" />
            <Array as="points" />
          </mxGeometry>
        </mxCell>
        <mxCell id="el4SjzeAoepcmtUn4qeZ-221" value="&lt;font style=&quot;font-size: 31px;&quot;&gt;&amp;lt;&lt;/font&gt;" style="edgeLabel;html=1;align=center;verticalAlign=middle;resizable=0;points=[];labelBackgroundColor=none;fontColor=#393C56;" vertex="1" connectable="0" parent="el4SjzeAoepcmtUn4qeZ-220">
          <mxGeometry x="-0.1467" y="1" relative="1" as="geometry">
            <mxPoint as="offset" />
          </mxGeometry>
        </mxCell>
        <mxCell id="el4SjzeAoepcmtUn4qeZ-222" value="" style="endArrow=classic;html=1;rounded=0;exitX=0.75;exitY=1;exitDx=0;exitDy=0;entryX=0.417;entryY=0;entryDx=0;entryDy=0;entryPerimeter=0;labelBackgroundColor=none;strokeColor=#E07A5F;fontColor=default;" edge="1" target="el4SjzeAoepcmtUn4qeZ-225" parent="1">
          <mxGeometry width="50" height="50" relative="1" as="geometry">
            <mxPoint x="-6502" y="2061.46" as="sourcePoint" />
            <mxPoint x="-6482" y="2121.46" as="targetPoint" />
          </mxGeometry>
        </mxCell>
        <mxCell id="el4SjzeAoepcmtUn4qeZ-223" value="&lt;font style=&quot;font-size: 30px;&quot;&gt;&amp;gt;&lt;/font&gt;" style="edgeLabel;html=1;align=center;verticalAlign=middle;resizable=0;points=[];labelBackgroundColor=none;fontColor=#393C56;" vertex="1" connectable="0" parent="el4SjzeAoepcmtUn4qeZ-222">
          <mxGeometry x="-0.1129" relative="1" as="geometry">
            <mxPoint as="offset" />
          </mxGeometry>
        </mxCell>
        <mxCell id="el4SjzeAoepcmtUn4qeZ-224" value="&lt;span style=&quot;font-size: 20px;&quot;&gt;A[1] is Med.&lt;/span&gt;" style="rounded=1;whiteSpace=wrap;html=1;labelBackgroundColor=none;fillColor=#F2CC8F;strokeColor=#E07A5F;fontColor=#393C56;" vertex="1" parent="1">
          <mxGeometry x="-6752" y="2156.46" width="120" height="40" as="geometry" />
        </mxCell>
        <mxCell id="el4SjzeAoepcmtUn4qeZ-225" value="&lt;span style=&quot;font-size: 20px;&quot;&gt;A[5] is Med.&lt;/span&gt;" style="rounded=1;whiteSpace=wrap;html=1;labelBackgroundColor=none;fillColor=#F2CC8F;strokeColor=#E07A5F;fontColor=#393C56;" vertex="1" parent="1">
          <mxGeometry x="-6462" y="2166.46" width="120" height="40" as="geometry" />
        </mxCell>
        <mxCell id="el4SjzeAoepcmtUn4qeZ-226" value="&lt;font style=&quot;font-size: 30px;&quot;&gt;&amp;gt;&lt;/font&gt;" style="edgeLabel;html=1;align=center;verticalAlign=middle;resizable=0;points=[];labelBackgroundColor=none;fontColor=#393C56;" vertex="1" connectable="0" parent="1">
          <mxGeometry x="-5612.004993207911" y="1799.6953428063646" as="geometry" />
        </mxCell>
        <mxCell id="el4SjzeAoepcmtUn4qeZ-227" value="&lt;span style=&quot;font-size: 20px;&quot;&gt;A[1]:A[5]&lt;/span&gt;" style="rounded=1;whiteSpace=wrap;html=1;labelBackgroundColor=none;fillColor=#F2CC8F;strokeColor=#E07A5F;fontColor=#393C56;" vertex="1" parent="1">
          <mxGeometry x="-5562" y="1833.2" width="120" height="40" as="geometry" />
        </mxCell>
        <mxCell id="el4SjzeAoepcmtUn4qeZ-228" value="" style="endArrow=classic;html=1;rounded=0;exitX=0.25;exitY=1;exitDx=0;exitDy=0;entryX=0.583;entryY=0;entryDx=0;entryDy=0;entryPerimeter=0;labelBackgroundColor=none;strokeColor=#E07A5F;fontColor=default;" edge="1" target="el4SjzeAoepcmtUn4qeZ-232" parent="1">
          <mxGeometry width="50" height="50" relative="1" as="geometry">
            <mxPoint x="-5542" y="1873.2" as="sourcePoint" />
            <mxPoint x="-5572" y="1933.2" as="targetPoint" />
            <Array as="points" />
          </mxGeometry>
        </mxCell>
        <mxCell id="el4SjzeAoepcmtUn4qeZ-229" value="&lt;font style=&quot;font-size: 31px;&quot;&gt;&amp;lt;&lt;/font&gt;" style="edgeLabel;html=1;align=center;verticalAlign=middle;resizable=0;points=[];labelBackgroundColor=none;fontColor=#393C56;" vertex="1" connectable="0" parent="el4SjzeAoepcmtUn4qeZ-228">
          <mxGeometry x="-0.1467" y="1" relative="1" as="geometry">
            <mxPoint as="offset" />
          </mxGeometry>
        </mxCell>
        <mxCell id="el4SjzeAoepcmtUn4qeZ-230" value="" style="endArrow=classic;html=1;rounded=0;exitX=0.75;exitY=1;exitDx=0;exitDy=0;entryX=0.417;entryY=0;entryDx=0;entryDy=0;entryPerimeter=0;labelBackgroundColor=none;strokeColor=#E07A5F;fontColor=default;" edge="1" target="el4SjzeAoepcmtUn4qeZ-233" parent="1">
          <mxGeometry width="50" height="50" relative="1" as="geometry">
            <mxPoint x="-5482" y="1873.2" as="sourcePoint" />
            <mxPoint x="-5462" y="1933.2" as="targetPoint" />
          </mxGeometry>
        </mxCell>
        <mxCell id="el4SjzeAoepcmtUn4qeZ-231" value="&lt;font style=&quot;font-size: 30px;&quot;&gt;&amp;gt;&lt;/font&gt;" style="edgeLabel;html=1;align=center;verticalAlign=middle;resizable=0;points=[];labelBackgroundColor=none;fontColor=#393C56;" vertex="1" connectable="0" parent="el4SjzeAoepcmtUn4qeZ-230">
          <mxGeometry x="-0.1129" relative="1" as="geometry">
            <mxPoint as="offset" />
          </mxGeometry>
        </mxCell>
        <mxCell id="el4SjzeAoepcmtUn4qeZ-232" value="&lt;span style=&quot;font-size: 20px;&quot;&gt;A[2]:A[5]&lt;/span&gt;" style="rounded=1;whiteSpace=wrap;html=1;labelBackgroundColor=none;fillColor=#F2CC8F;strokeColor=#E07A5F;fontColor=#393C56;" vertex="1" parent="1">
          <mxGeometry x="-5992" y="1978.2000000000003" width="120" height="40" as="geometry" />
        </mxCell>
        <mxCell id="el4SjzeAoepcmtUn4qeZ-233" value="&lt;span style=&quot;font-size: 20px;&quot;&gt;A[1]:A[4]&lt;/span&gt;" style="rounded=1;whiteSpace=wrap;html=1;labelBackgroundColor=none;fillColor=#F2CC8F;strokeColor=#E07A5F;fontColor=#393C56;" vertex="1" parent="1">
          <mxGeometry x="-5272" y="1953.2000000000003" width="120" height="40" as="geometry" />
        </mxCell>
        <mxCell id="el4SjzeAoepcmtUn4qeZ-234" value="" style="endArrow=classic;html=1;rounded=0;exitX=0.25;exitY=1;exitDx=0;exitDy=0;entryX=0.583;entryY=0;entryDx=0;entryDy=0;entryPerimeter=0;labelBackgroundColor=none;strokeColor=#E07A5F;fontColor=default;" edge="1" target="el4SjzeAoepcmtUn4qeZ-238" parent="1">
          <mxGeometry width="50" height="50" relative="1" as="geometry">
            <mxPoint x="-5972" y="2018.2000000000003" as="sourcePoint" />
            <mxPoint x="-6002" y="2078.2000000000003" as="targetPoint" />
            <Array as="points" />
          </mxGeometry>
        </mxCell>
        <mxCell id="el4SjzeAoepcmtUn4qeZ-235" value="&lt;font style=&quot;font-size: 31px;&quot;&gt;&amp;lt;&lt;/font&gt;" style="edgeLabel;html=1;align=center;verticalAlign=middle;resizable=0;points=[];labelBackgroundColor=none;fontColor=#393C56;" vertex="1" connectable="0" parent="el4SjzeAoepcmtUn4qeZ-234">
          <mxGeometry x="-0.1467" y="1" relative="1" as="geometry">
            <mxPoint as="offset" />
          </mxGeometry>
        </mxCell>
        <mxCell id="el4SjzeAoepcmtUn4qeZ-236" value="" style="endArrow=classic;html=1;rounded=0;exitX=0.75;exitY=1;exitDx=0;exitDy=0;entryX=0.417;entryY=0;entryDx=0;entryDy=0;entryPerimeter=0;labelBackgroundColor=none;strokeColor=#E07A5F;fontColor=default;" edge="1" target="el4SjzeAoepcmtUn4qeZ-239" parent="1">
          <mxGeometry width="50" height="50" relative="1" as="geometry">
            <mxPoint x="-5912" y="2018.2000000000003" as="sourcePoint" />
            <mxPoint x="-5892" y="2078.2000000000003" as="targetPoint" />
          </mxGeometry>
        </mxCell>
        <mxCell id="el4SjzeAoepcmtUn4qeZ-237" value="&lt;font style=&quot;font-size: 30px;&quot;&gt;&amp;gt;&lt;/font&gt;" style="edgeLabel;html=1;align=center;verticalAlign=middle;resizable=0;points=[];labelBackgroundColor=none;fontColor=#393C56;" vertex="1" connectable="0" parent="el4SjzeAoepcmtUn4qeZ-236">
          <mxGeometry x="-0.1129" relative="1" as="geometry">
            <mxPoint as="offset" />
          </mxGeometry>
        </mxCell>
        <mxCell id="el4SjzeAoepcmtUn4qeZ-238" value="&lt;span style=&quot;font-size: 20px;&quot;&gt;A[2] is Med.&lt;/span&gt;" style="rounded=1;whiteSpace=wrap;html=1;labelBackgroundColor=none;fillColor=#F2CC8F;strokeColor=#E07A5F;fontColor=#393C56;" vertex="1" parent="1">
          <mxGeometry x="-6262" y="2098.2000000000003" width="120" height="40" as="geometry" />
        </mxCell>
        <mxCell id="el4SjzeAoepcmtUn4qeZ-239" value="&lt;span style=&quot;font-size: 20px;&quot;&gt;A[5] is Med.&lt;/span&gt;" style="rounded=1;whiteSpace=wrap;html=1;labelBackgroundColor=none;fillColor=#F2CC8F;strokeColor=#E07A5F;fontColor=#393C56;" vertex="1" parent="1">
          <mxGeometry x="-5702" y="2098.2000000000003" width="120" height="40" as="geometry" />
        </mxCell>
        <mxCell id="el4SjzeAoepcmtUn4qeZ-240" value="" style="endArrow=classic;html=1;rounded=0;exitX=0.25;exitY=1;exitDx=0;exitDy=0;entryX=0.583;entryY=0;entryDx=0;entryDy=0;entryPerimeter=0;labelBackgroundColor=none;strokeColor=#E07A5F;fontColor=default;" edge="1" target="el4SjzeAoepcmtUn4qeZ-244" parent="1">
          <mxGeometry width="50" height="50" relative="1" as="geometry">
            <mxPoint x="-5222" y="1993.2000000000003" as="sourcePoint" />
            <mxPoint x="-5252" y="2053.2000000000003" as="targetPoint" />
            <Array as="points" />
          </mxGeometry>
        </mxCell>
        <mxCell id="el4SjzeAoepcmtUn4qeZ-241" value="&lt;font style=&quot;font-size: 31px;&quot;&gt;&amp;lt;&lt;/font&gt;" style="edgeLabel;html=1;align=center;verticalAlign=middle;resizable=0;points=[];labelBackgroundColor=none;fontColor=#393C56;" vertex="1" connectable="0" parent="el4SjzeAoepcmtUn4qeZ-240">
          <mxGeometry x="-0.1467" y="1" relative="1" as="geometry">
            <mxPoint as="offset" />
          </mxGeometry>
        </mxCell>
        <mxCell id="el4SjzeAoepcmtUn4qeZ-242" value="" style="endArrow=classic;html=1;rounded=0;exitX=0.75;exitY=1;exitDx=0;exitDy=0;entryX=0.417;entryY=0;entryDx=0;entryDy=0;entryPerimeter=0;labelBackgroundColor=none;strokeColor=#E07A5F;fontColor=default;" edge="1" target="el4SjzeAoepcmtUn4qeZ-245" parent="1">
          <mxGeometry width="50" height="50" relative="1" as="geometry">
            <mxPoint x="-5162" y="1993.2000000000003" as="sourcePoint" />
            <mxPoint x="-5142" y="2053.2000000000003" as="targetPoint" />
          </mxGeometry>
        </mxCell>
        <mxCell id="el4SjzeAoepcmtUn4qeZ-243" value="&lt;font style=&quot;font-size: 30px;&quot;&gt;&amp;gt;&lt;/font&gt;" style="edgeLabel;html=1;align=center;verticalAlign=middle;resizable=0;points=[];labelBackgroundColor=none;fontColor=#393C56;" vertex="1" connectable="0" parent="el4SjzeAoepcmtUn4qeZ-242">
          <mxGeometry x="-0.1129" relative="1" as="geometry">
            <mxPoint as="offset" />
          </mxGeometry>
        </mxCell>
        <mxCell id="el4SjzeAoepcmtUn4qeZ-244" value="&lt;span style=&quot;font-size: 20px;&quot;&gt;A[1] is Med.&lt;/span&gt;" style="rounded=1;whiteSpace=wrap;html=1;labelBackgroundColor=none;fillColor=#F2CC8F;strokeColor=#E07A5F;fontColor=#393C56;" vertex="1" parent="1">
          <mxGeometry x="-5412" y="2088.2000000000003" width="120" height="40" as="geometry" />
        </mxCell>
        <mxCell id="el4SjzeAoepcmtUn4qeZ-245" value="&lt;span style=&quot;font-size: 20px;&quot;&gt;A[4] is Med.&lt;/span&gt;" style="rounded=1;whiteSpace=wrap;html=1;labelBackgroundColor=none;fillColor=#F2CC8F;strokeColor=#E07A5F;fontColor=#393C56;" vertex="1" parent="1">
          <mxGeometry x="-5122" y="2098.2000000000003" width="120" height="40" as="geometry" />
        </mxCell>
        <mxCell id="el4SjzeAoepcmtUn4qeZ-248" value="&lt;span style=&quot;font-size: 20px;&quot;&gt;A[1]:A[4]&lt;/span&gt;" style="rounded=1;whiteSpace=wrap;html=1;labelBackgroundColor=none;fillColor=#F2CC8F;strokeColor=#E07A5F;fontColor=#393C56;" vertex="1" parent="1">
          <mxGeometry x="-1482.000000000001" y="1355.2718237562583" width="120" height="40" as="geometry" />
        </mxCell>
        <mxCell id="el4SjzeAoepcmtUn4qeZ-249" value="" style="endArrow=classic;html=1;rounded=0;exitX=0.25;exitY=1;exitDx=0;exitDy=0;entryX=0.583;entryY=0;entryDx=0;entryDy=0;entryPerimeter=0;labelBackgroundColor=none;strokeColor=#E07A5F;fontColor=default;" edge="1" source="el4SjzeAoepcmtUn4qeZ-248" target="el4SjzeAoepcmtUn4qeZ-253" parent="1">
          <mxGeometry width="50" height="50" relative="1" as="geometry">
            <mxPoint x="7.9999999999990905" y="1340.1618237562584" as="sourcePoint" />
            <mxPoint x="-22.00000000000091" y="1400.1618237562584" as="targetPoint" />
            <Array as="points" />
          </mxGeometry>
        </mxCell>
        <mxCell id="el4SjzeAoepcmtUn4qeZ-250" value="&lt;font style=&quot;font-size: 31px;&quot;&gt;&amp;lt;&lt;/font&gt;" style="edgeLabel;html=1;align=center;verticalAlign=middle;resizable=0;points=[];labelBackgroundColor=none;fontColor=#393C56;" vertex="1" connectable="0" parent="el4SjzeAoepcmtUn4qeZ-249">
          <mxGeometry x="-0.1467" y="1" relative="1" as="geometry">
            <mxPoint as="offset" />
          </mxGeometry>
        </mxCell>
        <mxCell id="el4SjzeAoepcmtUn4qeZ-251" value="" style="endArrow=classic;html=1;rounded=0;exitX=1;exitY=1;exitDx=0;exitDy=0;entryX=0.5;entryY=0;entryDx=0;entryDy=0;labelBackgroundColor=none;strokeColor=#E07A5F;fontColor=default;" edge="1" source="el4SjzeAoepcmtUn4qeZ-248" target="el4SjzeAoepcmtUn4qeZ-296" parent="1">
          <mxGeometry width="50" height="50" relative="1" as="geometry">
            <mxPoint x="67.99999999999909" y="1340.1618237562584" as="sourcePoint" />
            <mxPoint x="328.03999999999996" y="1420.1618237562582" as="targetPoint" />
          </mxGeometry>
        </mxCell>
        <mxCell id="el4SjzeAoepcmtUn4qeZ-252" value="&lt;font style=&quot;font-size: 30px;&quot;&gt;&amp;gt;&lt;/font&gt;" style="edgeLabel;html=1;align=center;verticalAlign=middle;resizable=0;points=[];labelBackgroundColor=none;fontColor=#393C56;" vertex="1" connectable="0" parent="el4SjzeAoepcmtUn4qeZ-251">
          <mxGeometry x="-0.1129" relative="1" as="geometry">
            <mxPoint as="offset" />
          </mxGeometry>
        </mxCell>
        <mxCell id="el4SjzeAoepcmtUn4qeZ-253" value="&lt;span style=&quot;font-size: 20px;&quot;&gt;A[2]:A[5]&lt;/span&gt;" style="rounded=1;whiteSpace=wrap;html=1;labelBackgroundColor=none;fillColor=#F2CC8F;strokeColor=#E07A5F;fontColor=#393C56;" vertex="1" parent="1">
          <mxGeometry x="-3160.000000000001" y="1690.2718237562585" width="120" height="40" as="geometry" />
        </mxCell>
        <mxCell id="el4SjzeAoepcmtUn4qeZ-254" value="" style="endArrow=classic;html=1;rounded=0;exitX=0.25;exitY=1;exitDx=0;exitDy=0;entryX=0.583;entryY=0;entryDx=0;entryDy=0;entryPerimeter=0;labelBackgroundColor=none;strokeColor=#E07A5F;fontColor=default;" edge="1" target="el4SjzeAoepcmtUn4qeZ-257" parent="1">
          <mxGeometry width="50" height="50" relative="1" as="geometry">
            <mxPoint x="-3130.000000000001" y="1730.3818237562587" as="sourcePoint" />
            <mxPoint x="-3160.000000000001" y="1790.3818237562587" as="targetPoint" />
            <Array as="points" />
          </mxGeometry>
        </mxCell>
        <mxCell id="el4SjzeAoepcmtUn4qeZ-255" value="&lt;font style=&quot;font-size: 31px;&quot;&gt;&amp;lt;&lt;/font&gt;" style="edgeLabel;html=1;align=center;verticalAlign=middle;resizable=0;points=[];labelBackgroundColor=none;fontColor=#393C56;" vertex="1" connectable="0" parent="el4SjzeAoepcmtUn4qeZ-254">
          <mxGeometry x="-0.1467" y="1" relative="1" as="geometry">
            <mxPoint as="offset" />
          </mxGeometry>
        </mxCell>
        <mxCell id="el4SjzeAoepcmtUn4qeZ-256" value="" style="endArrow=classic;html=1;rounded=0;exitX=0.75;exitY=1;exitDx=0;exitDy=0;entryX=0.417;entryY=0;entryDx=0;entryDy=0;entryPerimeter=0;labelBackgroundColor=none;strokeColor=#E07A5F;fontColor=default;" edge="1" parent="1">
          <mxGeometry width="50" height="50" relative="1" as="geometry">
            <mxPoint x="-3070.000000000001" y="1730.3818237562587" as="sourcePoint" />
            <mxPoint x="-2809.960000000001" y="1810.3818237562587" as="targetPoint" />
          </mxGeometry>
        </mxCell>
        <mxCell id="el4SjzeAoepcmtUn4qeZ-257" value="&lt;span style=&quot;font-size: 20px;&quot;&gt;A[2]:A[4]&lt;/span&gt;" style="rounded=1;whiteSpace=wrap;html=1;labelBackgroundColor=none;fillColor=#F2CC8F;strokeColor=#E07A5F;fontColor=#393C56;" vertex="1" parent="1">
          <mxGeometry x="-4210.000000000001" y="1878.2418237562586" width="120" height="40" as="geometry" />
        </mxCell>
        <mxCell id="el4SjzeAoepcmtUn4qeZ-258" value="" style="endArrow=classic;html=1;rounded=0;exitX=0.25;exitY=1;exitDx=0;exitDy=0;entryX=0.583;entryY=0;entryDx=0;entryDy=0;entryPerimeter=0;labelBackgroundColor=none;strokeColor=#E07A5F;fontColor=default;" edge="1" target="el4SjzeAoepcmtUn4qeZ-262" parent="1">
          <mxGeometry width="50" height="50" relative="1" as="geometry">
            <mxPoint x="-4190.000000000001" y="1918.2418237562586" as="sourcePoint" />
            <mxPoint x="-4220.000000000001" y="1978.2418237562586" as="targetPoint" />
            <Array as="points" />
          </mxGeometry>
        </mxCell>
        <mxCell id="el4SjzeAoepcmtUn4qeZ-259" value="&lt;font style=&quot;font-size: 31px;&quot;&gt;&amp;lt;&lt;/font&gt;" style="edgeLabel;html=1;align=center;verticalAlign=middle;resizable=0;points=[];labelBackgroundColor=none;fontColor=#393C56;" vertex="1" connectable="0" parent="el4SjzeAoepcmtUn4qeZ-258">
          <mxGeometry x="-0.1467" y="1" relative="1" as="geometry">
            <mxPoint as="offset" />
          </mxGeometry>
        </mxCell>
        <mxCell id="el4SjzeAoepcmtUn4qeZ-260" value="" style="endArrow=classic;html=1;rounded=0;exitX=0.75;exitY=1;exitDx=0;exitDy=0;entryX=0.417;entryY=0;entryDx=0;entryDy=0;entryPerimeter=0;labelBackgroundColor=none;strokeColor=#E07A5F;fontColor=default;" edge="1" target="el4SjzeAoepcmtUn4qeZ-263" parent="1">
          <mxGeometry width="50" height="50" relative="1" as="geometry">
            <mxPoint x="-4130.000000000001" y="1918.2418237562586" as="sourcePoint" />
            <mxPoint x="-4110.000000000001" y="1978.2418237562586" as="targetPoint" />
          </mxGeometry>
        </mxCell>
        <mxCell id="el4SjzeAoepcmtUn4qeZ-261" value="&lt;font style=&quot;font-size: 30px;&quot;&gt;&amp;gt;&lt;/font&gt;" style="edgeLabel;html=1;align=center;verticalAlign=middle;resizable=0;points=[];labelBackgroundColor=none;fontColor=#393C56;" vertex="1" connectable="0" parent="el4SjzeAoepcmtUn4qeZ-260">
          <mxGeometry x="-0.1129" relative="1" as="geometry">
            <mxPoint as="offset" />
          </mxGeometry>
        </mxCell>
        <mxCell id="el4SjzeAoepcmtUn4qeZ-262" value="&lt;span style=&quot;font-size: 20px;&quot;&gt;A[4]:A[5]&lt;/span&gt;" style="rounded=1;whiteSpace=wrap;html=1;labelBackgroundColor=none;fillColor=#F2CC8F;strokeColor=#E07A5F;fontColor=#393C56;" vertex="1" parent="1">
          <mxGeometry x="-4640.000000000001" y="2023.2418237562588" width="120" height="40" as="geometry" />
        </mxCell>
        <mxCell id="el4SjzeAoepcmtUn4qeZ-263" value="&lt;span style=&quot;font-size: 20px;&quot;&gt;A[2]:A[3]&lt;/span&gt;" style="rounded=1;whiteSpace=wrap;html=1;labelBackgroundColor=none;fillColor=#F2CC8F;strokeColor=#E07A5F;fontColor=#393C56;" vertex="1" parent="1">
          <mxGeometry x="-3920.000000000001" y="1998.2418237562588" width="120" height="40" as="geometry" />
        </mxCell>
        <mxCell id="el4SjzeAoepcmtUn4qeZ-264" value="" style="endArrow=classic;html=1;rounded=0;exitX=0.25;exitY=1;exitDx=0;exitDy=0;entryX=0.583;entryY=0;entryDx=0;entryDy=0;entryPerimeter=0;labelBackgroundColor=none;strokeColor=#E07A5F;fontColor=default;" edge="1" target="el4SjzeAoepcmtUn4qeZ-268" parent="1">
          <mxGeometry width="50" height="50" relative="1" as="geometry">
            <mxPoint x="-4620.000000000001" y="2063.241823756259" as="sourcePoint" />
            <mxPoint x="-4650.000000000001" y="2123.241823756259" as="targetPoint" />
            <Array as="points" />
          </mxGeometry>
        </mxCell>
        <mxCell id="el4SjzeAoepcmtUn4qeZ-265" value="&lt;font style=&quot;font-size: 31px;&quot;&gt;&amp;lt;&lt;/font&gt;" style="edgeLabel;html=1;align=center;verticalAlign=middle;resizable=0;points=[];labelBackgroundColor=none;fontColor=#393C56;" vertex="1" connectable="0" parent="el4SjzeAoepcmtUn4qeZ-264">
          <mxGeometry x="-0.1467" y="1" relative="1" as="geometry">
            <mxPoint as="offset" />
          </mxGeometry>
        </mxCell>
        <mxCell id="el4SjzeAoepcmtUn4qeZ-266" value="" style="endArrow=classic;html=1;rounded=0;exitX=0.75;exitY=1;exitDx=0;exitDy=0;entryX=0.417;entryY=0;entryDx=0;entryDy=0;entryPerimeter=0;labelBackgroundColor=none;strokeColor=#E07A5F;fontColor=default;" edge="1" target="el4SjzeAoepcmtUn4qeZ-269" parent="1">
          <mxGeometry width="50" height="50" relative="1" as="geometry">
            <mxPoint x="-4560.000000000001" y="2063.241823756259" as="sourcePoint" />
            <mxPoint x="-4540.000000000001" y="2123.241823756259" as="targetPoint" />
          </mxGeometry>
        </mxCell>
        <mxCell id="el4SjzeAoepcmtUn4qeZ-267" value="&lt;font style=&quot;font-size: 30px;&quot;&gt;&amp;gt;&lt;/font&gt;" style="edgeLabel;html=1;align=center;verticalAlign=middle;resizable=0;points=[];labelBackgroundColor=none;fontColor=#393C56;" vertex="1" connectable="0" parent="el4SjzeAoepcmtUn4qeZ-266">
          <mxGeometry x="-0.1129" relative="1" as="geometry">
            <mxPoint as="offset" />
          </mxGeometry>
        </mxCell>
        <mxCell id="el4SjzeAoepcmtUn4qeZ-268" value="&lt;span style=&quot;font-size: 20px;&quot;&gt;A[4] is Med.&lt;/span&gt;" style="rounded=1;whiteSpace=wrap;html=1;labelBackgroundColor=none;fillColor=#F2CC8F;strokeColor=#E07A5F;fontColor=#393C56;" vertex="1" parent="1">
          <mxGeometry x="-4910.000000000001" y="2143.241823756259" width="120" height="40" as="geometry" />
        </mxCell>
        <mxCell id="el4SjzeAoepcmtUn4qeZ-269" value="&lt;span style=&quot;font-size: 20px;&quot;&gt;A[5] is Med.&lt;/span&gt;" style="rounded=1;whiteSpace=wrap;html=1;labelBackgroundColor=none;fillColor=#F2CC8F;strokeColor=#E07A5F;fontColor=#393C56;" vertex="1" parent="1">
          <mxGeometry x="-4350.000000000001" y="2143.241823756259" width="120" height="40" as="geometry" />
        </mxCell>
        <mxCell id="el4SjzeAoepcmtUn4qeZ-270" value="" style="endArrow=classic;html=1;rounded=0;exitX=0.25;exitY=1;exitDx=0;exitDy=0;entryX=0.583;entryY=0;entryDx=0;entryDy=0;entryPerimeter=0;labelBackgroundColor=none;strokeColor=#E07A5F;fontColor=default;" edge="1" target="el4SjzeAoepcmtUn4qeZ-274" parent="1">
          <mxGeometry width="50" height="50" relative="1" as="geometry">
            <mxPoint x="-3870.000000000001" y="2038.2418237562588" as="sourcePoint" />
            <mxPoint x="-3900.000000000001" y="2098.241823756259" as="targetPoint" />
            <Array as="points" />
          </mxGeometry>
        </mxCell>
        <mxCell id="el4SjzeAoepcmtUn4qeZ-271" value="&lt;font style=&quot;font-size: 31px;&quot;&gt;&amp;lt;&lt;/font&gt;" style="edgeLabel;html=1;align=center;verticalAlign=middle;resizable=0;points=[];labelBackgroundColor=none;fontColor=#393C56;" vertex="1" connectable="0" parent="el4SjzeAoepcmtUn4qeZ-270">
          <mxGeometry x="-0.1467" y="1" relative="1" as="geometry">
            <mxPoint as="offset" />
          </mxGeometry>
        </mxCell>
        <mxCell id="el4SjzeAoepcmtUn4qeZ-272" value="" style="endArrow=classic;html=1;rounded=0;exitX=0.75;exitY=1;exitDx=0;exitDy=0;entryX=0.417;entryY=0;entryDx=0;entryDy=0;entryPerimeter=0;labelBackgroundColor=none;strokeColor=#E07A5F;fontColor=default;" edge="1" target="el4SjzeAoepcmtUn4qeZ-275" parent="1">
          <mxGeometry width="50" height="50" relative="1" as="geometry">
            <mxPoint x="-3810.000000000001" y="2038.2418237562588" as="sourcePoint" />
            <mxPoint x="-3790.000000000001" y="2098.241823756259" as="targetPoint" />
          </mxGeometry>
        </mxCell>
        <mxCell id="el4SjzeAoepcmtUn4qeZ-273" value="&lt;font style=&quot;font-size: 30px;&quot;&gt;&amp;gt;&lt;/font&gt;" style="edgeLabel;html=1;align=center;verticalAlign=middle;resizable=0;points=[];labelBackgroundColor=none;fontColor=#393C56;" vertex="1" connectable="0" parent="el4SjzeAoepcmtUn4qeZ-272">
          <mxGeometry x="-0.1129" relative="1" as="geometry">
            <mxPoint as="offset" />
          </mxGeometry>
        </mxCell>
        <mxCell id="el4SjzeAoepcmtUn4qeZ-274" value="&lt;span style=&quot;font-size: 20px;&quot;&gt;A[2] is Med.&lt;/span&gt;" style="rounded=1;whiteSpace=wrap;html=1;labelBackgroundColor=none;fillColor=#F2CC8F;strokeColor=#E07A5F;fontColor=#393C56;" vertex="1" parent="1">
          <mxGeometry x="-4060.000000000001" y="2133.241823756259" width="120" height="40" as="geometry" />
        </mxCell>
        <mxCell id="el4SjzeAoepcmtUn4qeZ-275" value="&lt;span style=&quot;font-size: 20px;&quot;&gt;A[3] is Med.&lt;/span&gt;" style="rounded=1;whiteSpace=wrap;html=1;labelBackgroundColor=none;fillColor=#F2CC8F;strokeColor=#E07A5F;fontColor=#393C56;" vertex="1" parent="1">
          <mxGeometry x="-3770.000000000001" y="2143.241823756259" width="120" height="40" as="geometry" />
        </mxCell>
        <mxCell id="el4SjzeAoepcmtUn4qeZ-276" value="&lt;font style=&quot;font-size: 30px;&quot;&gt;&amp;gt;&lt;/font&gt;" style="edgeLabel;html=1;align=center;verticalAlign=middle;resizable=0;points=[];labelBackgroundColor=none;fontColor=#393C56;" vertex="1" connectable="0" parent="1">
          <mxGeometry x="-2920.004993207912" y="1776.477166562623" as="geometry" />
        </mxCell>
        <mxCell id="el4SjzeAoepcmtUn4qeZ-277" value="&lt;span style=&quot;font-size: 20px;&quot;&gt;A[4]:A[5]&lt;/span&gt;" style="rounded=1;whiteSpace=wrap;html=1;labelBackgroundColor=none;fillColor=#F2CC8F;strokeColor=#E07A5F;fontColor=#393C56;" vertex="1" parent="1">
          <mxGeometry x="-2870.000000000001" y="1809.9818237562586" width="120" height="40" as="geometry" />
        </mxCell>
        <mxCell id="el4SjzeAoepcmtUn4qeZ-278" value="" style="endArrow=classic;html=1;rounded=0;exitX=0.25;exitY=1;exitDx=0;exitDy=0;entryX=0.583;entryY=0;entryDx=0;entryDy=0;entryPerimeter=0;labelBackgroundColor=none;strokeColor=#E07A5F;fontColor=default;" edge="1" target="el4SjzeAoepcmtUn4qeZ-282" parent="1">
          <mxGeometry width="50" height="50" relative="1" as="geometry">
            <mxPoint x="-2850.000000000001" y="1849.9818237562586" as="sourcePoint" />
            <mxPoint x="-2880.000000000001" y="1909.9818237562586" as="targetPoint" />
            <Array as="points" />
          </mxGeometry>
        </mxCell>
        <mxCell id="el4SjzeAoepcmtUn4qeZ-279" value="&lt;font style=&quot;font-size: 31px;&quot;&gt;&amp;lt;&lt;/font&gt;" style="edgeLabel;html=1;align=center;verticalAlign=middle;resizable=0;points=[];labelBackgroundColor=none;fontColor=#393C56;" vertex="1" connectable="0" parent="el4SjzeAoepcmtUn4qeZ-278">
          <mxGeometry x="-0.1467" y="1" relative="1" as="geometry">
            <mxPoint as="offset" />
          </mxGeometry>
        </mxCell>
        <mxCell id="el4SjzeAoepcmtUn4qeZ-280" value="" style="endArrow=classic;html=1;rounded=0;exitX=0.75;exitY=1;exitDx=0;exitDy=0;entryX=0.417;entryY=0;entryDx=0;entryDy=0;entryPerimeter=0;labelBackgroundColor=none;strokeColor=#E07A5F;fontColor=default;" edge="1" target="el4SjzeAoepcmtUn4qeZ-283" parent="1">
          <mxGeometry width="50" height="50" relative="1" as="geometry">
            <mxPoint x="-2790.000000000001" y="1849.9818237562586" as="sourcePoint" />
            <mxPoint x="-2770.000000000001" y="1909.9818237562586" as="targetPoint" />
          </mxGeometry>
        </mxCell>
        <mxCell id="el4SjzeAoepcmtUn4qeZ-281" value="&lt;font style=&quot;font-size: 30px;&quot;&gt;&amp;gt;&lt;/font&gt;" style="edgeLabel;html=1;align=center;verticalAlign=middle;resizable=0;points=[];labelBackgroundColor=none;fontColor=#393C56;" vertex="1" connectable="0" parent="el4SjzeAoepcmtUn4qeZ-280">
          <mxGeometry x="-0.1129" relative="1" as="geometry">
            <mxPoint as="offset" />
          </mxGeometry>
        </mxCell>
        <mxCell id="el4SjzeAoepcmtUn4qeZ-282" value="&lt;span style=&quot;font-size: 20px;&quot;&gt;A[3]:A[5]&lt;/span&gt;" style="rounded=1;whiteSpace=wrap;html=1;labelBackgroundColor=none;fillColor=#F2CC8F;strokeColor=#E07A5F;fontColor=#393C56;" vertex="1" parent="1">
          <mxGeometry x="-3300.000000000001" y="1954.9818237562588" width="120" height="40" as="geometry" />
        </mxCell>
        <mxCell id="el4SjzeAoepcmtUn4qeZ-283" value="&lt;span style=&quot;font-size: 20px;&quot;&gt;A[2]:A[4]&lt;/span&gt;" style="rounded=1;whiteSpace=wrap;html=1;labelBackgroundColor=none;fillColor=#F2CC8F;strokeColor=#E07A5F;fontColor=#393C56;" vertex="1" parent="1">
          <mxGeometry x="-2580.000000000001" y="1929.9818237562588" width="120" height="40" as="geometry" />
        </mxCell>
        <mxCell id="el4SjzeAoepcmtUn4qeZ-284" value="" style="endArrow=classic;html=1;rounded=0;exitX=0.25;exitY=1;exitDx=0;exitDy=0;entryX=0.583;entryY=0;entryDx=0;entryDy=0;entryPerimeter=0;labelBackgroundColor=none;strokeColor=#E07A5F;fontColor=default;" edge="1" target="el4SjzeAoepcmtUn4qeZ-288" parent="1">
          <mxGeometry width="50" height="50" relative="1" as="geometry">
            <mxPoint x="-3280.000000000001" y="1994.9818237562588" as="sourcePoint" />
            <mxPoint x="-3310.000000000001" y="2054.9818237562586" as="targetPoint" />
            <Array as="points" />
          </mxGeometry>
        </mxCell>
        <mxCell id="el4SjzeAoepcmtUn4qeZ-285" value="&lt;font style=&quot;font-size: 31px;&quot;&gt;&amp;lt;&lt;/font&gt;" style="edgeLabel;html=1;align=center;verticalAlign=middle;resizable=0;points=[];labelBackgroundColor=none;fontColor=#393C56;" vertex="1" connectable="0" parent="el4SjzeAoepcmtUn4qeZ-284">
          <mxGeometry x="-0.1467" y="1" relative="1" as="geometry">
            <mxPoint as="offset" />
          </mxGeometry>
        </mxCell>
        <mxCell id="el4SjzeAoepcmtUn4qeZ-286" value="" style="endArrow=classic;html=1;rounded=0;exitX=0.75;exitY=1;exitDx=0;exitDy=0;entryX=0.417;entryY=0;entryDx=0;entryDy=0;entryPerimeter=0;labelBackgroundColor=none;strokeColor=#E07A5F;fontColor=default;" edge="1" target="el4SjzeAoepcmtUn4qeZ-289" parent="1">
          <mxGeometry width="50" height="50" relative="1" as="geometry">
            <mxPoint x="-3220.000000000001" y="1994.9818237562588" as="sourcePoint" />
            <mxPoint x="-3200.000000000001" y="2054.9818237562586" as="targetPoint" />
          </mxGeometry>
        </mxCell>
        <mxCell id="el4SjzeAoepcmtUn4qeZ-287" value="&lt;font style=&quot;font-size: 30px;&quot;&gt;&amp;gt;&lt;/font&gt;" style="edgeLabel;html=1;align=center;verticalAlign=middle;resizable=0;points=[];labelBackgroundColor=none;fontColor=#393C56;" vertex="1" connectable="0" parent="el4SjzeAoepcmtUn4qeZ-286">
          <mxGeometry x="-0.1129" relative="1" as="geometry">
            <mxPoint as="offset" />
          </mxGeometry>
        </mxCell>
        <mxCell id="el4SjzeAoepcmtUn4qeZ-288" value="&lt;span style=&quot;font-size: 20px;&quot;&gt;A[3] is Med.&lt;/span&gt;" style="rounded=1;whiteSpace=wrap;html=1;labelBackgroundColor=none;fillColor=#F2CC8F;strokeColor=#E07A5F;fontColor=#393C56;" vertex="1" parent="1">
          <mxGeometry x="-3570.000000000001" y="2074.9818237562586" width="120" height="40" as="geometry" />
        </mxCell>
        <mxCell id="el4SjzeAoepcmtUn4qeZ-289" value="&lt;span style=&quot;font-size: 20px;&quot;&gt;A[5] is Med.&lt;/span&gt;" style="rounded=1;whiteSpace=wrap;html=1;labelBackgroundColor=none;fillColor=#F2CC8F;strokeColor=#E07A5F;fontColor=#393C56;" vertex="1" parent="1">
          <mxGeometry x="-3010.000000000001" y="2074.9818237562586" width="120" height="40" as="geometry" />
        </mxCell>
        <mxCell id="el4SjzeAoepcmtUn4qeZ-290" value="" style="endArrow=classic;html=1;rounded=0;exitX=0.25;exitY=1;exitDx=0;exitDy=0;entryX=0.583;entryY=0;entryDx=0;entryDy=0;entryPerimeter=0;labelBackgroundColor=none;strokeColor=#E07A5F;fontColor=default;" edge="1" target="el4SjzeAoepcmtUn4qeZ-294" parent="1">
          <mxGeometry width="50" height="50" relative="1" as="geometry">
            <mxPoint x="-2530.000000000001" y="1969.9818237562588" as="sourcePoint" />
            <mxPoint x="-2560.000000000001" y="2029.9818237562588" as="targetPoint" />
            <Array as="points" />
          </mxGeometry>
        </mxCell>
        <mxCell id="el4SjzeAoepcmtUn4qeZ-291" value="&lt;font style=&quot;font-size: 31px;&quot;&gt;&amp;lt;&lt;/font&gt;" style="edgeLabel;html=1;align=center;verticalAlign=middle;resizable=0;points=[];labelBackgroundColor=none;fontColor=#393C56;" vertex="1" connectable="0" parent="el4SjzeAoepcmtUn4qeZ-290">
          <mxGeometry x="-0.1467" y="1" relative="1" as="geometry">
            <mxPoint as="offset" />
          </mxGeometry>
        </mxCell>
        <mxCell id="el4SjzeAoepcmtUn4qeZ-292" value="" style="endArrow=classic;html=1;rounded=0;exitX=0.75;exitY=1;exitDx=0;exitDy=0;entryX=0.417;entryY=0;entryDx=0;entryDy=0;entryPerimeter=0;labelBackgroundColor=none;strokeColor=#E07A5F;fontColor=default;" edge="1" target="el4SjzeAoepcmtUn4qeZ-295" parent="1">
          <mxGeometry width="50" height="50" relative="1" as="geometry">
            <mxPoint x="-2470.000000000001" y="1969.9818237562588" as="sourcePoint" />
            <mxPoint x="-2450.000000000001" y="2029.9818237562588" as="targetPoint" />
          </mxGeometry>
        </mxCell>
        <mxCell id="el4SjzeAoepcmtUn4qeZ-293" value="&lt;font style=&quot;font-size: 30px;&quot;&gt;&amp;gt;&lt;/font&gt;" style="edgeLabel;html=1;align=center;verticalAlign=middle;resizable=0;points=[];labelBackgroundColor=none;fontColor=#393C56;" vertex="1" connectable="0" parent="el4SjzeAoepcmtUn4qeZ-292">
          <mxGeometry x="-0.1129" relative="1" as="geometry">
            <mxPoint as="offset" />
          </mxGeometry>
        </mxCell>
        <mxCell id="el4SjzeAoepcmtUn4qeZ-294" value="&lt;span style=&quot;font-size: 20px;&quot;&gt;A[2] is Med.&lt;/span&gt;" style="rounded=1;whiteSpace=wrap;html=1;labelBackgroundColor=none;fillColor=#F2CC8F;strokeColor=#E07A5F;fontColor=#393C56;" vertex="1" parent="1">
          <mxGeometry x="-2720.000000000001" y="2064.9818237562586" width="120" height="40" as="geometry" />
        </mxCell>
        <mxCell id="el4SjzeAoepcmtUn4qeZ-295" value="&lt;span style=&quot;font-size: 20px;&quot;&gt;A[4] is Med.&lt;/span&gt;" style="rounded=1;whiteSpace=wrap;html=1;labelBackgroundColor=none;fillColor=#F2CC8F;strokeColor=#E07A5F;fontColor=#393C56;" vertex="1" parent="1">
          <mxGeometry x="-2430.000000000001" y="2074.9818237562586" width="120" height="40" as="geometry" />
        </mxCell>
        <mxCell id="el4SjzeAoepcmtUn4qeZ-296" value="&lt;span style=&quot;font-size: 20px;&quot;&gt;A[3]:A[5]&lt;/span&gt;" style="rounded=1;whiteSpace=wrap;html=1;labelBackgroundColor=none;fillColor=#F2CC8F;strokeColor=#E07A5F;fontColor=#393C56;" vertex="1" parent="1">
          <mxGeometry x="-512.0000000000009" y="1703.4918237562586" width="120" height="40" as="geometry" />
        </mxCell>
        <mxCell id="el4SjzeAoepcmtUn4qeZ-297" value="" style="endArrow=classic;html=1;rounded=0;exitX=0.25;exitY=1;exitDx=0;exitDy=0;entryX=0.583;entryY=0;entryDx=0;entryDy=0;entryPerimeter=0;labelBackgroundColor=none;strokeColor=#E07A5F;fontColor=default;" edge="1" target="el4SjzeAoepcmtUn4qeZ-300" parent="1">
          <mxGeometry width="50" height="50" relative="1" as="geometry">
            <mxPoint x="-482.0000000000009" y="1743.6018237562587" as="sourcePoint" />
            <mxPoint x="-512.0000000000009" y="1803.6018237562587" as="targetPoint" />
            <Array as="points" />
          </mxGeometry>
        </mxCell>
        <mxCell id="el4SjzeAoepcmtUn4qeZ-298" value="&lt;font style=&quot;font-size: 31px;&quot;&gt;&amp;lt;&lt;/font&gt;" style="edgeLabel;html=1;align=center;verticalAlign=middle;resizable=0;points=[];labelBackgroundColor=none;fontColor=#393C56;" vertex="1" connectable="0" parent="el4SjzeAoepcmtUn4qeZ-297">
          <mxGeometry x="-0.1467" y="1" relative="1" as="geometry">
            <mxPoint as="offset" />
          </mxGeometry>
        </mxCell>
        <mxCell id="el4SjzeAoepcmtUn4qeZ-299" value="" style="endArrow=classic;html=1;rounded=0;exitX=0.75;exitY=1;exitDx=0;exitDy=0;entryX=0.417;entryY=0;entryDx=0;entryDy=0;entryPerimeter=0;labelBackgroundColor=none;strokeColor=#E07A5F;fontColor=default;" edge="1" parent="1">
          <mxGeometry width="50" height="50" relative="1" as="geometry">
            <mxPoint x="-422.0000000000009" y="1743.6018237562587" as="sourcePoint" />
            <mxPoint x="-161.96000000000095" y="1823.6018237562587" as="targetPoint" />
          </mxGeometry>
        </mxCell>
        <mxCell id="el4SjzeAoepcmtUn4qeZ-300" value="&lt;span style=&quot;font-size: 20px;&quot;&gt;A[1]:A[3]&lt;/span&gt;" style="rounded=1;whiteSpace=wrap;html=1;labelBackgroundColor=none;fillColor=#F2CC8F;strokeColor=#E07A5F;fontColor=#393C56;" vertex="1" parent="1">
          <mxGeometry x="-1562.000000000001" y="1891.4618237562586" width="120" height="40" as="geometry" />
        </mxCell>
        <mxCell id="el4SjzeAoepcmtUn4qeZ-301" value="" style="endArrow=classic;html=1;rounded=0;exitX=0.25;exitY=1;exitDx=0;exitDy=0;entryX=0.583;entryY=0;entryDx=0;entryDy=0;entryPerimeter=0;labelBackgroundColor=none;strokeColor=#E07A5F;fontColor=default;" edge="1" target="el4SjzeAoepcmtUn4qeZ-305" parent="1">
          <mxGeometry width="50" height="50" relative="1" as="geometry">
            <mxPoint x="-1542.000000000001" y="1931.4618237562586" as="sourcePoint" />
            <mxPoint x="-1572.000000000001" y="1991.4618237562586" as="targetPoint" />
            <Array as="points" />
          </mxGeometry>
        </mxCell>
        <mxCell id="el4SjzeAoepcmtUn4qeZ-302" value="&lt;font style=&quot;font-size: 31px;&quot;&gt;&amp;lt;&lt;/font&gt;" style="edgeLabel;html=1;align=center;verticalAlign=middle;resizable=0;points=[];labelBackgroundColor=none;fontColor=#393C56;" vertex="1" connectable="0" parent="el4SjzeAoepcmtUn4qeZ-301">
          <mxGeometry x="-0.1467" y="1" relative="1" as="geometry">
            <mxPoint as="offset" />
          </mxGeometry>
        </mxCell>
        <mxCell id="el4SjzeAoepcmtUn4qeZ-303" value="" style="endArrow=classic;html=1;rounded=0;exitX=0.75;exitY=1;exitDx=0;exitDy=0;entryX=0.417;entryY=0;entryDx=0;entryDy=0;entryPerimeter=0;labelBackgroundColor=none;strokeColor=#E07A5F;fontColor=default;" edge="1" target="el4SjzeAoepcmtUn4qeZ-306" parent="1">
          <mxGeometry width="50" height="50" relative="1" as="geometry">
            <mxPoint x="-1482.000000000001" y="1931.4618237562586" as="sourcePoint" />
            <mxPoint x="-1462.000000000001" y="1991.4618237562586" as="targetPoint" />
          </mxGeometry>
        </mxCell>
        <mxCell id="el4SjzeAoepcmtUn4qeZ-304" value="&lt;font style=&quot;font-size: 30px;&quot;&gt;&amp;gt;&lt;/font&gt;" style="edgeLabel;html=1;align=center;verticalAlign=middle;resizable=0;points=[];labelBackgroundColor=none;fontColor=#393C56;" vertex="1" connectable="0" parent="el4SjzeAoepcmtUn4qeZ-303">
          <mxGeometry x="-0.1129" relative="1" as="geometry">
            <mxPoint as="offset" />
          </mxGeometry>
        </mxCell>
        <mxCell id="el4SjzeAoepcmtUn4qeZ-305" value="&lt;span style=&quot;font-size: 20px;&quot;&gt;A[2]:A[3]&lt;/span&gt;" style="rounded=1;whiteSpace=wrap;html=1;labelBackgroundColor=none;fillColor=#F2CC8F;strokeColor=#E07A5F;fontColor=#393C56;" vertex="1" parent="1">
          <mxGeometry x="-1992.000000000001" y="2036.4618237562588" width="120" height="40" as="geometry" />
        </mxCell>
        <mxCell id="el4SjzeAoepcmtUn4qeZ-306" value="&lt;span style=&quot;font-size: 20px;&quot;&gt;A[1]:A[5]&lt;/span&gt;" style="rounded=1;whiteSpace=wrap;html=1;labelBackgroundColor=none;fillColor=#F2CC8F;strokeColor=#E07A5F;fontColor=#393C56;" vertex="1" parent="1">
          <mxGeometry x="-1272.000000000001" y="2011.4618237562588" width="120" height="40" as="geometry" />
        </mxCell>
        <mxCell id="el4SjzeAoepcmtUn4qeZ-307" value="" style="endArrow=classic;html=1;rounded=0;exitX=0.25;exitY=1;exitDx=0;exitDy=0;entryX=0.583;entryY=0;entryDx=0;entryDy=0;entryPerimeter=0;labelBackgroundColor=none;strokeColor=#E07A5F;fontColor=default;" edge="1" target="el4SjzeAoepcmtUn4qeZ-311" parent="1">
          <mxGeometry width="50" height="50" relative="1" as="geometry">
            <mxPoint x="-1972.000000000001" y="2076.461823756259" as="sourcePoint" />
            <mxPoint x="-2002.000000000001" y="2136.461823756259" as="targetPoint" />
            <Array as="points" />
          </mxGeometry>
        </mxCell>
        <mxCell id="el4SjzeAoepcmtUn4qeZ-308" value="&lt;font style=&quot;font-size: 31px;&quot;&gt;&amp;lt;&lt;/font&gt;" style="edgeLabel;html=1;align=center;verticalAlign=middle;resizable=0;points=[];labelBackgroundColor=none;fontColor=#393C56;" vertex="1" connectable="0" parent="el4SjzeAoepcmtUn4qeZ-307">
          <mxGeometry x="-0.1467" y="1" relative="1" as="geometry">
            <mxPoint as="offset" />
          </mxGeometry>
        </mxCell>
        <mxCell id="el4SjzeAoepcmtUn4qeZ-309" value="" style="endArrow=classic;html=1;rounded=0;exitX=0.75;exitY=1;exitDx=0;exitDy=0;entryX=0.417;entryY=0;entryDx=0;entryDy=0;entryPerimeter=0;labelBackgroundColor=none;strokeColor=#E07A5F;fontColor=default;" edge="1" target="el4SjzeAoepcmtUn4qeZ-312" parent="1">
          <mxGeometry width="50" height="50" relative="1" as="geometry">
            <mxPoint x="-1912.000000000001" y="2076.461823756259" as="sourcePoint" />
            <mxPoint x="-1892.000000000001" y="2136.461823756259" as="targetPoint" />
          </mxGeometry>
        </mxCell>
        <mxCell id="el4SjzeAoepcmtUn4qeZ-310" value="&lt;font style=&quot;font-size: 30px;&quot;&gt;&amp;gt;&lt;/font&gt;" style="edgeLabel;html=1;align=center;verticalAlign=middle;resizable=0;points=[];labelBackgroundColor=none;fontColor=#393C56;" vertex="1" connectable="0" parent="el4SjzeAoepcmtUn4qeZ-309">
          <mxGeometry x="-0.1129" relative="1" as="geometry">
            <mxPoint as="offset" />
          </mxGeometry>
        </mxCell>
        <mxCell id="el4SjzeAoepcmtUn4qeZ-311" value="&lt;span style=&quot;font-size: 20px;&quot;&gt;A[2] is Med.&lt;/span&gt;" style="rounded=1;whiteSpace=wrap;html=1;labelBackgroundColor=none;fillColor=#F2CC8F;strokeColor=#E07A5F;fontColor=#393C56;" vertex="1" parent="1">
          <mxGeometry x="-2262.000000000001" y="2156.461823756259" width="120" height="40" as="geometry" />
        </mxCell>
        <mxCell id="el4SjzeAoepcmtUn4qeZ-312" value="&lt;span style=&quot;font-size: 20px;&quot;&gt;A[3] is Med.&lt;/span&gt;" style="rounded=1;whiteSpace=wrap;html=1;labelBackgroundColor=none;fillColor=#F2CC8F;strokeColor=#E07A5F;fontColor=#393C56;" vertex="1" parent="1">
          <mxGeometry x="-1702.000000000001" y="2156.461823756259" width="120" height="40" as="geometry" />
        </mxCell>
        <mxCell id="el4SjzeAoepcmtUn4qeZ-313" value="" style="endArrow=classic;html=1;rounded=0;exitX=0.25;exitY=1;exitDx=0;exitDy=0;entryX=0.583;entryY=0;entryDx=0;entryDy=0;entryPerimeter=0;labelBackgroundColor=none;strokeColor=#E07A5F;fontColor=default;" edge="1" target="el4SjzeAoepcmtUn4qeZ-317" parent="1">
          <mxGeometry width="50" height="50" relative="1" as="geometry">
            <mxPoint x="-1222.000000000001" y="2051.461823756259" as="sourcePoint" />
            <mxPoint x="-1252.000000000001" y="2111.461823756259" as="targetPoint" />
            <Array as="points" />
          </mxGeometry>
        </mxCell>
        <mxCell id="el4SjzeAoepcmtUn4qeZ-314" value="&lt;font style=&quot;font-size: 31px;&quot;&gt;&amp;lt;&lt;/font&gt;" style="edgeLabel;html=1;align=center;verticalAlign=middle;resizable=0;points=[];labelBackgroundColor=none;fontColor=#393C56;" vertex="1" connectable="0" parent="el4SjzeAoepcmtUn4qeZ-313">
          <mxGeometry x="-0.1467" y="1" relative="1" as="geometry">
            <mxPoint as="offset" />
          </mxGeometry>
        </mxCell>
        <mxCell id="el4SjzeAoepcmtUn4qeZ-315" value="" style="endArrow=classic;html=1;rounded=0;exitX=0.75;exitY=1;exitDx=0;exitDy=0;entryX=0.417;entryY=0;entryDx=0;entryDy=0;entryPerimeter=0;labelBackgroundColor=none;strokeColor=#E07A5F;fontColor=default;" edge="1" target="el4SjzeAoepcmtUn4qeZ-318" parent="1">
          <mxGeometry width="50" height="50" relative="1" as="geometry">
            <mxPoint x="-1162.000000000001" y="2051.461823756259" as="sourcePoint" />
            <mxPoint x="-1142.000000000001" y="2111.461823756259" as="targetPoint" />
          </mxGeometry>
        </mxCell>
        <mxCell id="el4SjzeAoepcmtUn4qeZ-316" value="&lt;font style=&quot;font-size: 30px;&quot;&gt;&amp;gt;&lt;/font&gt;" style="edgeLabel;html=1;align=center;verticalAlign=middle;resizable=0;points=[];labelBackgroundColor=none;fontColor=#393C56;" vertex="1" connectable="0" parent="el4SjzeAoepcmtUn4qeZ-315">
          <mxGeometry x="-0.1129" relative="1" as="geometry">
            <mxPoint as="offset" />
          </mxGeometry>
        </mxCell>
        <mxCell id="el4SjzeAoepcmtUn4qeZ-317" value="&lt;span style=&quot;font-size: 20px;&quot;&gt;A[1] is Med.&lt;/span&gt;" style="rounded=1;whiteSpace=wrap;html=1;labelBackgroundColor=none;fillColor=#F2CC8F;strokeColor=#E07A5F;fontColor=#393C56;" vertex="1" parent="1">
          <mxGeometry x="-1412.000000000001" y="2146.461823756259" width="120" height="40" as="geometry" />
        </mxCell>
        <mxCell id="el4SjzeAoepcmtUn4qeZ-318" value="&lt;span style=&quot;font-size: 20px;&quot;&gt;A[5] is Med.&lt;/span&gt;" style="rounded=1;whiteSpace=wrap;html=1;labelBackgroundColor=none;fillColor=#F2CC8F;strokeColor=#E07A5F;fontColor=#393C56;" vertex="1" parent="1">
          <mxGeometry x="-1122.000000000001" y="2156.461823756259" width="120" height="40" as="geometry" />
        </mxCell>
        <mxCell id="el4SjzeAoepcmtUn4qeZ-319" value="&lt;font style=&quot;font-size: 30px;&quot;&gt;&amp;gt;&lt;/font&gt;" style="edgeLabel;html=1;align=center;verticalAlign=middle;resizable=0;points=[];labelBackgroundColor=none;fontColor=#393C56;" vertex="1" connectable="0" parent="1">
          <mxGeometry x="-272.00499320791187" y="1789.6971665626231" as="geometry" />
        </mxCell>
        <mxCell id="el4SjzeAoepcmtUn4qeZ-320" value="&lt;span style=&quot;font-size: 20px;&quot;&gt;A[1]:A[5]&lt;/span&gt;" style="rounded=1;whiteSpace=wrap;html=1;labelBackgroundColor=none;fillColor=#F2CC8F;strokeColor=#E07A5F;fontColor=#393C56;" vertex="1" parent="1">
          <mxGeometry x="-222.0000000000009" y="1823.2018237562586" width="120" height="40" as="geometry" />
        </mxCell>
        <mxCell id="el4SjzeAoepcmtUn4qeZ-321" value="" style="endArrow=classic;html=1;rounded=0;exitX=0.25;exitY=1;exitDx=0;exitDy=0;entryX=0.583;entryY=0;entryDx=0;entryDy=0;entryPerimeter=0;labelBackgroundColor=none;strokeColor=#E07A5F;fontColor=default;" edge="1" target="el4SjzeAoepcmtUn4qeZ-325" parent="1">
          <mxGeometry width="50" height="50" relative="1" as="geometry">
            <mxPoint x="-202.0000000000009" y="1863.2018237562586" as="sourcePoint" />
            <mxPoint x="-232.0000000000009" y="1923.2018237562586" as="targetPoint" />
            <Array as="points" />
          </mxGeometry>
        </mxCell>
        <mxCell id="el4SjzeAoepcmtUn4qeZ-322" value="&lt;font style=&quot;font-size: 31px;&quot;&gt;&amp;lt;&lt;/font&gt;" style="edgeLabel;html=1;align=center;verticalAlign=middle;resizable=0;points=[];labelBackgroundColor=none;fontColor=#393C56;" vertex="1" connectable="0" parent="el4SjzeAoepcmtUn4qeZ-321">
          <mxGeometry x="-0.1467" y="1" relative="1" as="geometry">
            <mxPoint as="offset" />
          </mxGeometry>
        </mxCell>
        <mxCell id="el4SjzeAoepcmtUn4qeZ-323" value="" style="endArrow=classic;html=1;rounded=0;exitX=0.75;exitY=1;exitDx=0;exitDy=0;entryX=0.417;entryY=0;entryDx=0;entryDy=0;entryPerimeter=0;labelBackgroundColor=none;strokeColor=#E07A5F;fontColor=default;" edge="1" target="el4SjzeAoepcmtUn4qeZ-326" parent="1">
          <mxGeometry width="50" height="50" relative="1" as="geometry">
            <mxPoint x="-142.0000000000009" y="1863.2018237562586" as="sourcePoint" />
            <mxPoint x="-122.00000000000091" y="1923.2018237562586" as="targetPoint" />
          </mxGeometry>
        </mxCell>
        <mxCell id="el4SjzeAoepcmtUn4qeZ-324" value="&lt;font style=&quot;font-size: 30px;&quot;&gt;&amp;gt;&lt;/font&gt;" style="edgeLabel;html=1;align=center;verticalAlign=middle;resizable=0;points=[];labelBackgroundColor=none;fontColor=#393C56;" vertex="1" connectable="0" parent="el4SjzeAoepcmtUn4qeZ-323">
          <mxGeometry x="-0.1129" relative="1" as="geometry">
            <mxPoint as="offset" />
          </mxGeometry>
        </mxCell>
        <mxCell id="el4SjzeAoepcmtUn4qeZ-325" value="&lt;span style=&quot;font-size: 20px;&quot;&gt;A[2]:A[5]&lt;/span&gt;" style="rounded=1;whiteSpace=wrap;html=1;labelBackgroundColor=none;fillColor=#F2CC8F;strokeColor=#E07A5F;fontColor=#393C56;" vertex="1" parent="1">
          <mxGeometry x="-652.0000000000009" y="1968.2018237562588" width="120" height="40" as="geometry" />
        </mxCell>
        <mxCell id="el4SjzeAoepcmtUn4qeZ-326" value="&lt;span style=&quot;font-size: 20px;&quot;&gt;A[2]:A[3]&lt;/span&gt;" style="rounded=1;whiteSpace=wrap;html=1;labelBackgroundColor=none;fillColor=#F2CC8F;strokeColor=#E07A5F;fontColor=#393C56;" vertex="1" parent="1">
          <mxGeometry x="67.99999999999909" y="1943.2018237562588" width="120" height="40" as="geometry" />
        </mxCell>
        <mxCell id="el4SjzeAoepcmtUn4qeZ-327" value="" style="endArrow=classic;html=1;rounded=0;exitX=0.25;exitY=1;exitDx=0;exitDy=0;entryX=0.583;entryY=0;entryDx=0;entryDy=0;entryPerimeter=0;labelBackgroundColor=none;strokeColor=#E07A5F;fontColor=default;" edge="1" target="el4SjzeAoepcmtUn4qeZ-331" parent="1">
          <mxGeometry width="50" height="50" relative="1" as="geometry">
            <mxPoint x="-632.0000000000009" y="2008.2018237562588" as="sourcePoint" />
            <mxPoint x="-662.0000000000009" y="2068.201823756259" as="targetPoint" />
            <Array as="points" />
          </mxGeometry>
        </mxCell>
        <mxCell id="el4SjzeAoepcmtUn4qeZ-328" value="&lt;font style=&quot;font-size: 31px;&quot;&gt;&amp;lt;&lt;/font&gt;" style="edgeLabel;html=1;align=center;verticalAlign=middle;resizable=0;points=[];labelBackgroundColor=none;fontColor=#393C56;" vertex="1" connectable="0" parent="el4SjzeAoepcmtUn4qeZ-327">
          <mxGeometry x="-0.1467" y="1" relative="1" as="geometry">
            <mxPoint as="offset" />
          </mxGeometry>
        </mxCell>
        <mxCell id="el4SjzeAoepcmtUn4qeZ-329" value="" style="endArrow=classic;html=1;rounded=0;exitX=0.75;exitY=1;exitDx=0;exitDy=0;entryX=0.417;entryY=0;entryDx=0;entryDy=0;entryPerimeter=0;labelBackgroundColor=none;strokeColor=#E07A5F;fontColor=default;" edge="1" target="el4SjzeAoepcmtUn4qeZ-332" parent="1">
          <mxGeometry width="50" height="50" relative="1" as="geometry">
            <mxPoint x="-572.0000000000009" y="2008.2018237562588" as="sourcePoint" />
            <mxPoint x="-552.0000000000009" y="2068.201823756259" as="targetPoint" />
          </mxGeometry>
        </mxCell>
        <mxCell id="el4SjzeAoepcmtUn4qeZ-330" value="&lt;font style=&quot;font-size: 30px;&quot;&gt;&amp;gt;&lt;/font&gt;" style="edgeLabel;html=1;align=center;verticalAlign=middle;resizable=0;points=[];labelBackgroundColor=none;fontColor=#393C56;" vertex="1" connectable="0" parent="el4SjzeAoepcmtUn4qeZ-329">
          <mxGeometry x="-0.1129" relative="1" as="geometry">
            <mxPoint as="offset" />
          </mxGeometry>
        </mxCell>
        <mxCell id="el4SjzeAoepcmtUn4qeZ-331" value="&lt;span style=&quot;font-size: 20px;&quot;&gt;A[2] is Med.&lt;/span&gt;" style="rounded=1;whiteSpace=wrap;html=1;labelBackgroundColor=none;fillColor=#F2CC8F;strokeColor=#E07A5F;fontColor=#393C56;" vertex="1" parent="1">
          <mxGeometry x="-922.0000000000009" y="2088.201823756259" width="120" height="40" as="geometry" />
        </mxCell>
        <mxCell id="el4SjzeAoepcmtUn4qeZ-332" value="&lt;span style=&quot;font-size: 20px;&quot;&gt;A[5] is Med.&lt;/span&gt;" style="rounded=1;whiteSpace=wrap;html=1;labelBackgroundColor=none;fillColor=#F2CC8F;strokeColor=#E07A5F;fontColor=#393C56;" vertex="1" parent="1">
          <mxGeometry x="-362.0000000000009" y="2088.201823756259" width="120" height="40" as="geometry" />
        </mxCell>
        <mxCell id="el4SjzeAoepcmtUn4qeZ-333" value="" style="endArrow=classic;html=1;rounded=0;exitX=0.25;exitY=1;exitDx=0;exitDy=0;entryX=0.583;entryY=0;entryDx=0;entryDy=0;entryPerimeter=0;labelBackgroundColor=none;strokeColor=#E07A5F;fontColor=default;" edge="1" target="el4SjzeAoepcmtUn4qeZ-337" parent="1">
          <mxGeometry width="50" height="50" relative="1" as="geometry">
            <mxPoint x="117.99999999999909" y="1983.2018237562588" as="sourcePoint" />
            <mxPoint x="87.99999999999909" y="2043.2018237562588" as="targetPoint" />
            <Array as="points" />
          </mxGeometry>
        </mxCell>
        <mxCell id="el4SjzeAoepcmtUn4qeZ-334" value="&lt;font style=&quot;font-size: 31px;&quot;&gt;&amp;lt;&lt;/font&gt;" style="edgeLabel;html=1;align=center;verticalAlign=middle;resizable=0;points=[];labelBackgroundColor=none;fontColor=#393C56;" vertex="1" connectable="0" parent="el4SjzeAoepcmtUn4qeZ-333">
          <mxGeometry x="-0.1467" y="1" relative="1" as="geometry">
            <mxPoint as="offset" />
          </mxGeometry>
        </mxCell>
        <mxCell id="el4SjzeAoepcmtUn4qeZ-335" value="" style="endArrow=classic;html=1;rounded=0;exitX=0.75;exitY=1;exitDx=0;exitDy=0;entryX=0.417;entryY=0;entryDx=0;entryDy=0;entryPerimeter=0;labelBackgroundColor=none;strokeColor=#E07A5F;fontColor=default;" edge="1" target="el4SjzeAoepcmtUn4qeZ-338" parent="1">
          <mxGeometry width="50" height="50" relative="1" as="geometry">
            <mxPoint x="177.9999999999991" y="1983.2018237562588" as="sourcePoint" />
            <mxPoint x="197.9999999999991" y="2043.2018237562588" as="targetPoint" />
          </mxGeometry>
        </mxCell>
        <mxCell id="el4SjzeAoepcmtUn4qeZ-336" value="&lt;font style=&quot;font-size: 30px;&quot;&gt;&amp;gt;&lt;/font&gt;" style="edgeLabel;html=1;align=center;verticalAlign=middle;resizable=0;points=[];labelBackgroundColor=none;fontColor=#393C56;" vertex="1" connectable="0" parent="el4SjzeAoepcmtUn4qeZ-335">
          <mxGeometry x="-0.1129" relative="1" as="geometry">
            <mxPoint as="offset" />
          </mxGeometry>
        </mxCell>
        <mxCell id="el4SjzeAoepcmtUn4qeZ-337" value="&lt;span style=&quot;font-size: 20px;&quot;&gt;A[2] is Med.&lt;/span&gt;" style="rounded=1;whiteSpace=wrap;html=1;labelBackgroundColor=none;fillColor=#F2CC8F;strokeColor=#E07A5F;fontColor=#393C56;" vertex="1" parent="1">
          <mxGeometry x="-72.00000000000091" y="2078.201823756259" width="120" height="40" as="geometry" />
        </mxCell>
        <mxCell id="el4SjzeAoepcmtUn4qeZ-338" value="&lt;span style=&quot;font-size: 20px;&quot;&gt;A[3] is Med.&lt;/span&gt;" style="rounded=1;whiteSpace=wrap;html=1;labelBackgroundColor=none;fillColor=#F2CC8F;strokeColor=#E07A5F;fontColor=#393C56;" vertex="1" parent="1">
          <mxGeometry x="217.9999999999991" y="2088.201823756259" width="120" height="40" as="geometry" />
        </mxCell>
        <mxCell id="el4SjzeAoepcmtUn4qeZ-339" value="&lt;span style=&quot;font-size: 20px;&quot;&gt;A[3]:A[4]&lt;/span&gt;" style="rounded=1;whiteSpace=wrap;html=1;labelBackgroundColor=none;fillColor=#F2CC8F;strokeColor=#E07A5F;fontColor=#393C56;" vertex="1" parent="1">
          <mxGeometry x="6823" y="920" width="120" height="40" as="geometry" />
        </mxCell>
        <mxCell id="el4SjzeAoepcmtUn4qeZ-340" value="" style="endArrow=classic;html=1;rounded=0;exitX=0.25;exitY=1;exitDx=0;exitDy=0;entryX=0.583;entryY=0;entryDx=0;entryDy=0;entryPerimeter=0;labelBackgroundColor=none;strokeColor=#E07A5F;fontColor=default;" edge="1" source="el4SjzeAoepcmtUn4qeZ-339" target="el4SjzeAoepcmtUn4qeZ-344" parent="1">
          <mxGeometry width="50" height="50" relative="1" as="geometry">
            <mxPoint x="8460" y="910" as="sourcePoint" />
            <mxPoint x="8430" y="970" as="targetPoint" />
            <Array as="points" />
          </mxGeometry>
        </mxCell>
        <mxCell id="el4SjzeAoepcmtUn4qeZ-341" value="&lt;font style=&quot;font-size: 31px;&quot;&gt;&amp;lt;&lt;/font&gt;" style="edgeLabel;html=1;align=center;verticalAlign=middle;resizable=0;points=[];labelBackgroundColor=none;fontColor=#393C56;" vertex="1" connectable="0" parent="el4SjzeAoepcmtUn4qeZ-340">
          <mxGeometry x="-0.1467" y="1" relative="1" as="geometry">
            <mxPoint as="offset" />
          </mxGeometry>
        </mxCell>
        <mxCell id="el4SjzeAoepcmtUn4qeZ-342" value="" style="endArrow=classic;html=1;rounded=0;exitX=0.75;exitY=1;exitDx=0;exitDy=0;entryX=0.5;entryY=0;entryDx=0;entryDy=0;labelBackgroundColor=none;strokeColor=#E07A5F;fontColor=default;" edge="1" source="el4SjzeAoepcmtUn4qeZ-339" target="el4SjzeAoepcmtUn4qeZ-436" parent="1">
          <mxGeometry width="50" height="50" relative="1" as="geometry">
            <mxPoint x="8520" y="910" as="sourcePoint" />
            <mxPoint x="8700.04" y="990" as="targetPoint" />
          </mxGeometry>
        </mxCell>
        <mxCell id="el4SjzeAoepcmtUn4qeZ-343" value="&lt;font style=&quot;font-size: 30px;&quot;&gt;&amp;gt;&lt;/font&gt;" style="edgeLabel;html=1;align=center;verticalAlign=middle;resizable=0;points=[];labelBackgroundColor=none;fontColor=#393C56;" vertex="1" connectable="0" parent="el4SjzeAoepcmtUn4qeZ-342">
          <mxGeometry x="-0.1129" relative="1" as="geometry">
            <mxPoint as="offset" />
          </mxGeometry>
        </mxCell>
        <mxCell id="el4SjzeAoepcmtUn4qeZ-344" value="&lt;span style=&quot;font-size: 20px;&quot;&gt;A[2]:A[3]&lt;/span&gt;" style="rounded=1;whiteSpace=wrap;html=1;labelBackgroundColor=none;fillColor=#F2CC8F;strokeColor=#E07A5F;fontColor=#393C56;" vertex="1" parent="1">
          <mxGeometry x="3968" y="1405.27" width="120" height="40" as="geometry" />
        </mxCell>
        <mxCell id="el4SjzeAoepcmtUn4qeZ-345" value="" style="endArrow=classic;html=1;rounded=0;exitX=0.25;exitY=1;exitDx=0;exitDy=0;entryX=0.583;entryY=0;entryDx=0;entryDy=0;entryPerimeter=0;labelBackgroundColor=none;strokeColor=#E07A5F;fontColor=default;" edge="1" source="el4SjzeAoepcmtUn4qeZ-344" target="el4SjzeAoepcmtUn4qeZ-349" parent="1">
          <mxGeometry width="50" height="50" relative="1" as="geometry">
            <mxPoint x="5458" y="1390.1599999999999" as="sourcePoint" />
            <mxPoint x="5428" y="1450.1599999999999" as="targetPoint" />
            <Array as="points" />
          </mxGeometry>
        </mxCell>
        <mxCell id="el4SjzeAoepcmtUn4qeZ-346" value="&lt;font style=&quot;font-size: 31px;&quot;&gt;&amp;lt;&lt;/font&gt;" style="edgeLabel;html=1;align=center;verticalAlign=middle;resizable=0;points=[];labelBackgroundColor=none;fontColor=#393C56;" vertex="1" connectable="0" parent="el4SjzeAoepcmtUn4qeZ-345">
          <mxGeometry x="-0.1467" y="1" relative="1" as="geometry">
            <mxPoint as="offset" />
          </mxGeometry>
        </mxCell>
        <mxCell id="el4SjzeAoepcmtUn4qeZ-347" value="" style="endArrow=classic;html=1;rounded=0;exitX=1;exitY=1;exitDx=0;exitDy=0;entryX=0.5;entryY=0;entryDx=0;entryDy=0;labelBackgroundColor=none;strokeColor=#E07A5F;fontColor=default;" edge="1" source="el4SjzeAoepcmtUn4qeZ-344" target="el4SjzeAoepcmtUn4qeZ-392" parent="1">
          <mxGeometry width="50" height="50" relative="1" as="geometry">
            <mxPoint x="5518" y="1390.1599999999999" as="sourcePoint" />
            <mxPoint x="5778.040000000001" y="1470.1599999999999" as="targetPoint" />
          </mxGeometry>
        </mxCell>
        <mxCell id="el4SjzeAoepcmtUn4qeZ-348" value="&lt;font style=&quot;font-size: 30px;&quot;&gt;&amp;gt;&lt;/font&gt;" style="edgeLabel;html=1;align=center;verticalAlign=middle;resizable=0;points=[];labelBackgroundColor=none;fontColor=#393C56;" vertex="1" connectable="0" parent="el4SjzeAoepcmtUn4qeZ-347">
          <mxGeometry x="-0.1129" relative="1" as="geometry">
            <mxPoint as="offset" />
          </mxGeometry>
        </mxCell>
        <mxCell id="el4SjzeAoepcmtUn4qeZ-349" value="&lt;span style=&quot;font-size: 20px;&quot;&gt;A[1]:A[5]&lt;/span&gt;" style="rounded=1;whiteSpace=wrap;html=1;labelBackgroundColor=none;fillColor=#F2CC8F;strokeColor=#E07A5F;fontColor=#393C56;" vertex="1" parent="1">
          <mxGeometry x="2290" y="1740.27" width="120" height="40" as="geometry" />
        </mxCell>
        <mxCell id="el4SjzeAoepcmtUn4qeZ-350" value="" style="endArrow=classic;html=1;rounded=0;exitX=0.25;exitY=1;exitDx=0;exitDy=0;entryX=0.583;entryY=0;entryDx=0;entryDy=0;entryPerimeter=0;labelBackgroundColor=none;strokeColor=#E07A5F;fontColor=default;" edge="1" target="el4SjzeAoepcmtUn4qeZ-353" parent="1">
          <mxGeometry width="50" height="50" relative="1" as="geometry">
            <mxPoint x="2320" y="1780.38" as="sourcePoint" />
            <mxPoint x="2290" y="1840.38" as="targetPoint" />
            <Array as="points" />
          </mxGeometry>
        </mxCell>
        <mxCell id="el4SjzeAoepcmtUn4qeZ-351" value="&lt;font style=&quot;font-size: 31px;&quot;&gt;&amp;lt;&lt;/font&gt;" style="edgeLabel;html=1;align=center;verticalAlign=middle;resizable=0;points=[];labelBackgroundColor=none;fontColor=#393C56;" vertex="1" connectable="0" parent="el4SjzeAoepcmtUn4qeZ-350">
          <mxGeometry x="-0.1467" y="1" relative="1" as="geometry">
            <mxPoint as="offset" />
          </mxGeometry>
        </mxCell>
        <mxCell id="el4SjzeAoepcmtUn4qeZ-352" value="" style="endArrow=classic;html=1;rounded=0;exitX=0.75;exitY=1;exitDx=0;exitDy=0;entryX=0.417;entryY=0;entryDx=0;entryDy=0;entryPerimeter=0;labelBackgroundColor=none;strokeColor=#E07A5F;fontColor=default;" edge="1" parent="1">
          <mxGeometry width="50" height="50" relative="1" as="geometry">
            <mxPoint x="2380" y="1780.38" as="sourcePoint" />
            <mxPoint x="2640.04" y="1860.38" as="targetPoint" />
          </mxGeometry>
        </mxCell>
        <mxCell id="el4SjzeAoepcmtUn4qeZ-353" value="&lt;span style=&quot;font-size: 20px;&quot;&gt;A[1]:A[3]&lt;/span&gt;" style="rounded=1;whiteSpace=wrap;html=1;labelBackgroundColor=none;fillColor=#F2CC8F;strokeColor=#E07A5F;fontColor=#393C56;" vertex="1" parent="1">
          <mxGeometry x="1240" y="1928.24" width="120" height="40" as="geometry" />
        </mxCell>
        <mxCell id="el4SjzeAoepcmtUn4qeZ-354" value="" style="endArrow=classic;html=1;rounded=0;exitX=0.25;exitY=1;exitDx=0;exitDy=0;entryX=0.583;entryY=0;entryDx=0;entryDy=0;entryPerimeter=0;labelBackgroundColor=none;strokeColor=#E07A5F;fontColor=default;" edge="1" target="el4SjzeAoepcmtUn4qeZ-358" parent="1">
          <mxGeometry width="50" height="50" relative="1" as="geometry">
            <mxPoint x="1260" y="1968.24" as="sourcePoint" />
            <mxPoint x="1230" y="2028.24" as="targetPoint" />
            <Array as="points" />
          </mxGeometry>
        </mxCell>
        <mxCell id="el4SjzeAoepcmtUn4qeZ-355" value="&lt;font style=&quot;font-size: 31px;&quot;&gt;&amp;lt;&lt;/font&gt;" style="edgeLabel;html=1;align=center;verticalAlign=middle;resizable=0;points=[];labelBackgroundColor=none;fontColor=#393C56;" vertex="1" connectable="0" parent="el4SjzeAoepcmtUn4qeZ-354">
          <mxGeometry x="-0.1467" y="1" relative="1" as="geometry">
            <mxPoint as="offset" />
          </mxGeometry>
        </mxCell>
        <mxCell id="el4SjzeAoepcmtUn4qeZ-356" value="" style="endArrow=classic;html=1;rounded=0;exitX=0.75;exitY=1;exitDx=0;exitDy=0;entryX=0.417;entryY=0;entryDx=0;entryDy=0;entryPerimeter=0;labelBackgroundColor=none;strokeColor=#E07A5F;fontColor=default;" edge="1" target="el4SjzeAoepcmtUn4qeZ-359" parent="1">
          <mxGeometry width="50" height="50" relative="1" as="geometry">
            <mxPoint x="1320" y="1968.24" as="sourcePoint" />
            <mxPoint x="1340" y="2028.24" as="targetPoint" />
          </mxGeometry>
        </mxCell>
        <mxCell id="el4SjzeAoepcmtUn4qeZ-357" value="&lt;font style=&quot;font-size: 30px;&quot;&gt;&amp;gt;&lt;/font&gt;" style="edgeLabel;html=1;align=center;verticalAlign=middle;resizable=0;points=[];labelBackgroundColor=none;fontColor=#393C56;" vertex="1" connectable="0" parent="el4SjzeAoepcmtUn4qeZ-356">
          <mxGeometry x="-0.1129" relative="1" as="geometry">
            <mxPoint as="offset" />
          </mxGeometry>
        </mxCell>
        <mxCell id="el4SjzeAoepcmtUn4qeZ-358" value="&lt;span style=&quot;font-size: 20px;&quot;&gt;A[3]:A[5]&lt;/span&gt;" style="rounded=1;whiteSpace=wrap;html=1;labelBackgroundColor=none;fillColor=#F2CC8F;strokeColor=#E07A5F;fontColor=#393C56;" vertex="1" parent="1">
          <mxGeometry x="810" y="2073.2400000000002" width="120" height="40" as="geometry" />
        </mxCell>
        <mxCell id="el4SjzeAoepcmtUn4qeZ-359" value="&lt;span style=&quot;font-size: 20px;&quot;&gt;A[1]:A[4]&lt;/span&gt;" style="rounded=1;whiteSpace=wrap;html=1;labelBackgroundColor=none;fillColor=#F2CC8F;strokeColor=#E07A5F;fontColor=#393C56;" vertex="1" parent="1">
          <mxGeometry x="1530" y="2048.2400000000002" width="120" height="40" as="geometry" />
        </mxCell>
        <mxCell id="el4SjzeAoepcmtUn4qeZ-360" value="" style="endArrow=classic;html=1;rounded=0;exitX=0.25;exitY=1;exitDx=0;exitDy=0;entryX=0.583;entryY=0;entryDx=0;entryDy=0;entryPerimeter=0;labelBackgroundColor=none;strokeColor=#E07A5F;fontColor=default;" edge="1" target="el4SjzeAoepcmtUn4qeZ-364" parent="1">
          <mxGeometry width="50" height="50" relative="1" as="geometry">
            <mxPoint x="830" y="2113.2400000000002" as="sourcePoint" />
            <mxPoint x="800" y="2173.2400000000002" as="targetPoint" />
            <Array as="points" />
          </mxGeometry>
        </mxCell>
        <mxCell id="el4SjzeAoepcmtUn4qeZ-361" value="&lt;font style=&quot;font-size: 31px;&quot;&gt;&amp;lt;&lt;/font&gt;" style="edgeLabel;html=1;align=center;verticalAlign=middle;resizable=0;points=[];labelBackgroundColor=none;fontColor=#393C56;" vertex="1" connectable="0" parent="el4SjzeAoepcmtUn4qeZ-360">
          <mxGeometry x="-0.1467" y="1" relative="1" as="geometry">
            <mxPoint as="offset" />
          </mxGeometry>
        </mxCell>
        <mxCell id="el4SjzeAoepcmtUn4qeZ-362" value="" style="endArrow=classic;html=1;rounded=0;exitX=0.75;exitY=1;exitDx=0;exitDy=0;entryX=0.417;entryY=0;entryDx=0;entryDy=0;entryPerimeter=0;labelBackgroundColor=none;strokeColor=#E07A5F;fontColor=default;" edge="1" target="el4SjzeAoepcmtUn4qeZ-365" parent="1">
          <mxGeometry width="50" height="50" relative="1" as="geometry">
            <mxPoint x="890" y="2113.2400000000002" as="sourcePoint" />
            <mxPoint x="910" y="2173.2400000000002" as="targetPoint" />
          </mxGeometry>
        </mxCell>
        <mxCell id="el4SjzeAoepcmtUn4qeZ-363" value="&lt;font style=&quot;font-size: 30px;&quot;&gt;&amp;gt;&lt;/font&gt;" style="edgeLabel;html=1;align=center;verticalAlign=middle;resizable=0;points=[];labelBackgroundColor=none;fontColor=#393C56;" vertex="1" connectable="0" parent="el4SjzeAoepcmtUn4qeZ-362">
          <mxGeometry x="-0.1129" relative="1" as="geometry">
            <mxPoint as="offset" />
          </mxGeometry>
        </mxCell>
        <mxCell id="el4SjzeAoepcmtUn4qeZ-364" value="&lt;span style=&quot;font-size: 20px;&quot;&gt;A[3] is Med.&lt;/span&gt;" style="rounded=1;whiteSpace=wrap;html=1;labelBackgroundColor=none;fillColor=#F2CC8F;strokeColor=#E07A5F;fontColor=#393C56;" vertex="1" parent="1">
          <mxGeometry x="540" y="2193.2400000000002" width="120" height="40" as="geometry" />
        </mxCell>
        <mxCell id="el4SjzeAoepcmtUn4qeZ-365" value="&lt;span style=&quot;font-size: 20px;&quot;&gt;A[5] is Med.&lt;/span&gt;" style="rounded=1;whiteSpace=wrap;html=1;labelBackgroundColor=none;fillColor=#F2CC8F;strokeColor=#E07A5F;fontColor=#393C56;" vertex="1" parent="1">
          <mxGeometry x="1100" y="2193.2400000000002" width="120" height="40" as="geometry" />
        </mxCell>
        <mxCell id="el4SjzeAoepcmtUn4qeZ-366" value="" style="endArrow=classic;html=1;rounded=0;exitX=0.25;exitY=1;exitDx=0;exitDy=0;entryX=0.583;entryY=0;entryDx=0;entryDy=0;entryPerimeter=0;labelBackgroundColor=none;strokeColor=#E07A5F;fontColor=default;" edge="1" target="el4SjzeAoepcmtUn4qeZ-370" parent="1">
          <mxGeometry width="50" height="50" relative="1" as="geometry">
            <mxPoint x="1580" y="2088.2400000000002" as="sourcePoint" />
            <mxPoint x="1550" y="2148.2400000000002" as="targetPoint" />
            <Array as="points" />
          </mxGeometry>
        </mxCell>
        <mxCell id="el4SjzeAoepcmtUn4qeZ-367" value="&lt;font style=&quot;font-size: 31px;&quot;&gt;&amp;lt;&lt;/font&gt;" style="edgeLabel;html=1;align=center;verticalAlign=middle;resizable=0;points=[];labelBackgroundColor=none;fontColor=#393C56;" vertex="1" connectable="0" parent="el4SjzeAoepcmtUn4qeZ-366">
          <mxGeometry x="-0.1467" y="1" relative="1" as="geometry">
            <mxPoint as="offset" />
          </mxGeometry>
        </mxCell>
        <mxCell id="el4SjzeAoepcmtUn4qeZ-368" value="" style="endArrow=classic;html=1;rounded=0;exitX=0.75;exitY=1;exitDx=0;exitDy=0;entryX=0.417;entryY=0;entryDx=0;entryDy=0;entryPerimeter=0;labelBackgroundColor=none;strokeColor=#E07A5F;fontColor=default;" edge="1" target="el4SjzeAoepcmtUn4qeZ-371" parent="1">
          <mxGeometry width="50" height="50" relative="1" as="geometry">
            <mxPoint x="1640" y="2088.2400000000002" as="sourcePoint" />
            <mxPoint x="1660" y="2148.2400000000002" as="targetPoint" />
          </mxGeometry>
        </mxCell>
        <mxCell id="el4SjzeAoepcmtUn4qeZ-369" value="&lt;font style=&quot;font-size: 30px;&quot;&gt;&amp;gt;&lt;/font&gt;" style="edgeLabel;html=1;align=center;verticalAlign=middle;resizable=0;points=[];labelBackgroundColor=none;fontColor=#393C56;" vertex="1" connectable="0" parent="el4SjzeAoepcmtUn4qeZ-368">
          <mxGeometry x="-0.1129" relative="1" as="geometry">
            <mxPoint as="offset" />
          </mxGeometry>
        </mxCell>
        <mxCell id="el4SjzeAoepcmtUn4qeZ-370" value="&lt;span style=&quot;font-size: 20px;&quot;&gt;A[1] is Med.&lt;/span&gt;" style="rounded=1;whiteSpace=wrap;html=1;labelBackgroundColor=none;fillColor=#F2CC8F;strokeColor=#E07A5F;fontColor=#393C56;" vertex="1" parent="1">
          <mxGeometry x="1390" y="2183.2400000000002" width="120" height="40" as="geometry" />
        </mxCell>
        <mxCell id="el4SjzeAoepcmtUn4qeZ-371" value="&lt;span style=&quot;font-size: 20px;&quot;&gt;A[4] is Med.&lt;/span&gt;" style="rounded=1;whiteSpace=wrap;html=1;labelBackgroundColor=none;fillColor=#F2CC8F;strokeColor=#E07A5F;fontColor=#393C56;" vertex="1" parent="1">
          <mxGeometry x="1680" y="2193.2400000000002" width="120" height="40" as="geometry" />
        </mxCell>
        <mxCell id="el4SjzeAoepcmtUn4qeZ-372" value="&lt;font style=&quot;font-size: 30px;&quot;&gt;&amp;gt;&lt;/font&gt;" style="edgeLabel;html=1;align=center;verticalAlign=middle;resizable=0;points=[];labelBackgroundColor=none;fontColor=#393C56;" vertex="1" connectable="0" parent="1">
          <mxGeometry x="2529.995006792089" y="1826.4753428063646" as="geometry" />
        </mxCell>
        <mxCell id="el4SjzeAoepcmtUn4qeZ-373" value="&lt;span style=&quot;font-size: 20px;&quot;&gt;A[3]:A[5]&lt;/span&gt;" style="rounded=1;whiteSpace=wrap;html=1;labelBackgroundColor=none;fillColor=#F2CC8F;strokeColor=#E07A5F;fontColor=#393C56;" vertex="1" parent="1">
          <mxGeometry x="2580" y="1859.98" width="120" height="40" as="geometry" />
        </mxCell>
        <mxCell id="el4SjzeAoepcmtUn4qeZ-374" value="" style="endArrow=classic;html=1;rounded=0;exitX=0.25;exitY=1;exitDx=0;exitDy=0;entryX=0.583;entryY=0;entryDx=0;entryDy=0;entryPerimeter=0;labelBackgroundColor=none;strokeColor=#E07A5F;fontColor=default;" edge="1" target="el4SjzeAoepcmtUn4qeZ-378" parent="1">
          <mxGeometry width="50" height="50" relative="1" as="geometry">
            <mxPoint x="2600" y="1899.98" as="sourcePoint" />
            <mxPoint x="2570" y="1959.98" as="targetPoint" />
            <Array as="points" />
          </mxGeometry>
        </mxCell>
        <mxCell id="el4SjzeAoepcmtUn4qeZ-375" value="&lt;font style=&quot;font-size: 31px;&quot;&gt;&amp;lt;&lt;/font&gt;" style="edgeLabel;html=1;align=center;verticalAlign=middle;resizable=0;points=[];labelBackgroundColor=none;fontColor=#393C56;" vertex="1" connectable="0" parent="el4SjzeAoepcmtUn4qeZ-374">
          <mxGeometry x="-0.1467" y="1" relative="1" as="geometry">
            <mxPoint as="offset" />
          </mxGeometry>
        </mxCell>
        <mxCell id="el4SjzeAoepcmtUn4qeZ-376" value="" style="endArrow=classic;html=1;rounded=0;exitX=0.75;exitY=1;exitDx=0;exitDy=0;entryX=0.417;entryY=0;entryDx=0;entryDy=0;entryPerimeter=0;labelBackgroundColor=none;strokeColor=#E07A5F;fontColor=default;" edge="1" target="el4SjzeAoepcmtUn4qeZ-379" parent="1">
          <mxGeometry width="50" height="50" relative="1" as="geometry">
            <mxPoint x="2660" y="1899.98" as="sourcePoint" />
            <mxPoint x="2680" y="1959.98" as="targetPoint" />
          </mxGeometry>
        </mxCell>
        <mxCell id="el4SjzeAoepcmtUn4qeZ-377" value="&lt;font style=&quot;font-size: 30px;&quot;&gt;&amp;gt;&lt;/font&gt;" style="edgeLabel;html=1;align=center;verticalAlign=middle;resizable=0;points=[];labelBackgroundColor=none;fontColor=#393C56;" vertex="1" connectable="0" parent="el4SjzeAoepcmtUn4qeZ-376">
          <mxGeometry x="-0.1129" relative="1" as="geometry">
            <mxPoint as="offset" />
          </mxGeometry>
        </mxCell>
        <mxCell id="el4SjzeAoepcmtUn4qeZ-378" value="&lt;span style=&quot;font-size: 20px;&quot;&gt;A[4]:A[5]&lt;/span&gt;" style="rounded=1;whiteSpace=wrap;html=1;labelBackgroundColor=none;fillColor=#F2CC8F;strokeColor=#E07A5F;fontColor=#393C56;" vertex="1" parent="1">
          <mxGeometry x="2150" y="2004.9800000000002" width="120" height="40" as="geometry" />
        </mxCell>
        <mxCell id="el4SjzeAoepcmtUn4qeZ-379" value="&lt;span style=&quot;font-size: 20px;&quot;&gt;A[1]:A[3]&lt;/span&gt;" style="rounded=1;whiteSpace=wrap;html=1;labelBackgroundColor=none;fillColor=#F2CC8F;strokeColor=#E07A5F;fontColor=#393C56;" vertex="1" parent="1">
          <mxGeometry x="2870" y="1979.9800000000002" width="120" height="40" as="geometry" />
        </mxCell>
        <mxCell id="el4SjzeAoepcmtUn4qeZ-380" value="" style="endArrow=classic;html=1;rounded=0;exitX=0.25;exitY=1;exitDx=0;exitDy=0;entryX=0.583;entryY=0;entryDx=0;entryDy=0;entryPerimeter=0;labelBackgroundColor=none;strokeColor=#E07A5F;fontColor=default;" edge="1" target="el4SjzeAoepcmtUn4qeZ-384" parent="1">
          <mxGeometry width="50" height="50" relative="1" as="geometry">
            <mxPoint x="2170" y="2044.9800000000002" as="sourcePoint" />
            <mxPoint x="2140" y="2104.9800000000005" as="targetPoint" />
            <Array as="points" />
          </mxGeometry>
        </mxCell>
        <mxCell id="el4SjzeAoepcmtUn4qeZ-381" value="&lt;font style=&quot;font-size: 31px;&quot;&gt;&amp;lt;&lt;/font&gt;" style="edgeLabel;html=1;align=center;verticalAlign=middle;resizable=0;points=[];labelBackgroundColor=none;fontColor=#393C56;" vertex="1" connectable="0" parent="el4SjzeAoepcmtUn4qeZ-380">
          <mxGeometry x="-0.1467" y="1" relative="1" as="geometry">
            <mxPoint as="offset" />
          </mxGeometry>
        </mxCell>
        <mxCell id="el4SjzeAoepcmtUn4qeZ-382" value="" style="endArrow=classic;html=1;rounded=0;exitX=0.75;exitY=1;exitDx=0;exitDy=0;entryX=0.417;entryY=0;entryDx=0;entryDy=0;entryPerimeter=0;labelBackgroundColor=none;strokeColor=#E07A5F;fontColor=default;" edge="1" target="el4SjzeAoepcmtUn4qeZ-385" parent="1">
          <mxGeometry width="50" height="50" relative="1" as="geometry">
            <mxPoint x="2230" y="2044.9800000000002" as="sourcePoint" />
            <mxPoint x="2250" y="2104.9800000000005" as="targetPoint" />
          </mxGeometry>
        </mxCell>
        <mxCell id="el4SjzeAoepcmtUn4qeZ-383" value="&lt;font style=&quot;font-size: 30px;&quot;&gt;&amp;gt;&lt;/font&gt;" style="edgeLabel;html=1;align=center;verticalAlign=middle;resizable=0;points=[];labelBackgroundColor=none;fontColor=#393C56;" vertex="1" connectable="0" parent="el4SjzeAoepcmtUn4qeZ-382">
          <mxGeometry x="-0.1129" relative="1" as="geometry">
            <mxPoint as="offset" />
          </mxGeometry>
        </mxCell>
        <mxCell id="el4SjzeAoepcmtUn4qeZ-384" value="&lt;span style=&quot;font-size: 20px;&quot;&gt;A[4] is Med.&lt;/span&gt;" style="rounded=1;whiteSpace=wrap;html=1;labelBackgroundColor=none;fillColor=#F2CC8F;strokeColor=#E07A5F;fontColor=#393C56;" vertex="1" parent="1">
          <mxGeometry x="1880" y="2124.9800000000005" width="120" height="40" as="geometry" />
        </mxCell>
        <mxCell id="el4SjzeAoepcmtUn4qeZ-385" value="&lt;span style=&quot;font-size: 20px;&quot;&gt;A[5] is Med.&lt;/span&gt;" style="rounded=1;whiteSpace=wrap;html=1;labelBackgroundColor=none;fillColor=#F2CC8F;strokeColor=#E07A5F;fontColor=#393C56;" vertex="1" parent="1">
          <mxGeometry x="2440" y="2124.9800000000005" width="120" height="40" as="geometry" />
        </mxCell>
        <mxCell id="el4SjzeAoepcmtUn4qeZ-386" value="" style="endArrow=classic;html=1;rounded=0;exitX=0.25;exitY=1;exitDx=0;exitDy=0;entryX=0.583;entryY=0;entryDx=0;entryDy=0;entryPerimeter=0;labelBackgroundColor=none;strokeColor=#E07A5F;fontColor=default;" edge="1" target="el4SjzeAoepcmtUn4qeZ-390" parent="1">
          <mxGeometry width="50" height="50" relative="1" as="geometry">
            <mxPoint x="2920" y="2019.9800000000002" as="sourcePoint" />
            <mxPoint x="2890" y="2079.9800000000005" as="targetPoint" />
            <Array as="points" />
          </mxGeometry>
        </mxCell>
        <mxCell id="el4SjzeAoepcmtUn4qeZ-387" value="&lt;font style=&quot;font-size: 31px;&quot;&gt;&amp;lt;&lt;/font&gt;" style="edgeLabel;html=1;align=center;verticalAlign=middle;resizable=0;points=[];labelBackgroundColor=none;fontColor=#393C56;" vertex="1" connectable="0" parent="el4SjzeAoepcmtUn4qeZ-386">
          <mxGeometry x="-0.1467" y="1" relative="1" as="geometry">
            <mxPoint as="offset" />
          </mxGeometry>
        </mxCell>
        <mxCell id="el4SjzeAoepcmtUn4qeZ-388" value="" style="endArrow=classic;html=1;rounded=0;exitX=0.75;exitY=1;exitDx=0;exitDy=0;entryX=0.417;entryY=0;entryDx=0;entryDy=0;entryPerimeter=0;labelBackgroundColor=none;strokeColor=#E07A5F;fontColor=default;" edge="1" target="el4SjzeAoepcmtUn4qeZ-391" parent="1">
          <mxGeometry width="50" height="50" relative="1" as="geometry">
            <mxPoint x="2980" y="2019.9800000000002" as="sourcePoint" />
            <mxPoint x="3000" y="2079.9800000000005" as="targetPoint" />
          </mxGeometry>
        </mxCell>
        <mxCell id="el4SjzeAoepcmtUn4qeZ-389" value="&lt;font style=&quot;font-size: 30px;&quot;&gt;&amp;gt;&lt;/font&gt;" style="edgeLabel;html=1;align=center;verticalAlign=middle;resizable=0;points=[];labelBackgroundColor=none;fontColor=#393C56;" vertex="1" connectable="0" parent="el4SjzeAoepcmtUn4qeZ-388">
          <mxGeometry x="-0.1129" relative="1" as="geometry">
            <mxPoint as="offset" />
          </mxGeometry>
        </mxCell>
        <mxCell id="el4SjzeAoepcmtUn4qeZ-390" value="&lt;span style=&quot;font-size: 20px;&quot;&gt;A[1] is Med.&lt;/span&gt;" style="rounded=1;whiteSpace=wrap;html=1;labelBackgroundColor=none;fillColor=#F2CC8F;strokeColor=#E07A5F;fontColor=#393C56;" vertex="1" parent="1">
          <mxGeometry x="2730" y="2114.9800000000005" width="120" height="40" as="geometry" />
        </mxCell>
        <mxCell id="el4SjzeAoepcmtUn4qeZ-391" value="&lt;span style=&quot;font-size: 20px;&quot;&gt;A[3] is Med.&lt;/span&gt;" style="rounded=1;whiteSpace=wrap;html=1;labelBackgroundColor=none;fillColor=#F2CC8F;strokeColor=#E07A5F;fontColor=#393C56;" vertex="1" parent="1">
          <mxGeometry x="3020" y="2124.9800000000005" width="120" height="40" as="geometry" />
        </mxCell>
        <mxCell id="el4SjzeAoepcmtUn4qeZ-392" value="&lt;span style=&quot;font-size: 20px;&quot;&gt;A[4]:A[5]&lt;/span&gt;" style="rounded=1;whiteSpace=wrap;html=1;labelBackgroundColor=none;fillColor=#F2CC8F;strokeColor=#E07A5F;fontColor=#393C56;" vertex="1" parent="1">
          <mxGeometry x="4938" y="1753.49" width="120" height="40" as="geometry" />
        </mxCell>
        <mxCell id="el4SjzeAoepcmtUn4qeZ-393" value="" style="endArrow=classic;html=1;rounded=0;exitX=0.25;exitY=1;exitDx=0;exitDy=0;entryX=0.583;entryY=0;entryDx=0;entryDy=0;entryPerimeter=0;labelBackgroundColor=none;strokeColor=#E07A5F;fontColor=default;" edge="1" target="el4SjzeAoepcmtUn4qeZ-396" parent="1">
          <mxGeometry width="50" height="50" relative="1" as="geometry">
            <mxPoint x="4968" y="1793.6000000000001" as="sourcePoint" />
            <mxPoint x="4938" y="1853.6000000000001" as="targetPoint" />
            <Array as="points" />
          </mxGeometry>
        </mxCell>
        <mxCell id="el4SjzeAoepcmtUn4qeZ-394" value="&lt;font style=&quot;font-size: 31px;&quot;&gt;&amp;lt;&lt;/font&gt;" style="edgeLabel;html=1;align=center;verticalAlign=middle;resizable=0;points=[];labelBackgroundColor=none;fontColor=#393C56;" vertex="1" connectable="0" parent="el4SjzeAoepcmtUn4qeZ-393">
          <mxGeometry x="-0.1467" y="1" relative="1" as="geometry">
            <mxPoint as="offset" />
          </mxGeometry>
        </mxCell>
        <mxCell id="el4SjzeAoepcmtUn4qeZ-395" value="" style="endArrow=classic;html=1;rounded=0;exitX=0.75;exitY=1;exitDx=0;exitDy=0;entryX=0.417;entryY=0;entryDx=0;entryDy=0;entryPerimeter=0;labelBackgroundColor=none;strokeColor=#E07A5F;fontColor=default;" edge="1" parent="1">
          <mxGeometry width="50" height="50" relative="1" as="geometry">
            <mxPoint x="5028" y="1793.6000000000001" as="sourcePoint" />
            <mxPoint x="5288.04" y="1873.6000000000001" as="targetPoint" />
          </mxGeometry>
        </mxCell>
        <mxCell id="el4SjzeAoepcmtUn4qeZ-396" value="&lt;span style=&quot;font-size: 20px;&quot;&gt;A[2]:A[4]&lt;/span&gt;" style="rounded=1;whiteSpace=wrap;html=1;labelBackgroundColor=none;fillColor=#F2CC8F;strokeColor=#E07A5F;fontColor=#393C56;" vertex="1" parent="1">
          <mxGeometry x="3888" y="1941.46" width="120" height="40" as="geometry" />
        </mxCell>
        <mxCell id="el4SjzeAoepcmtUn4qeZ-397" value="" style="endArrow=classic;html=1;rounded=0;exitX=0.25;exitY=1;exitDx=0;exitDy=0;entryX=0.583;entryY=0;entryDx=0;entryDy=0;entryPerimeter=0;labelBackgroundColor=none;strokeColor=#E07A5F;fontColor=default;" edge="1" target="el4SjzeAoepcmtUn4qeZ-401" parent="1">
          <mxGeometry width="50" height="50" relative="1" as="geometry">
            <mxPoint x="3908" y="1981.46" as="sourcePoint" />
            <mxPoint x="3878" y="2041.46" as="targetPoint" />
            <Array as="points" />
          </mxGeometry>
        </mxCell>
        <mxCell id="el4SjzeAoepcmtUn4qeZ-398" value="&lt;font style=&quot;font-size: 31px;&quot;&gt;&amp;lt;&lt;/font&gt;" style="edgeLabel;html=1;align=center;verticalAlign=middle;resizable=0;points=[];labelBackgroundColor=none;fontColor=#393C56;" vertex="1" connectable="0" parent="el4SjzeAoepcmtUn4qeZ-397">
          <mxGeometry x="-0.1467" y="1" relative="1" as="geometry">
            <mxPoint as="offset" />
          </mxGeometry>
        </mxCell>
        <mxCell id="el4SjzeAoepcmtUn4qeZ-399" value="" style="endArrow=classic;html=1;rounded=0;exitX=0.75;exitY=1;exitDx=0;exitDy=0;entryX=0.417;entryY=0;entryDx=0;entryDy=0;entryPerimeter=0;labelBackgroundColor=none;strokeColor=#E07A5F;fontColor=default;" edge="1" target="el4SjzeAoepcmtUn4qeZ-402" parent="1">
          <mxGeometry width="50" height="50" relative="1" as="geometry">
            <mxPoint x="3968" y="1981.46" as="sourcePoint" />
            <mxPoint x="3988" y="2041.46" as="targetPoint" />
          </mxGeometry>
        </mxCell>
        <mxCell id="el4SjzeAoepcmtUn4qeZ-400" value="&lt;font style=&quot;font-size: 30px;&quot;&gt;&amp;gt;&lt;/font&gt;" style="edgeLabel;html=1;align=center;verticalAlign=middle;resizable=0;points=[];labelBackgroundColor=none;fontColor=#393C56;" vertex="1" connectable="0" parent="el4SjzeAoepcmtUn4qeZ-399">
          <mxGeometry x="-0.1129" relative="1" as="geometry">
            <mxPoint as="offset" />
          </mxGeometry>
        </mxCell>
        <mxCell id="el4SjzeAoepcmtUn4qeZ-401" value="&lt;span style=&quot;font-size: 20px;&quot;&gt;A[1]:A[5]&lt;/span&gt;" style="rounded=1;whiteSpace=wrap;html=1;labelBackgroundColor=none;fillColor=#F2CC8F;strokeColor=#E07A5F;fontColor=#393C56;" vertex="1" parent="1">
          <mxGeometry x="3458" y="2086.46" width="120" height="40" as="geometry" />
        </mxCell>
        <mxCell id="el4SjzeAoepcmtUn4qeZ-402" value="&lt;span style=&quot;font-size: 20px;&quot;&gt;A[2]:A[5]&lt;/span&gt;" style="rounded=1;whiteSpace=wrap;html=1;labelBackgroundColor=none;fillColor=#F2CC8F;strokeColor=#E07A5F;fontColor=#393C56;" vertex="1" parent="1">
          <mxGeometry x="4178" y="2061.46" width="120" height="40" as="geometry" />
        </mxCell>
        <mxCell id="el4SjzeAoepcmtUn4qeZ-403" value="" style="endArrow=classic;html=1;rounded=0;exitX=0.25;exitY=1;exitDx=0;exitDy=0;entryX=0.583;entryY=0;entryDx=0;entryDy=0;entryPerimeter=0;labelBackgroundColor=none;strokeColor=#E07A5F;fontColor=default;" edge="1" target="el4SjzeAoepcmtUn4qeZ-407" parent="1">
          <mxGeometry width="50" height="50" relative="1" as="geometry">
            <mxPoint x="3478" y="2126.46" as="sourcePoint" />
            <mxPoint x="3448" y="2186.46" as="targetPoint" />
            <Array as="points" />
          </mxGeometry>
        </mxCell>
        <mxCell id="el4SjzeAoepcmtUn4qeZ-404" value="&lt;font style=&quot;font-size: 31px;&quot;&gt;&amp;lt;&lt;/font&gt;" style="edgeLabel;html=1;align=center;verticalAlign=middle;resizable=0;points=[];labelBackgroundColor=none;fontColor=#393C56;" vertex="1" connectable="0" parent="el4SjzeAoepcmtUn4qeZ-403">
          <mxGeometry x="-0.1467" y="1" relative="1" as="geometry">
            <mxPoint as="offset" />
          </mxGeometry>
        </mxCell>
        <mxCell id="el4SjzeAoepcmtUn4qeZ-405" value="" style="endArrow=classic;html=1;rounded=0;exitX=0.75;exitY=1;exitDx=0;exitDy=0;entryX=0.417;entryY=0;entryDx=0;entryDy=0;entryPerimeter=0;labelBackgroundColor=none;strokeColor=#E07A5F;fontColor=default;" edge="1" target="el4SjzeAoepcmtUn4qeZ-408" parent="1">
          <mxGeometry width="50" height="50" relative="1" as="geometry">
            <mxPoint x="3538" y="2126.46" as="sourcePoint" />
            <mxPoint x="3558" y="2186.46" as="targetPoint" />
          </mxGeometry>
        </mxCell>
        <mxCell id="el4SjzeAoepcmtUn4qeZ-406" value="&lt;font style=&quot;font-size: 30px;&quot;&gt;&amp;gt;&lt;/font&gt;" style="edgeLabel;html=1;align=center;verticalAlign=middle;resizable=0;points=[];labelBackgroundColor=none;fontColor=#393C56;" vertex="1" connectable="0" parent="el4SjzeAoepcmtUn4qeZ-405">
          <mxGeometry x="-0.1129" relative="1" as="geometry">
            <mxPoint as="offset" />
          </mxGeometry>
        </mxCell>
        <mxCell id="el4SjzeAoepcmtUn4qeZ-407" value="&lt;span style=&quot;font-size: 20px;&quot;&gt;A[1] is Med.&lt;/span&gt;" style="rounded=1;whiteSpace=wrap;html=1;labelBackgroundColor=none;fillColor=#F2CC8F;strokeColor=#E07A5F;fontColor=#393C56;" vertex="1" parent="1">
          <mxGeometry x="3188" y="2206.46" width="120" height="40" as="geometry" />
        </mxCell>
        <mxCell id="el4SjzeAoepcmtUn4qeZ-408" value="&lt;span style=&quot;font-size: 20px;&quot;&gt;A[5] is Med.&lt;/span&gt;" style="rounded=1;whiteSpace=wrap;html=1;labelBackgroundColor=none;fillColor=#F2CC8F;strokeColor=#E07A5F;fontColor=#393C56;" vertex="1" parent="1">
          <mxGeometry x="3748" y="2206.46" width="120" height="40" as="geometry" />
        </mxCell>
        <mxCell id="el4SjzeAoepcmtUn4qeZ-409" value="" style="endArrow=classic;html=1;rounded=0;exitX=0.25;exitY=1;exitDx=0;exitDy=0;entryX=0.583;entryY=0;entryDx=0;entryDy=0;entryPerimeter=0;labelBackgroundColor=none;strokeColor=#E07A5F;fontColor=default;" edge="1" target="el4SjzeAoepcmtUn4qeZ-413" parent="1">
          <mxGeometry width="50" height="50" relative="1" as="geometry">
            <mxPoint x="4228" y="2101.46" as="sourcePoint" />
            <mxPoint x="4198" y="2161.46" as="targetPoint" />
            <Array as="points" />
          </mxGeometry>
        </mxCell>
        <mxCell id="el4SjzeAoepcmtUn4qeZ-410" value="&lt;font style=&quot;font-size: 31px;&quot;&gt;&amp;lt;&lt;/font&gt;" style="edgeLabel;html=1;align=center;verticalAlign=middle;resizable=0;points=[];labelBackgroundColor=none;fontColor=#393C56;" vertex="1" connectable="0" parent="el4SjzeAoepcmtUn4qeZ-409">
          <mxGeometry x="-0.1467" y="1" relative="1" as="geometry">
            <mxPoint as="offset" />
          </mxGeometry>
        </mxCell>
        <mxCell id="el4SjzeAoepcmtUn4qeZ-411" value="" style="endArrow=classic;html=1;rounded=0;exitX=0.75;exitY=1;exitDx=0;exitDy=0;entryX=0.417;entryY=0;entryDx=0;entryDy=0;entryPerimeter=0;labelBackgroundColor=none;strokeColor=#E07A5F;fontColor=default;" edge="1" target="el4SjzeAoepcmtUn4qeZ-414" parent="1">
          <mxGeometry width="50" height="50" relative="1" as="geometry">
            <mxPoint x="4288" y="2101.46" as="sourcePoint" />
            <mxPoint x="4308" y="2161.46" as="targetPoint" />
          </mxGeometry>
        </mxCell>
        <mxCell id="el4SjzeAoepcmtUn4qeZ-412" value="&lt;font style=&quot;font-size: 30px;&quot;&gt;&amp;gt;&lt;/font&gt;" style="edgeLabel;html=1;align=center;verticalAlign=middle;resizable=0;points=[];labelBackgroundColor=none;fontColor=#393C56;" vertex="1" connectable="0" parent="el4SjzeAoepcmtUn4qeZ-411">
          <mxGeometry x="-0.1129" relative="1" as="geometry">
            <mxPoint as="offset" />
          </mxGeometry>
        </mxCell>
        <mxCell id="el4SjzeAoepcmtUn4qeZ-413" value="&lt;span style=&quot;font-size: 20px;&quot;&gt;A[2] is Med.&lt;/span&gt;" style="rounded=1;whiteSpace=wrap;html=1;labelBackgroundColor=none;fillColor=#F2CC8F;strokeColor=#E07A5F;fontColor=#393C56;" vertex="1" parent="1">
          <mxGeometry x="4038" y="2196.46" width="120" height="40" as="geometry" />
        </mxCell>
        <mxCell id="el4SjzeAoepcmtUn4qeZ-414" value="&lt;span style=&quot;font-size: 20px;&quot;&gt;A[5] is Med.&lt;/span&gt;" style="rounded=1;whiteSpace=wrap;html=1;labelBackgroundColor=none;fillColor=#F2CC8F;strokeColor=#E07A5F;fontColor=#393C56;" vertex="1" parent="1">
          <mxGeometry x="4328" y="2206.46" width="120" height="40" as="geometry" />
        </mxCell>
        <mxCell id="el4SjzeAoepcmtUn4qeZ-415" value="&lt;font style=&quot;font-size: 30px;&quot;&gt;&amp;gt;&lt;/font&gt;" style="edgeLabel;html=1;align=center;verticalAlign=middle;resizable=0;points=[];labelBackgroundColor=none;fontColor=#393C56;" vertex="1" connectable="0" parent="1">
          <mxGeometry x="5177.995006792089" y="1839.6953428063646" as="geometry" />
        </mxCell>
        <mxCell id="el4SjzeAoepcmtUn4qeZ-416" value="&lt;span style=&quot;font-size: 20px;&quot;&gt;A[2]:A[5]&lt;/span&gt;" style="rounded=1;whiteSpace=wrap;html=1;labelBackgroundColor=none;fillColor=#F2CC8F;strokeColor=#E07A5F;fontColor=#393C56;" vertex="1" parent="1">
          <mxGeometry x="5228" y="1873.2" width="120" height="40" as="geometry" />
        </mxCell>
        <mxCell id="el4SjzeAoepcmtUn4qeZ-417" value="" style="endArrow=classic;html=1;rounded=0;exitX=0.25;exitY=1;exitDx=0;exitDy=0;entryX=0.583;entryY=0;entryDx=0;entryDy=0;entryPerimeter=0;labelBackgroundColor=none;strokeColor=#E07A5F;fontColor=default;" edge="1" target="el4SjzeAoepcmtUn4qeZ-421" parent="1">
          <mxGeometry width="50" height="50" relative="1" as="geometry">
            <mxPoint x="5248" y="1913.2" as="sourcePoint" />
            <mxPoint x="5218" y="1973.2" as="targetPoint" />
            <Array as="points" />
          </mxGeometry>
        </mxCell>
        <mxCell id="el4SjzeAoepcmtUn4qeZ-418" value="&lt;font style=&quot;font-size: 31px;&quot;&gt;&amp;lt;&lt;/font&gt;" style="edgeLabel;html=1;align=center;verticalAlign=middle;resizable=0;points=[];labelBackgroundColor=none;fontColor=#393C56;" vertex="1" connectable="0" parent="el4SjzeAoepcmtUn4qeZ-417">
          <mxGeometry x="-0.1467" y="1" relative="1" as="geometry">
            <mxPoint as="offset" />
          </mxGeometry>
        </mxCell>
        <mxCell id="el4SjzeAoepcmtUn4qeZ-419" value="" style="endArrow=classic;html=1;rounded=0;exitX=0.75;exitY=1;exitDx=0;exitDy=0;entryX=0.417;entryY=0;entryDx=0;entryDy=0;entryPerimeter=0;labelBackgroundColor=none;strokeColor=#E07A5F;fontColor=default;" edge="1" target="el4SjzeAoepcmtUn4qeZ-422" parent="1">
          <mxGeometry width="50" height="50" relative="1" as="geometry">
            <mxPoint x="5308" y="1913.2" as="sourcePoint" />
            <mxPoint x="5328" y="1973.2" as="targetPoint" />
          </mxGeometry>
        </mxCell>
        <mxCell id="el4SjzeAoepcmtUn4qeZ-420" value="&lt;font style=&quot;font-size: 30px;&quot;&gt;&amp;gt;&lt;/font&gt;" style="edgeLabel;html=1;align=center;verticalAlign=middle;resizable=0;points=[];labelBackgroundColor=none;fontColor=#393C56;" vertex="1" connectable="0" parent="el4SjzeAoepcmtUn4qeZ-419">
          <mxGeometry x="-0.1129" relative="1" as="geometry">
            <mxPoint as="offset" />
          </mxGeometry>
        </mxCell>
        <mxCell id="el4SjzeAoepcmtUn4qeZ-421" value="&lt;span style=&quot;font-size: 20px;&quot;&gt;A[1]:A[5]&lt;/span&gt;" style="rounded=1;whiteSpace=wrap;html=1;labelBackgroundColor=none;fillColor=#F2CC8F;strokeColor=#E07A5F;fontColor=#393C56;" vertex="1" parent="1">
          <mxGeometry x="4798" y="2018.2000000000003" width="120" height="40" as="geometry" />
        </mxCell>
        <mxCell id="el4SjzeAoepcmtUn4qeZ-422" value="&lt;span style=&quot;font-size: 20px;&quot;&gt;A[2]:A[4]&lt;/span&gt;" style="rounded=1;whiteSpace=wrap;html=1;labelBackgroundColor=none;fillColor=#F2CC8F;strokeColor=#E07A5F;fontColor=#393C56;" vertex="1" parent="1">
          <mxGeometry x="5518" y="1993.2000000000003" width="120" height="40" as="geometry" />
        </mxCell>
        <mxCell id="el4SjzeAoepcmtUn4qeZ-423" value="" style="endArrow=classic;html=1;rounded=0;exitX=0.25;exitY=1;exitDx=0;exitDy=0;entryX=0.583;entryY=0;entryDx=0;entryDy=0;entryPerimeter=0;labelBackgroundColor=none;strokeColor=#E07A5F;fontColor=default;" edge="1" target="el4SjzeAoepcmtUn4qeZ-427" parent="1">
          <mxGeometry width="50" height="50" relative="1" as="geometry">
            <mxPoint x="4818" y="2058.2000000000003" as="sourcePoint" />
            <mxPoint x="4788" y="2118.2000000000003" as="targetPoint" />
            <Array as="points" />
          </mxGeometry>
        </mxCell>
        <mxCell id="el4SjzeAoepcmtUn4qeZ-424" value="&lt;font style=&quot;font-size: 31px;&quot;&gt;&amp;lt;&lt;/font&gt;" style="edgeLabel;html=1;align=center;verticalAlign=middle;resizable=0;points=[];labelBackgroundColor=none;fontColor=#393C56;" vertex="1" connectable="0" parent="el4SjzeAoepcmtUn4qeZ-423">
          <mxGeometry x="-0.1467" y="1" relative="1" as="geometry">
            <mxPoint as="offset" />
          </mxGeometry>
        </mxCell>
        <mxCell id="el4SjzeAoepcmtUn4qeZ-425" value="" style="endArrow=classic;html=1;rounded=0;exitX=0.75;exitY=1;exitDx=0;exitDy=0;entryX=0.417;entryY=0;entryDx=0;entryDy=0;entryPerimeter=0;labelBackgroundColor=none;strokeColor=#E07A5F;fontColor=default;" edge="1" target="el4SjzeAoepcmtUn4qeZ-428" parent="1">
          <mxGeometry width="50" height="50" relative="1" as="geometry">
            <mxPoint x="4878" y="2058.2000000000003" as="sourcePoint" />
            <mxPoint x="4898" y="2118.2000000000003" as="targetPoint" />
          </mxGeometry>
        </mxCell>
        <mxCell id="el4SjzeAoepcmtUn4qeZ-426" value="&lt;font style=&quot;font-size: 30px;&quot;&gt;&amp;gt;&lt;/font&gt;" style="edgeLabel;html=1;align=center;verticalAlign=middle;resizable=0;points=[];labelBackgroundColor=none;fontColor=#393C56;" vertex="1" connectable="0" parent="el4SjzeAoepcmtUn4qeZ-425">
          <mxGeometry x="-0.1129" relative="1" as="geometry">
            <mxPoint as="offset" />
          </mxGeometry>
        </mxCell>
        <mxCell id="el4SjzeAoepcmtUn4qeZ-427" value="&lt;span style=&quot;font-size: 20px;&quot;&gt;A[1] is Med.&lt;/span&gt;" style="rounded=1;whiteSpace=wrap;html=1;labelBackgroundColor=none;fillColor=#F2CC8F;strokeColor=#E07A5F;fontColor=#393C56;" vertex="1" parent="1">
          <mxGeometry x="4528" y="2138.2000000000003" width="120" height="40" as="geometry" />
        </mxCell>
        <mxCell id="el4SjzeAoepcmtUn4qeZ-428" value="&lt;span style=&quot;font-size: 20px;&quot;&gt;A[5] is Med.&lt;/span&gt;" style="rounded=1;whiteSpace=wrap;html=1;labelBackgroundColor=none;fillColor=#F2CC8F;strokeColor=#E07A5F;fontColor=#393C56;" vertex="1" parent="1">
          <mxGeometry x="5088" y="2138.2000000000003" width="120" height="40" as="geometry" />
        </mxCell>
        <mxCell id="el4SjzeAoepcmtUn4qeZ-429" value="" style="endArrow=classic;html=1;rounded=0;exitX=0.25;exitY=1;exitDx=0;exitDy=0;entryX=0.583;entryY=0;entryDx=0;entryDy=0;entryPerimeter=0;labelBackgroundColor=none;strokeColor=#E07A5F;fontColor=default;" edge="1" target="el4SjzeAoepcmtUn4qeZ-433" parent="1">
          <mxGeometry width="50" height="50" relative="1" as="geometry">
            <mxPoint x="5568" y="2033.2000000000003" as="sourcePoint" />
            <mxPoint x="5538" y="2093.2000000000003" as="targetPoint" />
            <Array as="points" />
          </mxGeometry>
        </mxCell>
        <mxCell id="el4SjzeAoepcmtUn4qeZ-430" value="&lt;font style=&quot;font-size: 31px;&quot;&gt;&amp;lt;&lt;/font&gt;" style="edgeLabel;html=1;align=center;verticalAlign=middle;resizable=0;points=[];labelBackgroundColor=none;fontColor=#393C56;" vertex="1" connectable="0" parent="el4SjzeAoepcmtUn4qeZ-429">
          <mxGeometry x="-0.1467" y="1" relative="1" as="geometry">
            <mxPoint as="offset" />
          </mxGeometry>
        </mxCell>
        <mxCell id="el4SjzeAoepcmtUn4qeZ-431" value="" style="endArrow=classic;html=1;rounded=0;exitX=0.75;exitY=1;exitDx=0;exitDy=0;entryX=0.417;entryY=0;entryDx=0;entryDy=0;entryPerimeter=0;labelBackgroundColor=none;strokeColor=#E07A5F;fontColor=default;" edge="1" target="el4SjzeAoepcmtUn4qeZ-434" parent="1">
          <mxGeometry width="50" height="50" relative="1" as="geometry">
            <mxPoint x="5628" y="2033.2000000000003" as="sourcePoint" />
            <mxPoint x="5648" y="2093.2000000000003" as="targetPoint" />
          </mxGeometry>
        </mxCell>
        <mxCell id="el4SjzeAoepcmtUn4qeZ-432" value="&lt;font style=&quot;font-size: 30px;&quot;&gt;&amp;gt;&lt;/font&gt;" style="edgeLabel;html=1;align=center;verticalAlign=middle;resizable=0;points=[];labelBackgroundColor=none;fontColor=#393C56;" vertex="1" connectable="0" parent="el4SjzeAoepcmtUn4qeZ-431">
          <mxGeometry x="-0.1129" relative="1" as="geometry">
            <mxPoint as="offset" />
          </mxGeometry>
        </mxCell>
        <mxCell id="el4SjzeAoepcmtUn4qeZ-433" value="&lt;span style=&quot;font-size: 20px;&quot;&gt;A[2] is Med.&lt;/span&gt;" style="rounded=1;whiteSpace=wrap;html=1;labelBackgroundColor=none;fillColor=#F2CC8F;strokeColor=#E07A5F;fontColor=#393C56;" vertex="1" parent="1">
          <mxGeometry x="5378" y="2128.2000000000003" width="120" height="40" as="geometry" />
        </mxCell>
        <mxCell id="el4SjzeAoepcmtUn4qeZ-434" value="&lt;span style=&quot;font-size: 20px;&quot;&gt;A[4] is Med.&lt;/span&gt;" style="rounded=1;whiteSpace=wrap;html=1;labelBackgroundColor=none;fillColor=#F2CC8F;strokeColor=#E07A5F;fontColor=#393C56;" vertex="1" parent="1">
          <mxGeometry x="5668" y="2138.2000000000003" width="120" height="40" as="geometry" />
        </mxCell>
        <mxCell id="el4SjzeAoepcmtUn4qeZ-435" value="&lt;font style=&quot;font-size: 31px;&quot;&gt;&amp;lt;&lt;/font&gt;" style="edgeLabel;html=1;align=center;verticalAlign=middle;resizable=0;points=[];labelBackgroundColor=none;fontColor=#393C56;" vertex="1" connectable="0" parent="1">
          <mxGeometry x="-0.1467" y="1" relative="1" as="geometry">
            <mxPoint x="-2480" y="2013" as="offset" />
          </mxGeometry>
        </mxCell>
        <mxCell id="el4SjzeAoepcmtUn4qeZ-436" value="&lt;span style=&quot;font-size: 20px;&quot;&gt;A[2]:A[4]&lt;/span&gt;" style="rounded=1;whiteSpace=wrap;html=1;labelBackgroundColor=none;fillColor=#F2CC8F;strokeColor=#E07A5F;fontColor=#393C56;" vertex="1" parent="1">
          <mxGeometry x="9308" y="1395.2718237562583" width="120" height="40" as="geometry" />
        </mxCell>
        <mxCell id="el4SjzeAoepcmtUn4qeZ-437" value="" style="endArrow=classic;html=1;rounded=0;exitX=0.25;exitY=1;exitDx=0;exitDy=0;entryX=0.583;entryY=0;entryDx=0;entryDy=0;entryPerimeter=0;labelBackgroundColor=none;strokeColor=#E07A5F;fontColor=default;" edge="1" source="el4SjzeAoepcmtUn4qeZ-436" target="el4SjzeAoepcmtUn4qeZ-441" parent="1">
          <mxGeometry width="50" height="50" relative="1" as="geometry">
            <mxPoint x="10798" y="1380.1618237562584" as="sourcePoint" />
            <mxPoint x="10768" y="1440.1618237562584" as="targetPoint" />
            <Array as="points" />
          </mxGeometry>
        </mxCell>
        <mxCell id="el4SjzeAoepcmtUn4qeZ-438" value="&lt;font style=&quot;font-size: 31px;&quot;&gt;&amp;lt;&lt;/font&gt;" style="edgeLabel;html=1;align=center;verticalAlign=middle;resizable=0;points=[];labelBackgroundColor=none;fontColor=#393C56;" vertex="1" connectable="0" parent="el4SjzeAoepcmtUn4qeZ-437">
          <mxGeometry x="-0.1467" y="1" relative="1" as="geometry">
            <mxPoint as="offset" />
          </mxGeometry>
        </mxCell>
        <mxCell id="el4SjzeAoepcmtUn4qeZ-439" value="" style="endArrow=classic;html=1;rounded=0;exitX=1;exitY=1;exitDx=0;exitDy=0;entryX=0.5;entryY=0;entryDx=0;entryDy=0;labelBackgroundColor=none;strokeColor=#E07A5F;fontColor=default;" edge="1" source="el4SjzeAoepcmtUn4qeZ-436" target="el4SjzeAoepcmtUn4qeZ-484" parent="1">
          <mxGeometry width="50" height="50" relative="1" as="geometry">
            <mxPoint x="10858" y="1380.1618237562584" as="sourcePoint" />
            <mxPoint x="11118.04" y="1460.1618237562582" as="targetPoint" />
          </mxGeometry>
        </mxCell>
        <mxCell id="el4SjzeAoepcmtUn4qeZ-440" value="&lt;font style=&quot;font-size: 30px;&quot;&gt;&amp;gt;&lt;/font&gt;" style="edgeLabel;html=1;align=center;verticalAlign=middle;resizable=0;points=[];labelBackgroundColor=none;fontColor=#393C56;" vertex="1" connectable="0" parent="el4SjzeAoepcmtUn4qeZ-439">
          <mxGeometry x="-0.1129" relative="1" as="geometry">
            <mxPoint as="offset" />
          </mxGeometry>
        </mxCell>
        <mxCell id="el4SjzeAoepcmtUn4qeZ-441" value="&lt;span style=&quot;font-size: 20px;&quot;&gt;A[1]:A[5]&lt;/span&gt;" style="rounded=1;whiteSpace=wrap;html=1;labelBackgroundColor=none;fillColor=#F2CC8F;strokeColor=#E07A5F;fontColor=#393C56;" vertex="1" parent="1">
          <mxGeometry x="7629.999999999999" y="1730.2718237562585" width="120" height="40" as="geometry" />
        </mxCell>
        <mxCell id="el4SjzeAoepcmtUn4qeZ-442" value="" style="endArrow=classic;html=1;rounded=0;exitX=0.25;exitY=1;exitDx=0;exitDy=0;entryX=0.583;entryY=0;entryDx=0;entryDy=0;entryPerimeter=0;labelBackgroundColor=none;strokeColor=#E07A5F;fontColor=default;" edge="1" target="el4SjzeAoepcmtUn4qeZ-445" parent="1">
          <mxGeometry width="50" height="50" relative="1" as="geometry">
            <mxPoint x="7659.999999999999" y="1770.3818237562587" as="sourcePoint" />
            <mxPoint x="7629.999999999999" y="1830.3818237562587" as="targetPoint" />
            <Array as="points" />
          </mxGeometry>
        </mxCell>
        <mxCell id="el4SjzeAoepcmtUn4qeZ-443" value="&lt;font style=&quot;font-size: 31px;&quot;&gt;&amp;lt;&lt;/font&gt;" style="edgeLabel;html=1;align=center;verticalAlign=middle;resizable=0;points=[];labelBackgroundColor=none;fontColor=#393C56;" vertex="1" connectable="0" parent="el4SjzeAoepcmtUn4qeZ-442">
          <mxGeometry x="-0.1467" y="1" relative="1" as="geometry">
            <mxPoint as="offset" />
          </mxGeometry>
        </mxCell>
        <mxCell id="el4SjzeAoepcmtUn4qeZ-444" value="" style="endArrow=classic;html=1;rounded=0;exitX=0.75;exitY=1;exitDx=0;exitDy=0;entryX=0.417;entryY=0;entryDx=0;entryDy=0;entryPerimeter=0;labelBackgroundColor=none;strokeColor=#E07A5F;fontColor=default;" edge="1" parent="1">
          <mxGeometry width="50" height="50" relative="1" as="geometry">
            <mxPoint x="7719.999999999999" y="1770.3818237562587" as="sourcePoint" />
            <mxPoint x="7980.039999999999" y="1850.3818237562587" as="targetPoint" />
          </mxGeometry>
        </mxCell>
        <mxCell id="el4SjzeAoepcmtUn4qeZ-445" value="&lt;span style=&quot;font-size: 20px;&quot;&gt;A[1]:A[4]&lt;/span&gt;" style="rounded=1;whiteSpace=wrap;html=1;labelBackgroundColor=none;fillColor=#F2CC8F;strokeColor=#E07A5F;fontColor=#393C56;" vertex="1" parent="1">
          <mxGeometry x="6579.999999999999" y="1918.2418237562586" width="120" height="40" as="geometry" />
        </mxCell>
        <mxCell id="el4SjzeAoepcmtUn4qeZ-446" value="" style="endArrow=classic;html=1;rounded=0;exitX=0.25;exitY=1;exitDx=0;exitDy=0;entryX=0.583;entryY=0;entryDx=0;entryDy=0;entryPerimeter=0;labelBackgroundColor=none;strokeColor=#E07A5F;fontColor=default;" edge="1" target="el4SjzeAoepcmtUn4qeZ-450" parent="1">
          <mxGeometry width="50" height="50" relative="1" as="geometry">
            <mxPoint x="6599.999999999999" y="1958.2418237562586" as="sourcePoint" />
            <mxPoint x="6569.999999999999" y="2018.2418237562586" as="targetPoint" />
            <Array as="points" />
          </mxGeometry>
        </mxCell>
        <mxCell id="el4SjzeAoepcmtUn4qeZ-447" value="&lt;font style=&quot;font-size: 31px;&quot;&gt;&amp;lt;&lt;/font&gt;" style="edgeLabel;html=1;align=center;verticalAlign=middle;resizable=0;points=[];labelBackgroundColor=none;fontColor=#393C56;" vertex="1" connectable="0" parent="el4SjzeAoepcmtUn4qeZ-446">
          <mxGeometry x="-0.1467" y="1" relative="1" as="geometry">
            <mxPoint as="offset" />
          </mxGeometry>
        </mxCell>
        <mxCell id="el4SjzeAoepcmtUn4qeZ-448" value="" style="endArrow=classic;html=1;rounded=0;exitX=0.75;exitY=1;exitDx=0;exitDy=0;entryX=0.417;entryY=0;entryDx=0;entryDy=0;entryPerimeter=0;labelBackgroundColor=none;strokeColor=#E07A5F;fontColor=default;" edge="1" target="el4SjzeAoepcmtUn4qeZ-451" parent="1">
          <mxGeometry width="50" height="50" relative="1" as="geometry">
            <mxPoint x="6659.999999999999" y="1958.2418237562586" as="sourcePoint" />
            <mxPoint x="6679.999999999999" y="2018.2418237562586" as="targetPoint" />
          </mxGeometry>
        </mxCell>
        <mxCell id="el4SjzeAoepcmtUn4qeZ-449" value="&lt;font style=&quot;font-size: 30px;&quot;&gt;&amp;gt;&lt;/font&gt;" style="edgeLabel;html=1;align=center;verticalAlign=middle;resizable=0;points=[];labelBackgroundColor=none;fontColor=#393C56;" vertex="1" connectable="0" parent="el4SjzeAoepcmtUn4qeZ-448">
          <mxGeometry x="-0.1129" relative="1" as="geometry">
            <mxPoint as="offset" />
          </mxGeometry>
        </mxCell>
        <mxCell id="el4SjzeAoepcmtUn4qeZ-450" value="&lt;span style=&quot;font-size: 20px;&quot;&gt;A[4]:A[5]&lt;/span&gt;" style="rounded=1;whiteSpace=wrap;html=1;labelBackgroundColor=none;fillColor=#F2CC8F;strokeColor=#E07A5F;fontColor=#393C56;" vertex="1" parent="1">
          <mxGeometry x="6149.999999999999" y="2063.241823756259" width="120" height="40" as="geometry" />
        </mxCell>
        <mxCell id="el4SjzeAoepcmtUn4qeZ-451" value="&lt;span style=&quot;font-size: 20px;&quot;&gt;A[1]:A[3]&lt;/span&gt;" style="rounded=1;whiteSpace=wrap;html=1;labelBackgroundColor=none;fillColor=#F2CC8F;strokeColor=#E07A5F;fontColor=#393C56;" vertex="1" parent="1">
          <mxGeometry x="6869.999999999999" y="2038.2418237562588" width="120" height="40" as="geometry" />
        </mxCell>
        <mxCell id="el4SjzeAoepcmtUn4qeZ-452" value="" style="endArrow=classic;html=1;rounded=0;exitX=0.25;exitY=1;exitDx=0;exitDy=0;entryX=0.583;entryY=0;entryDx=0;entryDy=0;entryPerimeter=0;labelBackgroundColor=none;strokeColor=#E07A5F;fontColor=default;" edge="1" target="el4SjzeAoepcmtUn4qeZ-456" parent="1">
          <mxGeometry width="50" height="50" relative="1" as="geometry">
            <mxPoint x="6169.999999999999" y="2103.241823756259" as="sourcePoint" />
            <mxPoint x="6139.999999999999" y="2163.241823756259" as="targetPoint" />
            <Array as="points" />
          </mxGeometry>
        </mxCell>
        <mxCell id="el4SjzeAoepcmtUn4qeZ-453" value="&lt;font style=&quot;font-size: 31px;&quot;&gt;&amp;lt;&lt;/font&gt;" style="edgeLabel;html=1;align=center;verticalAlign=middle;resizable=0;points=[];labelBackgroundColor=none;fontColor=#393C56;" vertex="1" connectable="0" parent="el4SjzeAoepcmtUn4qeZ-452">
          <mxGeometry x="-0.1467" y="1" relative="1" as="geometry">
            <mxPoint as="offset" />
          </mxGeometry>
        </mxCell>
        <mxCell id="el4SjzeAoepcmtUn4qeZ-454" value="" style="endArrow=classic;html=1;rounded=0;exitX=0.75;exitY=1;exitDx=0;exitDy=0;entryX=0.417;entryY=0;entryDx=0;entryDy=0;entryPerimeter=0;labelBackgroundColor=none;strokeColor=#E07A5F;fontColor=default;" edge="1" target="el4SjzeAoepcmtUn4qeZ-457" parent="1">
          <mxGeometry width="50" height="50" relative="1" as="geometry">
            <mxPoint x="6229.999999999999" y="2103.241823756259" as="sourcePoint" />
            <mxPoint x="6249.999999999999" y="2163.241823756259" as="targetPoint" />
          </mxGeometry>
        </mxCell>
        <mxCell id="el4SjzeAoepcmtUn4qeZ-455" value="&lt;font style=&quot;font-size: 30px;&quot;&gt;&amp;gt;&lt;/font&gt;" style="edgeLabel;html=1;align=center;verticalAlign=middle;resizable=0;points=[];labelBackgroundColor=none;fontColor=#393C56;" vertex="1" connectable="0" parent="el4SjzeAoepcmtUn4qeZ-454">
          <mxGeometry x="-0.1129" relative="1" as="geometry">
            <mxPoint as="offset" />
          </mxGeometry>
        </mxCell>
        <mxCell id="el4SjzeAoepcmtUn4qeZ-456" value="&lt;span style=&quot;font-size: 20px;&quot;&gt;A[4] is Med.&lt;/span&gt;" style="rounded=1;whiteSpace=wrap;html=1;labelBackgroundColor=none;fillColor=#F2CC8F;strokeColor=#E07A5F;fontColor=#393C56;" vertex="1" parent="1">
          <mxGeometry x="5879.999999999999" y="2183.241823756259" width="120" height="40" as="geometry" />
        </mxCell>
        <mxCell id="el4SjzeAoepcmtUn4qeZ-457" value="&lt;span style=&quot;font-size: 20px;&quot;&gt;A[5] is Med.&lt;/span&gt;" style="rounded=1;whiteSpace=wrap;html=1;labelBackgroundColor=none;fillColor=#F2CC8F;strokeColor=#E07A5F;fontColor=#393C56;" vertex="1" parent="1">
          <mxGeometry x="6439.999999999999" y="2183.241823756259" width="120" height="40" as="geometry" />
        </mxCell>
        <mxCell id="el4SjzeAoepcmtUn4qeZ-458" value="" style="endArrow=classic;html=1;rounded=0;exitX=0.25;exitY=1;exitDx=0;exitDy=0;entryX=0.583;entryY=0;entryDx=0;entryDy=0;entryPerimeter=0;labelBackgroundColor=none;strokeColor=#E07A5F;fontColor=default;" edge="1" target="el4SjzeAoepcmtUn4qeZ-462" parent="1">
          <mxGeometry width="50" height="50" relative="1" as="geometry">
            <mxPoint x="6919.999999999999" y="2078.241823756259" as="sourcePoint" />
            <mxPoint x="6889.999999999999" y="2138.241823756259" as="targetPoint" />
            <Array as="points" />
          </mxGeometry>
        </mxCell>
        <mxCell id="el4SjzeAoepcmtUn4qeZ-459" value="&lt;font style=&quot;font-size: 31px;&quot;&gt;&amp;lt;&lt;/font&gt;" style="edgeLabel;html=1;align=center;verticalAlign=middle;resizable=0;points=[];labelBackgroundColor=none;fontColor=#393C56;" vertex="1" connectable="0" parent="el4SjzeAoepcmtUn4qeZ-458">
          <mxGeometry x="-0.1467" y="1" relative="1" as="geometry">
            <mxPoint as="offset" />
          </mxGeometry>
        </mxCell>
        <mxCell id="el4SjzeAoepcmtUn4qeZ-460" value="" style="endArrow=classic;html=1;rounded=0;exitX=0.75;exitY=1;exitDx=0;exitDy=0;entryX=0.417;entryY=0;entryDx=0;entryDy=0;entryPerimeter=0;labelBackgroundColor=none;strokeColor=#E07A5F;fontColor=default;" edge="1" target="el4SjzeAoepcmtUn4qeZ-463" parent="1">
          <mxGeometry width="50" height="50" relative="1" as="geometry">
            <mxPoint x="6979.999999999999" y="2078.241823756259" as="sourcePoint" />
            <mxPoint x="6999.999999999999" y="2138.241823756259" as="targetPoint" />
          </mxGeometry>
        </mxCell>
        <mxCell id="el4SjzeAoepcmtUn4qeZ-461" value="&lt;font style=&quot;font-size: 30px;&quot;&gt;&amp;gt;&lt;/font&gt;" style="edgeLabel;html=1;align=center;verticalAlign=middle;resizable=0;points=[];labelBackgroundColor=none;fontColor=#393C56;" vertex="1" connectable="0" parent="el4SjzeAoepcmtUn4qeZ-460">
          <mxGeometry x="-0.1129" relative="1" as="geometry">
            <mxPoint as="offset" />
          </mxGeometry>
        </mxCell>
        <mxCell id="el4SjzeAoepcmtUn4qeZ-462" value="&lt;span style=&quot;font-size: 20px;&quot;&gt;A[1] is Med.&lt;/span&gt;" style="rounded=1;whiteSpace=wrap;html=1;labelBackgroundColor=none;fillColor=#F2CC8F;strokeColor=#E07A5F;fontColor=#393C56;" vertex="1" parent="1">
          <mxGeometry x="6729.999999999999" y="2173.241823756259" width="120" height="40" as="geometry" />
        </mxCell>
        <mxCell id="el4SjzeAoepcmtUn4qeZ-463" value="&lt;span style=&quot;font-size: 20px;&quot;&gt;A[3] is Med.&lt;/span&gt;" style="rounded=1;whiteSpace=wrap;html=1;labelBackgroundColor=none;fillColor=#F2CC8F;strokeColor=#E07A5F;fontColor=#393C56;" vertex="1" parent="1">
          <mxGeometry x="7019.999999999999" y="2183.241823756259" width="120" height="40" as="geometry" />
        </mxCell>
        <mxCell id="el4SjzeAoepcmtUn4qeZ-464" value="&lt;font style=&quot;font-size: 30px;&quot;&gt;&amp;gt;&lt;/font&gt;" style="edgeLabel;html=1;align=center;verticalAlign=middle;resizable=0;points=[];labelBackgroundColor=none;fontColor=#393C56;" vertex="1" connectable="0" parent="1">
          <mxGeometry x="7869.995006792088" y="1816.477166562623" as="geometry" />
        </mxCell>
        <mxCell id="el4SjzeAoepcmtUn4qeZ-465" value="&lt;span style=&quot;font-size: 20px;&quot;&gt;A[4]:A[5]&lt;/span&gt;" style="rounded=1;whiteSpace=wrap;html=1;labelBackgroundColor=none;fillColor=#F2CC8F;strokeColor=#E07A5F;fontColor=#393C56;" vertex="1" parent="1">
          <mxGeometry x="7919.999999999999" y="1849.9818237562586" width="120" height="40" as="geometry" />
        </mxCell>
        <mxCell id="el4SjzeAoepcmtUn4qeZ-466" value="" style="endArrow=classic;html=1;rounded=0;exitX=0.25;exitY=1;exitDx=0;exitDy=0;entryX=0.583;entryY=0;entryDx=0;entryDy=0;entryPerimeter=0;labelBackgroundColor=none;strokeColor=#E07A5F;fontColor=default;" edge="1" target="el4SjzeAoepcmtUn4qeZ-470" parent="1">
          <mxGeometry width="50" height="50" relative="1" as="geometry">
            <mxPoint x="7939.999999999999" y="1889.9818237562586" as="sourcePoint" />
            <mxPoint x="7909.999999999999" y="1949.9818237562586" as="targetPoint" />
            <Array as="points" />
          </mxGeometry>
        </mxCell>
        <mxCell id="el4SjzeAoepcmtUn4qeZ-467" value="&lt;font style=&quot;font-size: 31px;&quot;&gt;&amp;lt;&lt;/font&gt;" style="edgeLabel;html=1;align=center;verticalAlign=middle;resizable=0;points=[];labelBackgroundColor=none;fontColor=#393C56;" vertex="1" connectable="0" parent="el4SjzeAoepcmtUn4qeZ-466">
          <mxGeometry x="-0.1467" y="1" relative="1" as="geometry">
            <mxPoint as="offset" />
          </mxGeometry>
        </mxCell>
        <mxCell id="el4SjzeAoepcmtUn4qeZ-468" value="" style="endArrow=classic;html=1;rounded=0;exitX=0.75;exitY=1;exitDx=0;exitDy=0;entryX=0.417;entryY=0;entryDx=0;entryDy=0;entryPerimeter=0;labelBackgroundColor=none;strokeColor=#E07A5F;fontColor=default;" edge="1" target="el4SjzeAoepcmtUn4qeZ-471" parent="1">
          <mxGeometry width="50" height="50" relative="1" as="geometry">
            <mxPoint x="7999.999999999999" y="1889.9818237562586" as="sourcePoint" />
            <mxPoint x="8019.999999999999" y="1949.9818237562586" as="targetPoint" />
          </mxGeometry>
        </mxCell>
        <mxCell id="el4SjzeAoepcmtUn4qeZ-469" value="&lt;font style=&quot;font-size: 30px;&quot;&gt;&amp;gt;&lt;/font&gt;" style="edgeLabel;html=1;align=center;verticalAlign=middle;resizable=0;points=[];labelBackgroundColor=none;fontColor=#393C56;" vertex="1" connectable="0" parent="el4SjzeAoepcmtUn4qeZ-468">
          <mxGeometry x="-0.1129" relative="1" as="geometry">
            <mxPoint as="offset" />
          </mxGeometry>
        </mxCell>
        <mxCell id="el4SjzeAoepcmtUn4qeZ-470" value="&lt;span style=&quot;font-size: 20px;&quot;&gt;A[3]:A[5]&lt;/span&gt;" style="rounded=1;whiteSpace=wrap;html=1;labelBackgroundColor=none;fillColor=#F2CC8F;strokeColor=#E07A5F;fontColor=#393C56;" vertex="1" parent="1">
          <mxGeometry x="7489.999999999999" y="1994.9818237562588" width="120" height="40" as="geometry" />
        </mxCell>
        <mxCell id="el4SjzeAoepcmtUn4qeZ-471" value="&lt;span style=&quot;font-size: 20px;&quot;&gt;A[1]:A[4]&lt;/span&gt;" style="rounded=1;whiteSpace=wrap;html=1;labelBackgroundColor=none;fillColor=#F2CC8F;strokeColor=#E07A5F;fontColor=#393C56;" vertex="1" parent="1">
          <mxGeometry x="8210" y="1969.9818237562588" width="120" height="40" as="geometry" />
        </mxCell>
        <mxCell id="el4SjzeAoepcmtUn4qeZ-472" value="" style="endArrow=classic;html=1;rounded=0;exitX=0.25;exitY=1;exitDx=0;exitDy=0;entryX=0.583;entryY=0;entryDx=0;entryDy=0;entryPerimeter=0;labelBackgroundColor=none;strokeColor=#E07A5F;fontColor=default;" edge="1" target="el4SjzeAoepcmtUn4qeZ-476" parent="1">
          <mxGeometry width="50" height="50" relative="1" as="geometry">
            <mxPoint x="7509.999999999999" y="2034.9818237562588" as="sourcePoint" />
            <mxPoint x="7479.999999999999" y="2094.9818237562586" as="targetPoint" />
            <Array as="points" />
          </mxGeometry>
        </mxCell>
        <mxCell id="el4SjzeAoepcmtUn4qeZ-473" value="&lt;font style=&quot;font-size: 31px;&quot;&gt;&amp;lt;&lt;/font&gt;" style="edgeLabel;html=1;align=center;verticalAlign=middle;resizable=0;points=[];labelBackgroundColor=none;fontColor=#393C56;" vertex="1" connectable="0" parent="el4SjzeAoepcmtUn4qeZ-472">
          <mxGeometry x="-0.1467" y="1" relative="1" as="geometry">
            <mxPoint as="offset" />
          </mxGeometry>
        </mxCell>
        <mxCell id="el4SjzeAoepcmtUn4qeZ-474" value="" style="endArrow=classic;html=1;rounded=0;exitX=0.75;exitY=1;exitDx=0;exitDy=0;entryX=0.417;entryY=0;entryDx=0;entryDy=0;entryPerimeter=0;labelBackgroundColor=none;strokeColor=#E07A5F;fontColor=default;" edge="1" target="el4SjzeAoepcmtUn4qeZ-477" parent="1">
          <mxGeometry width="50" height="50" relative="1" as="geometry">
            <mxPoint x="7569.999999999999" y="2034.9818237562588" as="sourcePoint" />
            <mxPoint x="7589.999999999999" y="2094.9818237562586" as="targetPoint" />
          </mxGeometry>
        </mxCell>
        <mxCell id="el4SjzeAoepcmtUn4qeZ-475" value="&lt;font style=&quot;font-size: 30px;&quot;&gt;&amp;gt;&lt;/font&gt;" style="edgeLabel;html=1;align=center;verticalAlign=middle;resizable=0;points=[];labelBackgroundColor=none;fontColor=#393C56;" vertex="1" connectable="0" parent="el4SjzeAoepcmtUn4qeZ-474">
          <mxGeometry x="-0.1129" relative="1" as="geometry">
            <mxPoint as="offset" />
          </mxGeometry>
        </mxCell>
        <mxCell id="el4SjzeAoepcmtUn4qeZ-476" value="&lt;span style=&quot;font-size: 20px;&quot;&gt;A[3] is Med.&lt;/span&gt;" style="rounded=1;whiteSpace=wrap;html=1;labelBackgroundColor=none;fillColor=#F2CC8F;strokeColor=#E07A5F;fontColor=#393C56;" vertex="1" parent="1">
          <mxGeometry x="7219.999999999999" y="2114.9818237562586" width="120" height="40" as="geometry" />
        </mxCell>
        <mxCell id="el4SjzeAoepcmtUn4qeZ-477" value="&lt;span style=&quot;font-size: 20px;&quot;&gt;A[5] is Med.&lt;/span&gt;" style="rounded=1;whiteSpace=wrap;html=1;labelBackgroundColor=none;fillColor=#F2CC8F;strokeColor=#E07A5F;fontColor=#393C56;" vertex="1" parent="1">
          <mxGeometry x="7779.999999999999" y="2114.9818237562586" width="120" height="40" as="geometry" />
        </mxCell>
        <mxCell id="el4SjzeAoepcmtUn4qeZ-478" value="" style="endArrow=classic;html=1;rounded=0;exitX=0.25;exitY=1;exitDx=0;exitDy=0;entryX=0.583;entryY=0;entryDx=0;entryDy=0;entryPerimeter=0;labelBackgroundColor=none;strokeColor=#E07A5F;fontColor=default;" edge="1" target="el4SjzeAoepcmtUn4qeZ-482" parent="1">
          <mxGeometry width="50" height="50" relative="1" as="geometry">
            <mxPoint x="8260" y="2009.9818237562588" as="sourcePoint" />
            <mxPoint x="8230" y="2069.9818237562586" as="targetPoint" />
            <Array as="points" />
          </mxGeometry>
        </mxCell>
        <mxCell id="el4SjzeAoepcmtUn4qeZ-479" value="&lt;font style=&quot;font-size: 31px;&quot;&gt;&amp;lt;&lt;/font&gt;" style="edgeLabel;html=1;align=center;verticalAlign=middle;resizable=0;points=[];labelBackgroundColor=none;fontColor=#393C56;" vertex="1" connectable="0" parent="el4SjzeAoepcmtUn4qeZ-478">
          <mxGeometry x="-0.1467" y="1" relative="1" as="geometry">
            <mxPoint as="offset" />
          </mxGeometry>
        </mxCell>
        <mxCell id="el4SjzeAoepcmtUn4qeZ-480" value="" style="endArrow=classic;html=1;rounded=0;exitX=0.75;exitY=1;exitDx=0;exitDy=0;entryX=0.417;entryY=0;entryDx=0;entryDy=0;entryPerimeter=0;labelBackgroundColor=none;strokeColor=#E07A5F;fontColor=default;" edge="1" target="el4SjzeAoepcmtUn4qeZ-483" parent="1">
          <mxGeometry width="50" height="50" relative="1" as="geometry">
            <mxPoint x="8320" y="2009.9818237562588" as="sourcePoint" />
            <mxPoint x="8340" y="2069.9818237562586" as="targetPoint" />
          </mxGeometry>
        </mxCell>
        <mxCell id="el4SjzeAoepcmtUn4qeZ-481" value="&lt;font style=&quot;font-size: 30px;&quot;&gt;&amp;gt;&lt;/font&gt;" style="edgeLabel;html=1;align=center;verticalAlign=middle;resizable=0;points=[];labelBackgroundColor=none;fontColor=#393C56;" vertex="1" connectable="0" parent="el4SjzeAoepcmtUn4qeZ-480">
          <mxGeometry x="-0.1129" relative="1" as="geometry">
            <mxPoint as="offset" />
          </mxGeometry>
        </mxCell>
        <mxCell id="el4SjzeAoepcmtUn4qeZ-482" value="&lt;span style=&quot;font-size: 20px;&quot;&gt;A[1] is Med.&lt;/span&gt;" style="rounded=1;whiteSpace=wrap;html=1;labelBackgroundColor=none;fillColor=#F2CC8F;strokeColor=#E07A5F;fontColor=#393C56;" vertex="1" parent="1">
          <mxGeometry x="8069.999999999999" y="2104.9818237562586" width="120" height="40" as="geometry" />
        </mxCell>
        <mxCell id="el4SjzeAoepcmtUn4qeZ-483" value="&lt;span style=&quot;font-size: 20px;&quot;&gt;A[4] is Med.&lt;/span&gt;" style="rounded=1;whiteSpace=wrap;html=1;labelBackgroundColor=none;fillColor=#F2CC8F;strokeColor=#E07A5F;fontColor=#393C56;" vertex="1" parent="1">
          <mxGeometry x="8360" y="2114.9818237562586" width="120" height="40" as="geometry" />
        </mxCell>
        <mxCell id="el4SjzeAoepcmtUn4qeZ-484" value="&lt;span style=&quot;font-size: 20px;&quot;&gt;A[3]:A[5]&lt;/span&gt;" style="rounded=1;whiteSpace=wrap;html=1;labelBackgroundColor=none;fillColor=#F2CC8F;strokeColor=#E07A5F;fontColor=#393C56;" vertex="1" parent="1">
          <mxGeometry x="10278" y="1743.4918237562586" width="120" height="40" as="geometry" />
        </mxCell>
        <mxCell id="el4SjzeAoepcmtUn4qeZ-485" value="" style="endArrow=classic;html=1;rounded=0;exitX=0.25;exitY=1;exitDx=0;exitDy=0;entryX=0.583;entryY=0;entryDx=0;entryDy=0;entryPerimeter=0;labelBackgroundColor=none;strokeColor=#E07A5F;fontColor=default;" edge="1" target="el4SjzeAoepcmtUn4qeZ-488" parent="1">
          <mxGeometry width="50" height="50" relative="1" as="geometry">
            <mxPoint x="10308" y="1783.6018237562587" as="sourcePoint" />
            <mxPoint x="10278" y="1843.6018237562587" as="targetPoint" />
            <Array as="points" />
          </mxGeometry>
        </mxCell>
        <mxCell id="el4SjzeAoepcmtUn4qeZ-486" value="&lt;font style=&quot;font-size: 31px;&quot;&gt;&amp;lt;&lt;/font&gt;" style="edgeLabel;html=1;align=center;verticalAlign=middle;resizable=0;points=[];labelBackgroundColor=none;fontColor=#393C56;" vertex="1" connectable="0" parent="el4SjzeAoepcmtUn4qeZ-485">
          <mxGeometry x="-0.1467" y="1" relative="1" as="geometry">
            <mxPoint as="offset" />
          </mxGeometry>
        </mxCell>
        <mxCell id="el4SjzeAoepcmtUn4qeZ-487" value="" style="endArrow=classic;html=1;rounded=0;exitX=0.75;exitY=1;exitDx=0;exitDy=0;entryX=0.417;entryY=0;entryDx=0;entryDy=0;entryPerimeter=0;labelBackgroundColor=none;strokeColor=#E07A5F;fontColor=default;" edge="1" parent="1">
          <mxGeometry width="50" height="50" relative="1" as="geometry">
            <mxPoint x="10368" y="1783.6018237562587" as="sourcePoint" />
            <mxPoint x="10628.039999999999" y="1863.6018237562587" as="targetPoint" />
          </mxGeometry>
        </mxCell>
        <mxCell id="el4SjzeAoepcmtUn4qeZ-488" value="&lt;span style=&quot;font-size: 20px;&quot;&gt;A[2]:A[3]&lt;/span&gt;" style="rounded=1;whiteSpace=wrap;html=1;labelBackgroundColor=none;fillColor=#F2CC8F;strokeColor=#E07A5F;fontColor=#393C56;" vertex="1" parent="1">
          <mxGeometry x="9228" y="1931.4618237562586" width="120" height="40" as="geometry" />
        </mxCell>
        <mxCell id="el4SjzeAoepcmtUn4qeZ-489" value="" style="endArrow=classic;html=1;rounded=0;exitX=0.25;exitY=1;exitDx=0;exitDy=0;entryX=0.583;entryY=0;entryDx=0;entryDy=0;entryPerimeter=0;labelBackgroundColor=none;strokeColor=#E07A5F;fontColor=default;" edge="1" target="el4SjzeAoepcmtUn4qeZ-493" parent="1">
          <mxGeometry width="50" height="50" relative="1" as="geometry">
            <mxPoint x="9248" y="1971.4618237562586" as="sourcePoint" />
            <mxPoint x="9218" y="2031.4618237562586" as="targetPoint" />
            <Array as="points" />
          </mxGeometry>
        </mxCell>
        <mxCell id="el4SjzeAoepcmtUn4qeZ-490" value="&lt;font style=&quot;font-size: 31px;&quot;&gt;&amp;lt;&lt;/font&gt;" style="edgeLabel;html=1;align=center;verticalAlign=middle;resizable=0;points=[];labelBackgroundColor=none;fontColor=#393C56;" vertex="1" connectable="0" parent="el4SjzeAoepcmtUn4qeZ-489">
          <mxGeometry x="-0.1467" y="1" relative="1" as="geometry">
            <mxPoint as="offset" />
          </mxGeometry>
        </mxCell>
        <mxCell id="el4SjzeAoepcmtUn4qeZ-491" value="" style="endArrow=classic;html=1;rounded=0;exitX=0.75;exitY=1;exitDx=0;exitDy=0;entryX=0.417;entryY=0;entryDx=0;entryDy=0;entryPerimeter=0;labelBackgroundColor=none;strokeColor=#E07A5F;fontColor=default;" edge="1" target="el4SjzeAoepcmtUn4qeZ-494" parent="1">
          <mxGeometry width="50" height="50" relative="1" as="geometry">
            <mxPoint x="9308" y="1971.4618237562586" as="sourcePoint" />
            <mxPoint x="9328" y="2031.4618237562586" as="targetPoint" />
          </mxGeometry>
        </mxCell>
        <mxCell id="el4SjzeAoepcmtUn4qeZ-492" value="&lt;font style=&quot;font-size: 30px;&quot;&gt;&amp;gt;&lt;/font&gt;" style="edgeLabel;html=1;align=center;verticalAlign=middle;resizable=0;points=[];labelBackgroundColor=none;fontColor=#393C56;" vertex="1" connectable="0" parent="el4SjzeAoepcmtUn4qeZ-491">
          <mxGeometry x="-0.1129" relative="1" as="geometry">
            <mxPoint as="offset" />
          </mxGeometry>
        </mxCell>
        <mxCell id="el4SjzeAoepcmtUn4qeZ-493" value="&lt;span style=&quot;font-size: 20px;&quot;&gt;A[1]:A[5]&lt;/span&gt;" style="rounded=1;whiteSpace=wrap;html=1;labelBackgroundColor=none;fillColor=#F2CC8F;strokeColor=#E07A5F;fontColor=#393C56;" vertex="1" parent="1">
          <mxGeometry x="8798" y="2076.461823756259" width="120" height="40" as="geometry" />
        </mxCell>
        <mxCell id="el4SjzeAoepcmtUn4qeZ-494" value="&lt;span style=&quot;font-size: 20px;&quot;&gt;A[2]:A[5]&lt;/span&gt;" style="rounded=1;whiteSpace=wrap;html=1;labelBackgroundColor=none;fillColor=#F2CC8F;strokeColor=#E07A5F;fontColor=#393C56;" vertex="1" parent="1">
          <mxGeometry x="9518" y="2051.461823756259" width="120" height="40" as="geometry" />
        </mxCell>
        <mxCell id="el4SjzeAoepcmtUn4qeZ-495" value="" style="endArrow=classic;html=1;rounded=0;exitX=0.25;exitY=1;exitDx=0;exitDy=0;entryX=0.583;entryY=0;entryDx=0;entryDy=0;entryPerimeter=0;labelBackgroundColor=none;strokeColor=#E07A5F;fontColor=default;" edge="1" target="el4SjzeAoepcmtUn4qeZ-499" parent="1">
          <mxGeometry width="50" height="50" relative="1" as="geometry">
            <mxPoint x="8818" y="2116.461823756259" as="sourcePoint" />
            <mxPoint x="8788" y="2176.461823756259" as="targetPoint" />
            <Array as="points" />
          </mxGeometry>
        </mxCell>
        <mxCell id="el4SjzeAoepcmtUn4qeZ-496" value="&lt;font style=&quot;font-size: 31px;&quot;&gt;&amp;lt;&lt;/font&gt;" style="edgeLabel;html=1;align=center;verticalAlign=middle;resizable=0;points=[];labelBackgroundColor=none;fontColor=#393C56;" vertex="1" connectable="0" parent="el4SjzeAoepcmtUn4qeZ-495">
          <mxGeometry x="-0.1467" y="1" relative="1" as="geometry">
            <mxPoint as="offset" />
          </mxGeometry>
        </mxCell>
        <mxCell id="el4SjzeAoepcmtUn4qeZ-497" value="" style="endArrow=classic;html=1;rounded=0;exitX=0.75;exitY=1;exitDx=0;exitDy=0;entryX=0.417;entryY=0;entryDx=0;entryDy=0;entryPerimeter=0;labelBackgroundColor=none;strokeColor=#E07A5F;fontColor=default;" edge="1" target="el4SjzeAoepcmtUn4qeZ-500" parent="1">
          <mxGeometry width="50" height="50" relative="1" as="geometry">
            <mxPoint x="8878" y="2116.461823756259" as="sourcePoint" />
            <mxPoint x="8898" y="2176.461823756259" as="targetPoint" />
          </mxGeometry>
        </mxCell>
        <mxCell id="el4SjzeAoepcmtUn4qeZ-498" value="&lt;font style=&quot;font-size: 30px;&quot;&gt;&amp;gt;&lt;/font&gt;" style="edgeLabel;html=1;align=center;verticalAlign=middle;resizable=0;points=[];labelBackgroundColor=none;fontColor=#393C56;" vertex="1" connectable="0" parent="el4SjzeAoepcmtUn4qeZ-497">
          <mxGeometry x="-0.1129" relative="1" as="geometry">
            <mxPoint as="offset" />
          </mxGeometry>
        </mxCell>
        <mxCell id="el4SjzeAoepcmtUn4qeZ-499" value="&lt;span style=&quot;font-size: 20px;&quot;&gt;A[1] is Med.&lt;/span&gt;" style="rounded=1;whiteSpace=wrap;html=1;labelBackgroundColor=none;fillColor=#F2CC8F;strokeColor=#E07A5F;fontColor=#393C56;" vertex="1" parent="1">
          <mxGeometry x="8528" y="2196.461823756259" width="120" height="40" as="geometry" />
        </mxCell>
        <mxCell id="el4SjzeAoepcmtUn4qeZ-500" value="&lt;span style=&quot;font-size: 20px;&quot;&gt;A[5] is Med.&lt;/span&gt;" style="rounded=1;whiteSpace=wrap;html=1;labelBackgroundColor=none;fillColor=#F2CC8F;strokeColor=#E07A5F;fontColor=#393C56;" vertex="1" parent="1">
          <mxGeometry x="9088" y="2196.461823756259" width="120" height="40" as="geometry" />
        </mxCell>
        <mxCell id="el4SjzeAoepcmtUn4qeZ-501" value="" style="endArrow=classic;html=1;rounded=0;exitX=0.25;exitY=1;exitDx=0;exitDy=0;entryX=0.583;entryY=0;entryDx=0;entryDy=0;entryPerimeter=0;labelBackgroundColor=none;strokeColor=#E07A5F;fontColor=default;" edge="1" target="el4SjzeAoepcmtUn4qeZ-505" parent="1">
          <mxGeometry width="50" height="50" relative="1" as="geometry">
            <mxPoint x="9568" y="2091.461823756259" as="sourcePoint" />
            <mxPoint x="9538" y="2151.461823756259" as="targetPoint" />
            <Array as="points" />
          </mxGeometry>
        </mxCell>
        <mxCell id="el4SjzeAoepcmtUn4qeZ-502" value="&lt;font style=&quot;font-size: 31px;&quot;&gt;&amp;lt;&lt;/font&gt;" style="edgeLabel;html=1;align=center;verticalAlign=middle;resizable=0;points=[];labelBackgroundColor=none;fontColor=#393C56;" vertex="1" connectable="0" parent="el4SjzeAoepcmtUn4qeZ-501">
          <mxGeometry x="-0.1467" y="1" relative="1" as="geometry">
            <mxPoint as="offset" />
          </mxGeometry>
        </mxCell>
        <mxCell id="el4SjzeAoepcmtUn4qeZ-503" value="" style="endArrow=classic;html=1;rounded=0;exitX=0.75;exitY=1;exitDx=0;exitDy=0;entryX=0.417;entryY=0;entryDx=0;entryDy=0;entryPerimeter=0;labelBackgroundColor=none;strokeColor=#E07A5F;fontColor=default;" edge="1" target="el4SjzeAoepcmtUn4qeZ-506" parent="1">
          <mxGeometry width="50" height="50" relative="1" as="geometry">
            <mxPoint x="9628" y="2091.461823756259" as="sourcePoint" />
            <mxPoint x="9648" y="2151.461823756259" as="targetPoint" />
          </mxGeometry>
        </mxCell>
        <mxCell id="el4SjzeAoepcmtUn4qeZ-504" value="&lt;font style=&quot;font-size: 30px;&quot;&gt;&amp;gt;&lt;/font&gt;" style="edgeLabel;html=1;align=center;verticalAlign=middle;resizable=0;points=[];labelBackgroundColor=none;fontColor=#393C56;" vertex="1" connectable="0" parent="el4SjzeAoepcmtUn4qeZ-503">
          <mxGeometry x="-0.1129" relative="1" as="geometry">
            <mxPoint as="offset" />
          </mxGeometry>
        </mxCell>
        <mxCell id="el4SjzeAoepcmtUn4qeZ-505" value="&lt;span style=&quot;font-size: 20px;&quot;&gt;A[2] is Med.&lt;/span&gt;" style="rounded=1;whiteSpace=wrap;html=1;labelBackgroundColor=none;fillColor=#F2CC8F;strokeColor=#E07A5F;fontColor=#393C56;" vertex="1" parent="1">
          <mxGeometry x="9378" y="2186.461823756259" width="120" height="40" as="geometry" />
        </mxCell>
        <mxCell id="el4SjzeAoepcmtUn4qeZ-506" value="&lt;span style=&quot;font-size: 20px;&quot;&gt;A[5] is Med.&lt;/span&gt;" style="rounded=1;whiteSpace=wrap;html=1;labelBackgroundColor=none;fillColor=#F2CC8F;strokeColor=#E07A5F;fontColor=#393C56;" vertex="1" parent="1">
          <mxGeometry x="9668" y="2196.461823756259" width="120" height="40" as="geometry" />
        </mxCell>
        <mxCell id="el4SjzeAoepcmtUn4qeZ-507" value="&lt;font style=&quot;font-size: 30px;&quot;&gt;&amp;gt;&lt;/font&gt;" style="edgeLabel;html=1;align=center;verticalAlign=middle;resizable=0;points=[];labelBackgroundColor=none;fontColor=#393C56;" vertex="1" connectable="0" parent="1">
          <mxGeometry x="10517.995006792087" y="1829.6971665626231" as="geometry" />
        </mxCell>
        <mxCell id="el4SjzeAoepcmtUn4qeZ-508" value="&lt;span style=&quot;font-size: 20px;&quot;&gt;A[2]:A[5]&lt;/span&gt;" style="rounded=1;whiteSpace=wrap;html=1;labelBackgroundColor=none;fillColor=#F2CC8F;strokeColor=#E07A5F;fontColor=#393C56;" vertex="1" parent="1">
          <mxGeometry x="10568" y="1863.2018237562586" width="120" height="40" as="geometry" />
        </mxCell>
        <mxCell id="el4SjzeAoepcmtUn4qeZ-509" value="" style="endArrow=classic;html=1;rounded=0;exitX=0.25;exitY=1;exitDx=0;exitDy=0;entryX=0.583;entryY=0;entryDx=0;entryDy=0;entryPerimeter=0;labelBackgroundColor=none;strokeColor=#E07A5F;fontColor=default;" edge="1" target="el4SjzeAoepcmtUn4qeZ-513" parent="1">
          <mxGeometry width="50" height="50" relative="1" as="geometry">
            <mxPoint x="10588" y="1903.2018237562586" as="sourcePoint" />
            <mxPoint x="10558" y="1963.2018237562586" as="targetPoint" />
            <Array as="points" />
          </mxGeometry>
        </mxCell>
        <mxCell id="el4SjzeAoepcmtUn4qeZ-510" value="&lt;font style=&quot;font-size: 31px;&quot;&gt;&amp;lt;&lt;/font&gt;" style="edgeLabel;html=1;align=center;verticalAlign=middle;resizable=0;points=[];labelBackgroundColor=none;fontColor=#393C56;" vertex="1" connectable="0" parent="el4SjzeAoepcmtUn4qeZ-509">
          <mxGeometry x="-0.1467" y="1" relative="1" as="geometry">
            <mxPoint as="offset" />
          </mxGeometry>
        </mxCell>
        <mxCell id="el4SjzeAoepcmtUn4qeZ-511" value="" style="endArrow=classic;html=1;rounded=0;exitX=0.75;exitY=1;exitDx=0;exitDy=0;entryX=0.417;entryY=0;entryDx=0;entryDy=0;entryPerimeter=0;labelBackgroundColor=none;strokeColor=#E07A5F;fontColor=default;" edge="1" target="el4SjzeAoepcmtUn4qeZ-514" parent="1">
          <mxGeometry width="50" height="50" relative="1" as="geometry">
            <mxPoint x="10648" y="1903.2018237562586" as="sourcePoint" />
            <mxPoint x="10668" y="1963.2018237562586" as="targetPoint" />
          </mxGeometry>
        </mxCell>
        <mxCell id="el4SjzeAoepcmtUn4qeZ-512" value="&lt;font style=&quot;font-size: 30px;&quot;&gt;&amp;gt;&lt;/font&gt;" style="edgeLabel;html=1;align=center;verticalAlign=middle;resizable=0;points=[];labelBackgroundColor=none;fontColor=#393C56;" vertex="1" connectable="0" parent="el4SjzeAoepcmtUn4qeZ-511">
          <mxGeometry x="-0.1129" relative="1" as="geometry">
            <mxPoint as="offset" />
          </mxGeometry>
        </mxCell>
        <mxCell id="el4SjzeAoepcmtUn4qeZ-513" value="&lt;span style=&quot;font-size: 20px;&quot;&gt;A[1]:A[5]&lt;/span&gt;" style="rounded=1;whiteSpace=wrap;html=1;labelBackgroundColor=none;fillColor=#F2CC8F;strokeColor=#E07A5F;fontColor=#393C56;" vertex="1" parent="1">
          <mxGeometry x="10138" y="2008.2018237562588" width="120" height="40" as="geometry" />
        </mxCell>
        <mxCell id="el4SjzeAoepcmtUn4qeZ-514" value="&lt;span style=&quot;font-size: 20px;&quot;&gt;A[2]:A[3]&lt;/span&gt;" style="rounded=1;whiteSpace=wrap;html=1;labelBackgroundColor=none;fillColor=#F2CC8F;strokeColor=#E07A5F;fontColor=#393C56;" vertex="1" parent="1">
          <mxGeometry x="10858" y="1983.2018237562588" width="120" height="40" as="geometry" />
        </mxCell>
        <mxCell id="el4SjzeAoepcmtUn4qeZ-515" value="" style="endArrow=classic;html=1;rounded=0;exitX=0.25;exitY=1;exitDx=0;exitDy=0;entryX=0.583;entryY=0;entryDx=0;entryDy=0;entryPerimeter=0;labelBackgroundColor=none;strokeColor=#E07A5F;fontColor=default;" edge="1" target="el4SjzeAoepcmtUn4qeZ-519" parent="1">
          <mxGeometry width="50" height="50" relative="1" as="geometry">
            <mxPoint x="10158" y="2048.201823756259" as="sourcePoint" />
            <mxPoint x="10128" y="2108.201823756259" as="targetPoint" />
            <Array as="points" />
          </mxGeometry>
        </mxCell>
        <mxCell id="el4SjzeAoepcmtUn4qeZ-516" value="&lt;font style=&quot;font-size: 31px;&quot;&gt;&amp;lt;&lt;/font&gt;" style="edgeLabel;html=1;align=center;verticalAlign=middle;resizable=0;points=[];labelBackgroundColor=none;fontColor=#393C56;" vertex="1" connectable="0" parent="el4SjzeAoepcmtUn4qeZ-515">
          <mxGeometry x="-0.1467" y="1" relative="1" as="geometry">
            <mxPoint as="offset" />
          </mxGeometry>
        </mxCell>
        <mxCell id="el4SjzeAoepcmtUn4qeZ-517" value="" style="endArrow=classic;html=1;rounded=0;exitX=0.75;exitY=1;exitDx=0;exitDy=0;entryX=0.417;entryY=0;entryDx=0;entryDy=0;entryPerimeter=0;labelBackgroundColor=none;strokeColor=#E07A5F;fontColor=default;" edge="1" target="el4SjzeAoepcmtUn4qeZ-520" parent="1">
          <mxGeometry width="50" height="50" relative="1" as="geometry">
            <mxPoint x="10218" y="2048.201823756259" as="sourcePoint" />
            <mxPoint x="10238" y="2108.201823756259" as="targetPoint" />
          </mxGeometry>
        </mxCell>
        <mxCell id="el4SjzeAoepcmtUn4qeZ-518" value="&lt;font style=&quot;font-size: 30px;&quot;&gt;&amp;gt;&lt;/font&gt;" style="edgeLabel;html=1;align=center;verticalAlign=middle;resizable=0;points=[];labelBackgroundColor=none;fontColor=#393C56;" vertex="1" connectable="0" parent="el4SjzeAoepcmtUn4qeZ-517">
          <mxGeometry x="-0.1129" relative="1" as="geometry">
            <mxPoint as="offset" />
          </mxGeometry>
        </mxCell>
        <mxCell id="el4SjzeAoepcmtUn4qeZ-519" value="&lt;span style=&quot;font-size: 20px;&quot;&gt;A[1] is Med.&lt;/span&gt;" style="rounded=1;whiteSpace=wrap;html=1;labelBackgroundColor=none;fillColor=#F2CC8F;strokeColor=#E07A5F;fontColor=#393C56;" vertex="1" parent="1">
          <mxGeometry x="9868" y="2128.201823756259" width="120" height="40" as="geometry" />
        </mxCell>
        <mxCell id="el4SjzeAoepcmtUn4qeZ-520" value="&lt;span style=&quot;font-size: 20px;&quot;&gt;A[5] is Med.&lt;/span&gt;" style="rounded=1;whiteSpace=wrap;html=1;labelBackgroundColor=none;fillColor=#F2CC8F;strokeColor=#E07A5F;fontColor=#393C56;" vertex="1" parent="1">
          <mxGeometry x="10428" y="2128.201823756259" width="120" height="40" as="geometry" />
        </mxCell>
        <mxCell id="el4SjzeAoepcmtUn4qeZ-521" value="" style="endArrow=classic;html=1;rounded=0;exitX=0.25;exitY=1;exitDx=0;exitDy=0;entryX=0.583;entryY=0;entryDx=0;entryDy=0;entryPerimeter=0;labelBackgroundColor=none;strokeColor=#E07A5F;fontColor=default;" edge="1" target="el4SjzeAoepcmtUn4qeZ-525" parent="1">
          <mxGeometry width="50" height="50" relative="1" as="geometry">
            <mxPoint x="10908" y="2023.2018237562588" as="sourcePoint" />
            <mxPoint x="10878" y="2083.201823756259" as="targetPoint" />
            <Array as="points" />
          </mxGeometry>
        </mxCell>
        <mxCell id="el4SjzeAoepcmtUn4qeZ-522" value="&lt;font style=&quot;font-size: 31px;&quot;&gt;&amp;lt;&lt;/font&gt;" style="edgeLabel;html=1;align=center;verticalAlign=middle;resizable=0;points=[];labelBackgroundColor=none;fontColor=#393C56;" vertex="1" connectable="0" parent="el4SjzeAoepcmtUn4qeZ-521">
          <mxGeometry x="-0.1467" y="1" relative="1" as="geometry">
            <mxPoint as="offset" />
          </mxGeometry>
        </mxCell>
        <mxCell id="el4SjzeAoepcmtUn4qeZ-523" value="" style="endArrow=classic;html=1;rounded=0;exitX=0.75;exitY=1;exitDx=0;exitDy=0;entryX=0.417;entryY=0;entryDx=0;entryDy=0;entryPerimeter=0;labelBackgroundColor=none;strokeColor=#E07A5F;fontColor=default;" edge="1" target="el4SjzeAoepcmtUn4qeZ-526" parent="1">
          <mxGeometry width="50" height="50" relative="1" as="geometry">
            <mxPoint x="10968" y="2023.2018237562588" as="sourcePoint" />
            <mxPoint x="10988" y="2083.201823756259" as="targetPoint" />
          </mxGeometry>
        </mxCell>
        <mxCell id="el4SjzeAoepcmtUn4qeZ-524" value="&lt;font style=&quot;font-size: 30px;&quot;&gt;&amp;gt;&lt;/font&gt;" style="edgeLabel;html=1;align=center;verticalAlign=middle;resizable=0;points=[];labelBackgroundColor=none;fontColor=#393C56;" vertex="1" connectable="0" parent="el4SjzeAoepcmtUn4qeZ-523">
          <mxGeometry x="-0.1129" relative="1" as="geometry">
            <mxPoint as="offset" />
          </mxGeometry>
        </mxCell>
        <mxCell id="el4SjzeAoepcmtUn4qeZ-525" value="&lt;span style=&quot;font-size: 20px;&quot;&gt;A[2] is Med.&lt;/span&gt;" style="rounded=1;whiteSpace=wrap;html=1;labelBackgroundColor=none;fillColor=#F2CC8F;strokeColor=#E07A5F;fontColor=#393C56;" vertex="1" parent="1">
          <mxGeometry x="10718" y="2118.201823756259" width="120" height="40" as="geometry" />
        </mxCell>
        <mxCell id="el4SjzeAoepcmtUn4qeZ-526" value="&lt;span style=&quot;font-size: 20px;&quot;&gt;A[3] is Med.&lt;/span&gt;" style="rounded=1;whiteSpace=wrap;html=1;labelBackgroundColor=none;fillColor=#F2CC8F;strokeColor=#E07A5F;fontColor=#393C56;" vertex="1" parent="1">
          <mxGeometry x="11008" y="2128.201823756259" width="120" height="40" as="geometry" />
        </mxCell>
      </root>
    </mxGraphModel>
  </diagram>
</mxfile>
